<?xml version="1.0" encoding="iso-8859-1"?>
<!-- Generator: Adobe Illustrator 19.0.0, SVG Export Plug-In . SVG Version: 6.00 Build 0)  -->
<svg version="1.1" id="Capa_1" xmlns="http://www.w3.org/2000/svg" xmlns:xlink="http://www.w3.org/1999/xlink" x="0px" y="0px"
	 viewBox="0 0 512.008 512.008" style="enable-background:new 0 0 512.008 512.008;" xml:space="preserve">
<g transform="translate(0 -1)">
	<g>
		<rect x="238.35" y="301.146" style="fill:#7F8C8D;" width="35.31" height="154.836"/>
		<path style="fill:#7F8C8D;" d="M459.04,486.525H52.971c-4.875,0-8.828-3.952-8.828-8.828c0-4.875,3.952-8.828,8.828-8.828H459.04
			c4.875,0,8.828,3.952,8.828,8.828C467.867,482.573,463.915,486.525,459.04,486.525z"/>
	</g>
	<g>
		<circle style="fill:#BDC3C7;" cx="256.005" cy="477.698" r="35.31"/>
		<circle style="fill:#BDC3C7;" cx="35.315" cy="477.698" r="35.31"/>
		<circle style="fill:#BDC3C7;" cx="476.695" cy="477.698" r="35.31"/>
	</g>
	<path style="fill:#B0D3F0;" d="M512.005,227.965c0.064,50.022-40.373,90.656-90.395,90.836H90.4
		c-36.625-0.173-69.563-22.328-83.53-56.186s-6.232-72.792,19.619-98.738c16.848-17.126,39.888-26.737,63.912-26.659h0.884
		c-0.608-5.038-0.903-10.109-0.884-15.183c-0.317-52.052,32.882-98.403,82.266-114.858s103.749,0.72,134.717,42.56
		c7.768-2.28,15.827-3.41,23.923-3.354c50.017,0.156,90.442,40.819,90.306,90.835C471.615,137.356,512.062,177.961,512.005,227.965z
		"/>
	<path style="fill:#90BAE1;" d="M216.01,159.118c-2.342,0.001-4.588-0.928-6.244-2.584c-1.656-1.656-2.585-3.902-2.584-6.244
		c-0.046-44.777,29.825-84.068,72.983-96c3.053-0.858,6.331-0.012,8.588,2.215c2.257,2.227,3.146,5.493,2.33,8.557
		c-0.817,3.064-3.214,5.454-6.28,6.263c-35.48,9.83-60.023,42.149-59.966,78.965c0.001,2.342-0.928,4.588-2.584,6.243
		C220.598,158.19,218.352,159.119,216.01,159.118z"/>
</g>
<g>
</g>
<g>
</g>
<g>
</g>
<g>
</g>
<g>
</g>
<g>
</g>
<g>
</g>
<g>
</g>
<g>
</g>
<g>
</g>
<g>
</g>
<g>
</g>
<g>
</g>
<g>
</g>
<g>
</g>
</svg>
