<?xml version="1.0" encoding="iso-8859-1"?>
<!-- Generator: Adobe Illustrator 19.0.0, SVG Export Plug-In . SVG Version: 6.00 Build 0)  -->
<svg version="1.1" id="Capa_1" xmlns="http://www.w3.org/2000/svg" xmlns:xlink="http://www.w3.org/1999/xlink" x="0px" y="0px"
	 viewBox="0 0 512 512" style="enable-background:new 0 0 512 512;" xml:space="preserve">
<g>
	<g>
		<path style="fill:#E57E25;" d="M123.586,308.966H8.828c-4.875,0-8.828-3.952-8.828-8.828v-61.793c0-4.875,3.952-8.828,8.828-8.828
			h114.759c4.875,0,8.828,3.952,8.828,8.828v61.793C132.414,305.013,128.462,308.966,123.586,308.966z"/>
		<path style="fill:#E57E25;" d="M8.828,0h114.759c4.875,0,8.828,3.952,8.828,8.828v61.793c0,4.875-3.952,8.828-8.828,8.828H8.828
			C3.952,79.448,0,75.496,0,70.621V8.828C0,3.952,3.952,0,8.828,0z"/>
		<path style="fill:#E57E25;" d="M176.552,0h158.897c4.875,0,8.828,3.952,8.828,8.828v61.793c0,4.875-3.952,8.828-8.828,8.828
			H176.552c-4.875,0-8.828-3.952-8.828-8.828V8.828C167.724,3.952,171.676,0,176.552,0z"/>
		<path style="fill:#E57E25;" d="M238.345,127.382v-3.796c-0.014-4.869-3.958-8.813-8.828-8.828H8.828
			c-4.869,0.014-8.813,3.958-8.828,8.828v61.793c0.014,4.869,3.958,8.813,8.828,8.828h179.023l6.356-44.138L238.345,127.382z"/>
		<path style="fill:#E57E25;" d="M326.621,194.207h176.552c4.869-0.014,8.813-3.958,8.828-8.828v-61.793
			c-0.014-4.869-3.958-8.813-8.828-8.828h-220.69c-4.869,0.014-8.813,3.958-8.828,8.828v8.828l44.138,8.828L326.621,194.207z"/>
		<path style="fill:#E57E25;" d="M130.03,423.724H8.828c-4.869-0.014-8.813-3.958-8.828-8.828v-61.793
			c0.014-4.869,3.958-8.813,8.828-8.828h129.501L130.03,423.724z"/>
		<path style="fill:#E57E25;" d="M393.181,344.276h109.992c4.869,0.014,8.813,3.958,8.828,8.828v61.793
			c-0.014,4.869-3.958,8.813-8.828,8.828H392.21L393.181,344.276z"/>
		<path style="fill:#E57E25;" d="M388.414,0h114.759C508.048,0,512,3.952,512,8.828v61.793c0,4.875-3.952,8.828-8.828,8.828H388.414
			c-4.875,0-8.828-3.952-8.828-8.828V8.828C379.586,3.952,383.538,0,388.414,0z"/>
	</g>
	<path style="fill:none;stroke:#000000;stroke-width:2;stroke-linecap:round;stroke-linejoin:round;" d="M264.21,308.966h-7.945"/>
	<g>
		<path style="fill:#E57E25;" d="M388.414,229.517h114.759c4.875,0,8.828,3.952,8.828,8.828v61.793c0,4.875-3.952,8.828-8.828,8.828
			H388.414c-4.875,0-8.828-3.952-8.828-8.828v-61.793C379.586,233.469,383.538,229.517,388.414,229.517z"/>
		<g>
			<path style="fill:#D25627;" d="M35.31,273.655h17.655c4.875,0,8.828-3.952,8.828-8.828S57.841,256,52.966,256H35.31
				c-4.875,0-8.828,3.952-8.828,8.828S30.435,273.655,35.31,273.655z"/>
			<path style="fill:#D25627;" d="M52.966,44.138H35.31c-4.875,0-8.828-3.952-8.828-8.828s3.952-8.828,8.828-8.828h17.655
				c4.875,0,8.828,3.952,8.828,8.828S57.841,44.138,52.966,44.138z"/>
			<path style="fill:#D25627;" d="M247.172,44.138h-44.138c-4.875,0-8.828-3.952-8.828-8.828s3.952-8.828,8.828-8.828h44.138
				c4.875,0,8.828,3.952,8.828,8.828S252.048,44.138,247.172,44.138z"/>
			<path style="fill:#D25627;" d="M79.448,158.897H35.31c-4.875,0-8.828-3.952-8.828-8.828s3.952-8.828,8.828-8.828h44.138
				c4.875,0,8.828,3.952,8.828,8.828S84.324,158.897,79.448,158.897z"/>
			<path style="fill:#D25627;" d="M79.448,388.414H35.31c-4.875,0-8.828-3.952-8.828-8.828s3.952-8.828,8.828-8.828h44.138
				c4.875,0,8.828,3.952,8.828,8.828S84.324,388.414,79.448,388.414z"/>
			<path style="fill:#D25627;" d="M476.69,44.138h-8.828c-4.875,0-8.828-3.952-8.828-8.828s3.952-8.828,8.828-8.828h8.828
				c4.875,0,8.828,3.952,8.828,8.828S481.565,44.138,476.69,44.138z"/>
			<path style="fill:#D25627;" d="M476.69,273.655h-8.828c-4.875,0-8.828-3.952-8.828-8.828s3.952-8.828,8.828-8.828h8.828
				c4.875,0,8.828,3.952,8.828,8.828S481.565,273.655,476.69,273.655z"/>
		</g>
		<path style="fill:#F29C1F;" d="M311.172,503.702c-0.088,0.088-0.265,0.177-0.353,0.265"/>
		<path style="fill:#95A5A5;" d="M344.276,167.724v114.759h-35.31V167.724c-0.028-9.739-7.916-17.627-17.655-17.655H220.69
			c-9.739,0.028-17.627,7.916-17.655,17.655v114.759h-35.31V167.724c0.023-29.242,23.723-52.942,52.966-52.966h70.621
			C320.553,114.782,344.253,138.482,344.276,167.724z"/>
		<path style="fill:#547580;" d="M105.931,423.724v52.966c-0.003,9.366,3.717,18.348,10.339,24.971
			c6.623,6.622,15.605,10.342,24.971,10.339h229.517c9.366,0.003,18.349-3.717,24.971-10.339
			c6.623-6.623,10.342-15.605,10.339-24.971V300.138c0.014-16.101-10.887-30.163-26.483-34.163
			c-2.875-0.788-5.846-1.175-8.828-1.148H141.241c-2.981-0.027-5.952,0.359-8.828,1.148c-15.596,4-26.497,18.062-26.483,34.163
			V423.724z"/>
		<circle style="fill:#E6E7E8;" cx="256" cy="388.414" r="79.448"/>
		<g>
			<circle style="fill:#547580;" cx="256" cy="379.586" r="26.483"/>
			<path style="fill:#547580;" d="M256,441.379c-2.342,0.001-4.588-0.928-6.244-2.584c-1.656-1.656-2.585-3.902-2.584-6.244v-26.483
				c0-4.875,3.952-8.828,8.828-8.828s8.828,3.952,8.828,8.828v26.483c0.001,2.342-0.928,4.588-2.584,6.244
				C260.588,440.451,258.342,441.381,256,441.379z"/>
		</g>
	</g>
</g>
<g>
</g>
<g>
</g>
<g>
</g>
<g>
</g>
<g>
</g>
<g>
</g>
<g>
</g>
<g>
</g>
<g>
</g>
<g>
</g>
<g>
</g>
<g>
</g>
<g>
</g>
<g>
</g>
<g>
</g>
</svg>
