<?xml version="1.0" encoding="iso-8859-1"?>
<!-- Generator: Adobe Illustrator 19.0.0, SVG Export Plug-In . SVG Version: 6.00 Build 0)  -->
<svg version="1.1" id="Capa_1" xmlns="http://www.w3.org/2000/svg" xmlns:xlink="http://www.w3.org/1999/xlink" x="0px" y="0px"
	 viewBox="0 0 512 512" style="enable-background:new 0 0 512 512;" xml:space="preserve">
<g>
	<rect x="132.414" y="114.759" style="fill:#2C3E50;" width="247.172" height="123.586"/>
	<g>
		<rect x="238.345" y="379.586" style="fill:#7F8C8D;" width="35.31" height="75.388"/>
		<path style="fill:#7F8C8D;" d="M459.034,485.517H52.966c-4.875,0-8.828-3.952-8.828-8.828s3.952-8.828,8.828-8.828h406.069
			c4.875,0,8.828,3.952,8.828,8.828S463.91,485.517,459.034,485.517z"/>
	</g>
	<g>
		<circle style="fill:#BDC3C7;" cx="256" cy="476.69" r="35.31"/>
		<circle style="fill:#BDC3C7;" cx="35.31" cy="476.69" r="35.31"/>
		<circle style="fill:#BDC3C7;" cx="476.69" cy="476.69" r="35.31"/>
	</g>
	<g>
		<path style="fill:#35495E;" d="M132.414,0h247.172c4.875,0,8.828,3.952,8.828,8.828v141.241c0,4.875-3.952,8.828-8.828,8.828
			H132.414c-4.875,0-8.828-3.952-8.828-8.828V8.828C123.586,3.952,127.538,0,132.414,0z"/>
		<path style="fill:#35495E;" d="M132.414,194.207h247.172c4.875,0,8.828,3.952,8.828,8.828v185.379
			c0,4.875-3.952,8.828-8.828,8.828H132.414c-4.875,0-8.828-3.952-8.828-8.828V203.034
			C123.586,198.159,127.538,194.207,132.414,194.207z"/>
	</g>
	<path style="fill:#84B5CB;" d="M353.103,44.138v35.31c-0.014,4.869-3.958,8.813-8.828,8.828h-44.138V35.31h44.138
		C349.145,35.324,353.089,39.268,353.103,44.138z"/>
	<g>
		<path style="fill:#B0D3F0;" d="M300.138,35.31v52.966H167.724c-4.869-0.014-8.813-3.958-8.828-8.828v-35.31
			c0.014-4.869,3.958-8.813,8.828-8.828H300.138z"/>
		<path style="fill:#B0D3F0;" d="M300.138,114.759h-8.828c-4.875,0-8.828,3.952-8.828,8.828c0,4.875,3.952,8.828,8.828,8.828h8.828
			c4.875,0,8.828-3.952,8.828-8.828C308.966,118.711,305.013,114.759,300.138,114.759z"/>
		<path style="fill:#B0D3F0;" d="M344.276,114.759h-8.828c-4.875,0-8.828,3.952-8.828,8.828c0,4.875,3.952,8.828,8.828,8.828h8.828
			c4.875,0,8.828-3.952,8.828-8.828C353.103,118.711,349.151,114.759,344.276,114.759z"/>
	</g>
	<g>
		<path style="fill:#84B5CB;" d="M185.379,256v141.241h-17.655V256c0-4.875,3.952-8.828,8.828-8.828S185.379,251.125,185.379,256z"
			/>
		<path style="fill:#84B5CB;" d="M185.379,194.207v26.483c0,4.875-3.952,8.828-8.828,8.828s-8.828-3.952-8.828-8.828v-26.483
			H185.379z"/>
	</g>
</g>
<g>
</g>
<g>
</g>
<g>
</g>
<g>
</g>
<g>
</g>
<g>
</g>
<g>
</g>
<g>
</g>
<g>
</g>
<g>
</g>
<g>
</g>
<g>
</g>
<g>
</g>
<g>
</g>
<g>
</g>
</svg>
