<svg viewBox="0 0 64 64" xmlns="http://www.w3.org/2000/svg"><g id="Icons"><g><g><g><g><path d="m18 24h-12c-1.105 0-2-.895-2-2v-12l6-6h8c1.105 0 2 .895 2 2v16c0 1.105-.895 2-2 2z" fill="#00a0c8"/></g></g></g><g><g><g><path d="m4 10 6-6v4c0 1.105-.895 2-2 2z" fill="#0082aa"/></g></g></g><g><g><g><path d="m11 14h4c.552 0 1-.448 1-1 0-.552-.448-1-1-1h-4c-.552 0-1 .448-1 1 0 .552.448 1 1 1z" fill="#0082aa"/></g></g></g><g><g><g><path d="m9 18h6c.552 0 1-.448 1-1 0-.552-.448-1-1-1h-6c-.552 0-1 .448-1 1 0 .552.448 1 1 1z" fill="#0082aa"/></g></g></g><g><g><g><path d="m38 44h-12c-1.105 0-2-.895-2-2v-12l6-6h8c1.105 0 2 .895 2 2v16c0 1.105-.895 2-2 2z" fill="#c80a50"/></g></g></g><g><g><g><path d="m24 30 6-6v4c0 1.105-.895 2-2 2z" fill="#a00028"/></g></g></g><g><g><g><path d="m31 34h4c.552 0 1-.448 1-1 0-.552-.448-1-1-1h-4c-.552 0-1 .448-1 1 0 .552.448 1 1 1z" fill="#a00028"/></g></g></g><g><g><g><path d="m29 38h6c.552 0 1-.448 1-1 0-.552-.448-1-1-1h-6c-.552 0-1 .448-1 1 0 .552.448 1 1 1z" fill="#a00028"/></g></g></g><g><g><g><path d="m58 60h-12c-1.105 0-2-.895-2-2v-12l6-6h8c1.105 0 2 .895 2 2v16c0 1.105-.895 2-2 2z" fill="#fab400"/></g></g></g><g><g><g><path d="m44 46 6-6v4c0 1.105-.895 2-2 2z" fill="#dc9600"/></g></g></g><g><g><g><path d="m51 50h4c.552 0 1-.448 1-1 0-.552-.448-1-1-1h-4c-.552 0-1 .448-1 1 0 .552.448 1 1 1z" fill="#dc9600"/></g></g></g><g><g><g><path d="m49 54h6c.552 0 1-.448 1-1 0-.552-.448-1-1-1h-6c-.552 0-1 .448-1 1 0 .552.448 1 1 1z" fill="#dc9600"/></g></g></g><path d="m35.924 19.617c-.154-.373-.52-.617-.924-.617h-1v-3c0-2.209-1.791-4-4-4h-10v4h10v3h-1c-.404 0-.769.244-.924.617-.155.374-.069.804.217 1.09l3 3c.195.195.451.293.707.293s.512-.098.707-.293l3-3c.286-.286.372-.716.217-1.09z" fill="#0a5078"/><path d="m43.707 51.293-3-3c-.286-.286-.715-.371-1.09-.217-.374.155-.617.52-.617.924v1h-5v-6h-4v6c0 2.209 1.791 4 4 4h5v1c0 .404.243.769.617.924.124.051.254.076.383.076.26 0 .516-.102.707-.293l3-3c.391-.391.391-1.023 0-1.414z" fill="#0a5078"/><g><g><g><path d="m20 12h1v4h-1z" fill="#00325a"/></g></g></g><g><g><g><path d="m30 44h4v1h-4z" fill="#00325a"/></g></g></g></g></g></svg>