<?xml version="1.0" encoding="iso-8859-1"?>
<!-- Generator: Adobe Illustrator 19.0.0, SVG Export Plug-In . SVG Version: 6.00 Build 0)  -->
<svg version="1.1" id="Capa_1" xmlns="http://www.w3.org/2000/svg" xmlns:xlink="http://www.w3.org/1999/xlink" x="0px" y="0px"
	 viewBox="0 0 512 512" style="enable-background:new 0 0 512 512;" xml:space="preserve">
<g>
	<path style="fill:#CBB292;" d="M379.586,70.621H61.793c-9.739,0.029-17.627,7.916-17.655,17.655v406.069
		c0.029,9.739,7.916,17.627,17.655,17.655H256l123.586-123.586V70.621z"/>
	<path style="fill:#7F6E5D;" d="M256,512V406.069c0-9.751,7.904-17.655,17.655-17.655h105.931L256,512z"/>
	<g>
		<path style="fill:#E6E7E8;" d="M97.103,256H256c4.875,0,8.828-3.952,8.828-8.828s-3.952-8.828-8.828-8.828H97.103
			c-4.875,0-8.828,3.952-8.828,8.828S92.228,256,97.103,256z"/>
		<path style="fill:#E6E7E8;" d="M264.828,282.483H97.103c-4.875,0-8.828,3.952-8.828,8.828s3.952,8.828,8.828,8.828h167.724
			c4.875,0,8.828-3.952,8.828-8.828S269.703,282.483,264.828,282.483z"/>
		<path style="fill:#E6E7E8;" d="M264.828,326.621H97.103c-4.875,0-8.828,3.952-8.828,8.828s3.952,8.828,8.828,8.828h167.724
			c4.875,0,8.828-3.952,8.828-8.828S269.703,326.621,264.828,326.621z"/>
		<path style="fill:#E6E7E8;" d="M211.862,370.759H97.103c-4.875,0-8.828,3.952-8.828,8.828s3.952,8.828,8.828,8.828h114.759
			c4.875,0,8.828-3.952,8.828-8.828S216.737,370.759,211.862,370.759z"/>
		<path style="fill:#E6E7E8;" d="M211.862,414.897H97.103c-4.875,0-8.828,3.952-8.828,8.828c0,4.875,3.952,8.828,8.828,8.828
			h114.759c4.875,0,8.828-3.952,8.828-8.828C220.69,418.849,216.737,414.897,211.862,414.897z"/>
	</g>
	<circle style="fill:#26B99A;" cx="353.103" cy="114.759" r="114.759"/>
	<g>
		<path style="fill:#FFFFFF;" d="M296.766,131.734c3.301,1.359,7.095,0.603,9.624-1.917l26.472-26.473
			c2.264-2.223,3.16-5.49,2.348-8.556c-0.812-3.067-3.207-5.462-6.274-6.274c-3.067-0.812-6.333,0.085-8.556,2.348l-11.414,11.414
			V79.448c0.003-4.874,3.954-8.824,8.828-8.828h79.448c4.875,0,8.828-3.952,8.828-8.828s-3.952-8.828-8.828-8.828h-79.448
			c-14.619,0.016-26.467,11.863-26.483,26.483v22.828l-11.414-11.414c-3.453-3.41-9.012-3.392-12.443,0.039
			c-3.432,3.432-3.449,8.99-0.039,12.443l26.472,26.472C294.71,130.64,295.689,131.292,296.766,131.734z"/>
		<path style="fill:#FFFFFF;" d="M438.793,117.345l-26.472-26.472c-3.456-3.447-9.049-3.447-12.504,0l-26.471,26.472
			c-3.394,3.456-3.369,9.001,0.056,12.426c3.425,3.425,8.97,3.45,12.426,0.056l11.414-11.414v22.828
			c-0.003,4.874-3.954,8.824-8.828,8.828h-79.448c-4.875,0-8.828,3.952-8.828,8.828s3.952,8.828,8.828,8.828h79.448
			c14.619-0.016,26.467-11.863,26.483-26.483v-22.828l11.414,11.414c2.225,2.253,5.487,3.142,8.547,2.328s5.451-3.204,6.264-6.264
			C441.935,122.832,441.046,119.57,438.793,117.345z"/>
	</g>
</g>
<g>
</g>
<g>
</g>
<g>
</g>
<g>
</g>
<g>
</g>
<g>
</g>
<g>
</g>
<g>
</g>
<g>
</g>
<g>
</g>
<g>
</g>
<g>
</g>
<g>
</g>
<g>
</g>
<g>
</g>
</svg>
