<svg viewBox="0 0 64 64" xmlns="http://www.w3.org/2000/svg"><g id="Icons"><g><g><g><g><path d="m32 34h-27c-.552 0-1-.448-1-1v-2c0-.552.448-1 1-1h27z" fill="#c80a50"/></g></g></g><g><g><g><path d="m38 60h-12c-1.105 0-2-.895-2-2v-12l6-6h8c1.105 0 2 .895 2 2v16c0 1.105-.895 2-2 2z" fill="#c80a50"/></g></g></g><g><g><g><path d="m24 46 6-6v4c0 1.105-.895 2-2 2z" fill="#a00028"/></g></g></g><g><g><g><path d="m31 50h4c.552 0 1-.448 1-1 0-.552-.448-1-1-1h-4c-.552 0-1 .448-1 1 0 .552.448 1 1 1z" fill="#a00028"/></g></g></g><g><g><g><path d="m29 54h6c.552 0 1-.448 1-1 0-.552-.448-1-1-1h-6c-.552 0-1 .448-1 1 0 .552.448 1 1 1z" fill="#a00028"/></g></g></g><g><g><g><path d="m58 60h-12c-1.105 0-2-.895-2-2v-12l6-6h8c1.105 0 2 .895 2 2v16c0 1.105-.895 2-2 2z" fill="#fab400"/></g></g></g><g><g><g><path d="m44 46 6-6v4c0 1.105-.895 2-2 2z" fill="#dc9600"/></g></g></g><g><g><g><path d="m51 50h4c.552 0 1-.448 1-1 0-.552-.448-1-1-1h-4c-.552 0-1 .448-1 1 0 .552.448 1 1 1z" fill="#dc9600"/></g></g></g><g><g><g><path d="m49 54h6c.552 0 1-.448 1-1 0-.552-.448-1-1-1h-6c-.552 0-1 .448-1 1 0 .552.448 1 1 1z" fill="#dc9600"/></g></g></g><g><g><g><path d="m18 60h-12c-1.105 0-2-.895-2-2v-12l6-6h8c1.105 0 2 .895 2 2v16c0 1.105-.895 2-2 2z" fill="#00a0c8"/></g></g></g><g><g><g><path d="m4 46 6-6v4c0 1.105-.895 2-2 2z" fill="#0082aa"/></g></g></g><g><g><g><path d="m11 50h4c.552 0 1-.448 1-1 0-.552-.448-1-1-1h-4c-.552 0-1 .448-1 1 0 .552.448 1 1 1z" fill="#0082aa"/></g></g></g><g><g><g><path d="m9 54h6c.552 0 1-.448 1-1 0-.552-.448-1-1-1h-6c-.552 0-1 .448-1 1 0 .552.448 1 1 1z" fill="#0082aa"/></g></g></g><g><g><g><path d="m32 34v-4c5.514 0 10-4.486 10-10s-4.486-10-10-10v-4c7.72 0 14 6.28 14 14s-6.28 14-14 14z" fill="#c80a50"/></g></g></g><g><g><g><path d="m32 34c-7.72 0-14-6.28-14-14s6.28-14 14-14v4c-5.514 0-10 4.486-10 10s4.486 10 10 10z" fill="#00a0c8"/></g></g></g><g><g><g><path d="m27.293 7.293c-.391.391-.391 1.023 0 1.414l1.742 1.742c.937-.292 1.933-.449 2.965-.449v-4c-1.387 0-2.728.203-3.995.58z" fill="#0082aa"/></g></g></g><path d="m32.383 4.076c-.374-.154-.804-.07-1.09.217l-3 3c-.391.391-.391 1.023 0 1.414l3 3c.191.191.447.293.707.293.129 0 .259-.025.383-.076.374-.155.617-.52.617-.924v-6c0-.404-.243-.769-.617-.924z" fill="#c80a50"/><path d="m59.707 31.293-3-3c-.285-.286-.715-.371-1.09-.217-.374.155-.617.52-.617.924v6c0 .404.243.769.617.924.124.051.254.076.383.076.26 0 .516-.102.707-.293l3-3c.391-.391.391-1.023 0-1.414z" fill="#00a0c8"/><g><g><g><path d="m32 30h23v4h-23z" fill="#00a0c8"/></g></g></g><g><g><g><path d="m31 24h2v16h-2z" fill="#fab400"/></g></g></g><g><g><g><path d="m53 40h-2v-16c0-1.654-1.346-3-3-3h-12v-2h12c2.757 0 5 2.243 5 5z" fill="#fab400"/></g></g></g><g><g><g><path d="m13 40h-2v-16c0-2.757 2.243-5 5-5h12v2h-12c-1.654 0-3 1.346-3 3z" fill="#fab400"/></g></g></g><g><g><g><path d="m39.062 21.768-1.167-.674c.066-.355.105-.72.105-1.094s-.039-.739-.104-1.094l1.167-.674c.478-.276.642-.888.366-1.366l-1-1.732c-.276-.478-.888-.642-1.366-.366l-.591.341c-.324.187-.732.189-1.038-.025-.281-.196-.579-.368-.892-.514-.34-.158-.542-.513-.542-.887v-.683c0-.552-.448-1-1-1h-2c-.552 0-1 .448-1 1v.683c0 .374-.202.729-.541.887-.313.146-.611.318-.892.514-.306.214-.715.212-1.038.025l-.591-.341c-.478-.276-1.09-.112-1.366.366l-1 1.732c-.276.478-.112 1.09.366 1.366l1.167.674c-.066.355-.105.72-.105 1.094s.039.739.104 1.094l-1.167.674c-.478.276-.642.888-.366 1.366l1 1.732c.276.478.888.642 1.366.366l.591-.341c.324-.187.732-.189 1.038.025.281.196.579.368.892.514.34.158.542.513.542.887v.683c0 .552.448 1 1 1h2c.552 0 1-.448 1-1v-.683c0-.374.202-.729.541-.887.313-.146.611-.318.892-.514.306-.214.715-.212 1.038-.025l.591.341c.478.276 1.09.112 1.366-.366l1-1.732c.276-.478.112-1.09-.366-1.366zm-7.062 2.232c-2.209 0-4-1.791-4-4s1.791-4 4-4 4 1.791 4 4-1.791 4-4 4z" fill="#0a5078"/></g></g></g><g><g><g><path d="m18.143 22h4.058c-.067-.328-.117-.661-.151-1h-4.014c.023.337.059.67.107 1z" fill="#0082aa"/></g></g></g><g><g><g><path d="m41.799 22h4.058c.047-.33.083-.663.107-1h-4.014c-.034.339-.084.672-.151 1z" fill="#a00028"/></g></g></g><g><g><g><path d="m13 30h1v4h-1z" fill="#a00028"/></g></g></g><g><g><g><path d="m33 30h1v4h-1z" fill="#0082aa"/></g></g></g><g><g><g><path d="m53 30h1v4h-1z" fill="#0082aa"/></g></g></g></g></g></svg>