<?xml version="1.0" encoding="UTF-8"?>
<svg version="1.1" xmlns="http://www.w3.org/2000/svg" viewBox="0 0 512 512">
<path d="M0 0 C0.99829834 -0.0038269 1.99659668 -0.00765381 3.02514648 -0.01159668 C5.12973035 -0.0143111 7.23434822 -0.00698292 9.33886719 0.00976562 C12.55220061 0.03118136 15.76329826 0.00994735 18.9765625 -0.015625 C21.02604658 -0.01298164 23.07552927 -0.0078565 25.125 0 C26.08140381 -0.00809692 27.03780762 -0.01619385 28.02319336 -0.02453613 C33.71269234 0.05507107 37.06810305 0.69965777 41.5625 4.53125 C46.4019181 9.80913887 46.21584675 15.09658899 46.3125 21.90625 C46.34214844 22.92847656 46.37179687 23.95070313 46.40234375 25.00390625 C46.47269494 27.51309853 46.52556206 30.02138054 46.5625 32.53125 C46.9656543 32.11762207 47.36880859 31.70399414 47.78417969 31.27783203 C49.62163675 29.39868654 51.4669431 27.52743964 53.3125 25.65625 C53.94671875 25.00527344 54.5809375 24.35429687 55.234375 23.68359375 C56.1625 22.74580078 56.1625 22.74580078 57.109375 21.7890625 C57.67495117 21.2130127 58.24052734 20.63696289 58.82324219 20.04345703 C62.16481755 17.13810641 65.04773762 16.22462636 69.4375 16.15625 C70.25992188 16.12789063 71.08234375 16.09953125 71.9296875 16.0703125 C78.14627366 17.15867625 82.70154543 22.37333607 86.984375 26.6875 C87.57043518 27.27164673 88.15649536 27.85579346 88.76031494 28.4576416 C89.98964061 29.68561388 91.21647481 30.91608497 92.44091797 32.14892578 C94.3138795 34.03263742 96.19732629 35.90538985 98.08203125 37.77734375 C99.27928795 38.97592144 100.47592442 40.17511905 101.671875 41.375 C102.23332214 41.93239868 102.79476929 42.48979736 103.37322998 43.06408691 C107.63724832 47.37969742 109.84254885 50.31038606 109.9375 56.40625 C109.96585938 57.22867188 109.99421875 58.05109375 110.0234375 58.8984375 C108.91510079 65.2291065 103.74787635 69.60881598 99.3125 73.90625 C98.48105469 74.72416016 98.48105469 74.72416016 97.6328125 75.55859375 C96.28061269 76.88747977 94.9221965 78.21003548 93.5625 79.53125 C94.19752441 79.5405957 94.83254883 79.54994141 95.48681641 79.55957031 C98.387808 79.61353733 101.28723244 79.69713127 104.1875 79.78125 C105.68603516 79.80251953 105.68603516 79.80251953 107.21484375 79.82421875 C113.10370209 80.01921406 117.03882518 80.38338816 121.5625 84.53125 C126.11384613 89.86990686 126.15044944 94.27144617 126.09375 100.96875 C126.0975769 101.96704834 126.10140381 102.96534668 126.10534668 103.99389648 C126.1080611 106.09848035 126.10073292 108.20309822 126.08398438 110.30761719 C126.06256864 113.52095061 126.08380265 116.73204826 126.109375 119.9453125 C126.10673164 121.99479658 126.1016065 124.04427927 126.09375 126.09375 C126.10184692 127.05015381 126.10994385 128.00655762 126.11828613 128.99194336 C126.03906431 134.65389953 125.45396052 138.10787569 121.5625 142.53125 C116.25456411 146.78744968 110.12387791 147.17038186 103.5625 147.28125 C102.69238281 147.31089844 101.82226562 147.34054687 100.92578125 147.37109375 C98.80516784 147.44100408 96.68383437 147.48848116 94.5625 147.53125 C95.47773438 148.41167969 96.39296875 149.29210937 97.3359375 150.19921875 C98.53685502 151.37198976 99.73735398 152.54518949 100.9375 153.71875 C101.54078125 154.29689453 102.1440625 154.87503906 102.765625 155.47070312 C106.63436933 159.27496839 109.12161366 162.23891697 109.86328125 167.77734375 C109.86714844 168.50050781 109.87101563 169.22367188 109.875 169.96875 C109.89175781 170.68933594 109.90851563 171.40992188 109.92578125 172.15234375 C108.96035773 178.47431067 104.94938419 182.6009926 100.609375 186.91796875 C100.03092834 187.50165726 99.45248169 188.08534576 98.85650635 188.6867218 C97.6364643 189.91315909 96.41256948 191.13577446 95.18505859 192.35473633 C93.31980392 194.21147941 91.47397465 196.08611241 89.62890625 197.96289062 C88.43602774 199.15738145 87.24205251 200.35077825 86.046875 201.54296875 C85.50182312 202.09925461 84.95677124 202.65554047 84.39520264 203.22868347 C80.26735766 207.28351398 76.07532223 210.22212164 70.12109375 210.74609375 C69.07115234 210.60880859 69.07115234 210.60880859 68 210.46875 C67.29746094 210.39527344 66.59492188 210.32179688 65.87109375 210.24609375 C60.01373084 208.43239254 55.83735991 204.07770823 51.6875 199.78125 C51.18992187 199.27464844 50.69234375 198.76804687 50.1796875 198.24609375 C48.96926798 197.01239693 47.76520147 195.77247216 46.5625 194.53125 C46.54848145 195.48378662 46.54848145 195.48378662 46.53417969 196.45556641 C46.48021267 199.356558 46.39661873 202.25598244 46.3125 205.15625 C46.29832031 206.15527344 46.28414062 207.15429688 46.26953125 208.18359375 C46.07526401 214.05046436 45.76102687 218.07203028 41.5625 222.53125 C35.84293253 226.54494116 31.57855273 227.11480532 24.68359375 227.02734375 C23.75329849 227.02879898 22.82300323 227.03025421 21.86451721 227.03175354 C19.90712334 227.03010076 17.94971562 227.01860946 15.99243164 226.99780273 C13.00545826 226.96880299 10.02025742 226.97721621 7.03320312 226.99023438 C5.12499142 226.98399737 3.21678529 226.97560674 1.30859375 226.96484375 C0.42094833 226.96777939 -0.46669708 226.97071503 -1.38124084 226.97373962 C-7.17751205 226.88598964 -11.62648819 226.09521327 -16.08203125 222.03125 C-19.29479169 217.90516301 -20.52366551 215.02725207 -20.75390625 209.86328125 C-20.79580078 208.97060547 -20.83769531 208.07792969 -20.88085938 207.15820312 C-20.92017578 206.22943359 -20.95949219 205.30066406 -21 204.34375 C-21.04318359 203.40337891 -21.08636719 202.46300781 -21.13085938 201.49414062 C-21.23688665 199.17332146 -21.33895029 196.85239675 -21.4375 194.53125 C-22.026521 195.15169189 -22.026521 195.15169189 -22.62744141 195.78466797 C-24.42834277 197.6691845 -26.24509473 199.53765021 -28.0625 201.40625 C-28.67996094 202.05722656 -29.29742187 202.70820313 -29.93359375 203.37890625 C-34.18146887 207.71621032 -37.48636957 210.14428362 -43.7109375 210.75390625 C-50.51361007 210.23548696 -53.79575469 207.30074977 -58.4375 202.53125 C-59.78521484 201.2009375 -59.78521484 201.2009375 -61.16015625 199.84375 C-63.60433173 197.42363814 -66.02768656 194.98550672 -68.4375 192.53125 C-71.99206339 193.64551739 -75.16368885 194.83813015 -78.375 196.71875 C-82.37175309 198.77072285 -85.04934562 198.82188364 -89.4375 197.53125 C-92.08514845 195.85440598 -92.39227045 194.67986139 -93.3125 191.65625 C-93.46892617 187.74559564 -93.00312006 186.48560038 -90.4375 183.53125 C-87.86006188 181.97362499 -85.20698181 180.70877315 -82.4375 179.53125 C-82.788125 178.561875 -83.13875 177.5925 -83.5 176.59375 C-84.74265161 172.06172647 -84.88735298 168.03670711 -83.4375 163.53125 C-81.45173491 160.48947111 -79.03600884 158.05565688 -76.4375 155.53125 C-75.32761719 154.40396484 -75.32761719 154.40396484 -74.1953125 153.25390625 C-72.29308845 151.32798902 -70.37405845 149.42253825 -68.4375 147.53125 C-69.01193848 147.51666748 -69.58637695 147.50208496 -70.17822266 147.48706055 C-72.80695696 147.41211275 -75.43448552 147.31561006 -78.0625 147.21875 C-79.41794922 147.18491211 -79.41794922 147.18491211 -80.80078125 147.15039062 C-86.80426703 146.90937477 -91.461242 146.24593663 -96.08203125 142.03125 C-99.15554691 138.08399242 -100.54803912 135.32434811 -100.61450195 130.35449219 C-100.63375481 129.09738434 -100.63375481 129.09738434 -100.65339661 127.81488037 C-100.66078354 126.9117511 -100.66817047 126.00862183 -100.67578125 125.078125 C-100.683853 124.14454163 -100.69192474 123.21095825 -100.70024109 122.24908447 C-100.71407233 120.27203218 -100.72479878 118.29495611 -100.73266602 116.31787109 C-100.74985586 113.30650073 -100.79374787 110.29623499 -100.83789062 107.28515625 C-100.84802006 105.36198722 -100.85653538 103.43880888 -100.86328125 101.515625 C-100.88078934 100.62059265 -100.89829742 99.7255603 -100.91633606 98.80340576 C-100.89585531 92.84812674 -99.88328265 89.42076547 -96.4375 84.53125 C-91.24500738 79.64231849 -85.83089159 79.87731749 -79.0625 79.78125 C-78.04027344 79.75160156 -77.01804687 79.72195313 -75.96484375 79.69140625 C-73.45565147 79.62105506 -70.94736946 79.56818794 -68.4375 79.53125 C-69.79294922 78.24541016 -69.79294922 78.24541016 -71.17578125 76.93359375 C-72.36772049 75.7791959 -73.55909708 74.62421691 -74.75 73.46875 C-75.34490234 72.90736328 -75.93980469 72.34597656 -76.55273438 71.76757812 C-80.96586288 67.45306701 -84.09094086 63.469422 -84.65234375 57.08984375 C-84.56082031 56.38988281 -84.46929687 55.68992187 -84.375 54.96875 C-84.30152344 54.26621094 -84.22804688 53.56367188 -84.15234375 52.83984375 C-82.32525783 46.9392548 -77.80304837 42.58871081 -73.53515625 38.328125 C-72.97557724 37.76426086 -72.41599823 37.20039673 -71.83946228 36.6194458 C-70.662849 35.43712324 -69.48365208 34.25736672 -68.30200195 33.08007812 C-66.49992931 31.28117943 -64.71163196 29.46931708 -62.92382812 27.65625 C-61.77424849 26.50439837 -60.62388424 25.35332916 -59.47265625 24.203125 C-58.94229263 23.66355164 -58.41192902 23.12397827 -57.86549377 22.5680542 C-53.6268109 18.38142024 -49.98391803 16.25074956 -44 16.21875 C-43.27941406 16.20199219 -42.55882812 16.18523437 -41.81640625 16.16796875 C-35.35268415 17.15503961 -31.37157016 21.20220609 -27.0625 25.71875 C-26.51722656 26.27755859 -25.97195313 26.83636719 -25.41015625 27.41210938 C-24.07893231 28.77836552 -22.7572169 30.15387557 -21.4375 31.53125 C-21.41171875 30.2525 -21.3859375 28.97375 -21.359375 27.65625 C-21.30305525 25.94788435 -21.24570882 24.23955233 -21.1875 22.53125 C-21.17332031 21.69207031 -21.15914063 20.85289062 -21.14453125 19.98828125 C-20.9226104 14.26272343 -20.10897698 9.10997419 -16.4375 4.53125 C-11.19453695 -0.08124315 -6.64620902 -0.05626687 0 0 Z " fill="#DFD1CC" transform="translate(386.4375,258.46875)"/>
<path d="M0 0 C17.27376589 13.48179107 30.51796249 33.02918043 33.57739258 55.10668945 C33.86402608 59.16481635 33.4612576 60.80231719 30.91333008 64.02075195 C28.28833008 66.02075195 28.28833008 66.02075195 26.28833008 66.02075195 C26.47266602 66.68461914 26.65700195 67.34848633 26.84692383 68.0324707 C27.39767599 71.76101408 26.91896321 75.14567978 26.35083008 78.83325195 C26.25092773 79.52612305 26.15102539 80.21899414 26.0480957 80.93286133 C25.8023142 82.62992408 25.54634856 84.32550654 25.28833008 86.02075195 C26.24739258 86.48481445 26.24739258 86.48481445 27.22583008 86.95825195 C29.28833008 88.02075195 29.28833008 88.02075195 30.28833008 89.02075195 C32.30689745 106.85143042 14.57574934 128.37752602 5.93505859 142.96118164 C5.36070068 143.93603516 4.78634277 144.91088867 4.19458008 145.9152832 C3.68217773 146.78000244 3.16977539 147.64472168 2.6418457 148.53564453 C1.3116309 150.97797074 0.26454183 153.41917093 -0.71166992 156.02075195 C0.38145508 156.57762695 1.47458008 157.13450195 2.60083008 157.70825195 C5.98952443 159.65247255 7.6856055 161.37010152 9.28833008 165.02075195 C10.49521892 169.59149997 10.46668322 174.1001574 10.49145508 178.79418945 C10.49715515 179.63615875 10.50285522 180.47812805 10.50872803 181.34561157 C10.51814896 183.12240351 10.52470042 184.89921268 10.52856445 186.67602539 C10.53827276 189.37978854 10.56932435 192.08279182 10.60083008 194.78637695 C10.60736089 196.5181433 10.61261105 198.24991505 10.61645508 199.98168945 C10.62880188 200.78295258 10.64114868 201.5842157 10.65386963 202.40975952 C10.63094028 208.24804944 9.7303589 213.18443723 5.78833008 217.76293945 C1.89305278 220.70468533 -0.8552614 222.15501066 -5.72338867 222.1184082 C-6.48071289 222.11518555 -7.23803711 222.11196289 -8.01831055 222.10864258 C-8.80399414 222.10026367 -9.58967773 222.09188477 -10.39916992 222.08325195 C-11.19645508 222.07874023 -11.99374023 222.07422852 -12.81518555 222.06958008 C-14.78071249 222.05781046 -16.74620077 222.03987544 -18.71166992 222.02075195 C-18.67686523 223.20411133 -18.64206055 224.3874707 -18.60620117 225.60668945 C-18.33718249 238.4448589 -19.04987691 248.81430511 -27.71166992 259.02075195 C-35.08239196 266.00996664 -43.61513799 269.00543096 -53.71166992 269.02075195 C-63.11777648 268.22607321 -70.51125979 264.64712836 -77.02416992 257.83325195 C-86.04199506 246.7634666 -85.20237442 235.69630893 -84.71166992 222.02075195 C-86.52151367 222.10776367 -86.52151367 222.10776367 -88.36791992 222.1965332 C-103.74553542 222.71965776 -103.74553542 222.71965776 -109.30151367 218.70043945 C-113.95398325 213.15871669 -114.15598544 207.91569365 -114.11010742 201.02075195 C-114.1129776 200.0668457 -114.11584778 199.11293945 -114.11880493 198.13012695 C-114.12084019 196.11970422 -114.11534811 194.10926145 -114.1027832 192.09887695 C-114.08672208 189.03071597 -114.10265042 185.96387222 -114.12182617 182.89575195 C-114.11984364 180.93741573 -114.11599977 178.97908032 -114.11010742 177.02075195 C-114.11618011 176.1080957 -114.12225281 175.19543945 -114.12850952 174.25512695 C-114.07185715 169.09644245 -113.60113375 165.47645912 -110.71166992 161.02075195 C-108.16436019 158.72817319 -105.5624883 156.92129754 -102.71166992 155.02075195 C-103.09798584 154.35358154 -103.48430176 153.68641113 -103.88232422 152.99902344 C-106.40818968 148.63460537 -108.93400979 144.27023942 -111.44580078 139.89770508 C-112.14117724 138.68740861 -112.83657127 137.47712224 -113.53198242 136.2668457 C-114.05699089 135.35290543 -114.05699089 135.35290543 -114.59260559 134.42050171 C-116.8304255 130.53173789 -119.10142388 126.66431505 -121.39135742 122.8059082 C-134.87011198 99.8861045 -142.96018272 74.9122443 -136.02416992 48.14575195 C-134.13976588 41.80730198 -131.80199635 35.86380613 -128.71166992 30.02075195 C-128.22053711 29.05782227 -127.7294043 28.09489258 -127.22338867 27.1027832 C-116.38594419 7.10912071 -98.06353939 -6.6010292 -76.58666992 -13.41674805 C-50.7936134 -20.8866852 -21.57382539 -15.97690974 0 0 Z " fill="#020201" transform="translate(267.711669921875,132.979248046875)"/>
<path d="M0 0 C9.0220218 6.79091904 15.48463097 15.32608313 20.65234375 25.27734375 C21.17272217 26.25670898 21.17272217 26.25670898 21.70361328 27.25585938 C24.06943794 32.07239221 24.53307502 35.73077472 24.08984375 41.08984375 C22.71484375 43.08984375 22.71484375 43.08984375 21.08984375 44.08984375 C20.42984375 44.08984375 19.76984375 44.08984375 19.08984375 44.08984375 C19.24839844 44.75757813 19.40695312 45.4253125 19.5703125 46.11328125 C20.41149563 50.93269137 20.37650133 55.8076857 20.515625 60.69140625 C20.69591105 64.15327752 20.69591105 64.15327752 23.0703125 65.55078125 C25.08984375 67.08984375 25.08984375 67.08984375 25.98828125 70.796875 C26.3186772 75.13060157 25.32055052 78.78055187 23.71484375 82.77734375 C23.45316406 83.4628833 23.19148437 84.14842285 22.921875 84.85473633 C20.4039413 91.06549575 16.824412 96.11191319 12.65234375 101.3203125 C10.79904187 103.9091537 10.79904187 103.9091537 11.52734375 106.390625 C12.04296875 107.28136719 12.55859375 108.17210937 13.08984375 109.08984375 C13.31551025 109.84378418 13.54117676 110.59772461 13.77368164 111.37451172 C14.85969687 114.31832966 15.75505736 115.96766116 18.08984375 118.08984375 C23.56385213 119.30061552 28.9490475 119.08248057 34.52734375 118.90234375 C36.78620752 118.85577173 39.04367078 118.82242352 41.30299377 118.81144714 C43.35528331 118.79758846 45.40718188 118.74327157 47.45874023 118.68676758 C51.78367589 119.16686364 53.77494421 120.30965334 57.08984375 123.08984375 C58.86914062 125.40478516 58.86914062 125.40478516 60.30859375 127.94140625 C60.84871094 128.87597656 61.38882813 129.81054688 61.9453125 130.7734375 C62.48800781 131.74410156 63.03070313 132.71476563 63.58984375 133.71484375 C64.68330831 135.62386144 65.77705682 137.53271652 66.87109375 139.44140625 C67.40089844 140.37758789 67.93070313 141.31376953 68.4765625 142.27832031 C70.5530529 145.89709505 72.72150108 149.45624856 74.90820312 153.00927734 C77.2994919 157.21972424 77.91675517 161.35456854 77.08984375 166.08984375 C75.96533203 168.51586914 75.96533203 168.51586914 74.47265625 171.125 C73.92762451 172.09002441 73.38259277 173.05504883 72.82104492 174.04931641 C72.24974854 175.05269043 71.67845215 176.05606445 71.08984375 177.08984375 C70.00269045 179.07674939 68.91805063 181.06503238 67.8359375 183.0546875 C66.73396323 185.04606585 65.63109566 187.03695013 64.52734375 189.02734375 C63.97626953 190.04119141 63.42519531 191.05503906 62.85742188 192.09960938 C56.88089742 202.82615919 56.88089742 202.82615919 50.08984375 205.08984375 C47.07704364 205.22338985 44.08824352 205.30221754 41.07421875 205.328125 C40.18502747 205.33619675 39.29583618 205.34426849 38.37969971 205.35258484 C36.49680525 205.36641418 34.61388584 205.37714148 32.73095703 205.38500977 C29.86441954 205.4021964 26.99904354 205.44608919 24.1328125 205.49023438 C22.30078971 205.50036419 20.46875713 205.50887939 18.63671875 205.515625 C17.35979156 205.54188713 17.35979156 205.54188713 16.05706787 205.56867981 C10.22368104 205.54762732 6.81019496 204.59762768 2.08984375 201.08984375 C-0.00244141 198.3918457 -0.00244141 198.3918457 -1.69921875 195.328125 C-2.33085937 194.20857422 -2.9625 193.08902344 -3.61328125 191.93554688 C-4.25433728 190.75804706 -4.89496004 189.58031126 -5.53515625 188.40234375 C-6.17710937 187.25572266 -6.8190625 186.10910156 -7.48046875 184.92773438 C-8.73422678 182.68355888 -9.97582408 180.43253855 -11.20410156 178.17431641 C-12.25688936 176.27092187 -13.34360586 174.38531998 -14.48339844 172.53271484 C-17.44221893 167.68220652 -19.24671738 163.79582801 -17.91015625 158.08984375 C-16.53636122 154.6764579 -14.77688216 151.56799341 -12.91015625 148.40234375 C-12.41555908 147.52819824 -11.92096191 146.65405273 -11.41137695 145.75341797 C-9.15577772 141.79984062 -6.83105936 137.91143745 -4.328125 134.109375 C-3.94849609 133.52696045 -3.56886719 132.9445459 -3.17773438 132.34448242 C-2.16723742 130.8198289 -1.12379495 129.317155 -0.078125 127.81640625 C1.41733263 125.06466313 1.41733263 125.06466313 0.3515625 121.86328125 C-0.377537 120.26061671 -1.12274026 118.66467573 -1.91015625 117.08984375 C-5.19965657 118.3501444 -8.25618025 119.78248072 -11.34765625 121.46484375 C-28.09712931 129.8519873 -46.76543308 130.98476752 -64.68359375 126.05078125 C-76.77966772 121.98377157 -85.83261463 115.98822337 -94.91015625 107.08984375 C-95.61140625 106.4246875 -96.31265625 105.75953125 -97.03515625 105.07421875 C-109.14609695 92.67942788 -115.18162284 74.57014629 -115.34765625 57.46484375 C-115.22840506 47.62324585 -113.11535512 38.38492047 -109.91015625 29.08984375 C-110.46445312 28.90808594 -111.01875 28.72632813 -111.58984375 28.5390625 C-112.67652344 28.16201172 -112.67652344 28.16201172 -113.78515625 27.77734375 C-114.50445312 27.53371094 -115.22375 27.29007813 -115.96484375 27.0390625 C-117.91015625 26.08984375 -117.91015625 26.08984375 -119.91015625 23.08984375 C-120.33807406 19.16726379 -120.54429098 16.98232967 -118.22265625 13.71484375 C-115.56548577 11.84764287 -114.15471901 11.24075365 -110.91015625 11.08984375 C-108.56335328 11.70742348 -106.22863499 12.37322305 -103.91015625 13.08984375 C-100.03868595 13.54524016 -100.03868595 13.54524016 -98.33984375 11.62109375 C-97.82679688 10.95078125 -97.31375 10.28046875 -96.78515625 9.58984375 C-72.099497 -20.00163361 -30.27627286 -19.872614 0 0 Z " fill="#000101" transform="translate(389.91015625,40.91015625)"/>
<path d="M0 0 C3.26713538 3.99316547 4.50323673 9.12755788 6 14 C6.96679688 13.59007812 7.93359375 13.18015625 8.9296875 12.7578125 C28.78014048 4.47164946 48.05852085 3.24738213 68.3125 11.3203125 C84.90584249 19.06669433 97.6849555 32.7767674 104.4375 49.75 C105.82137276 53.85529619 106.63167285 56.81883831 105 61 C104.319375 61.556875 103.63875 62.11375 102.9375 62.6875 C100.12985909 66.03855528 100.76035565 68.84972767 100.92578125 73.09375 C101.02915883 77.14179856 100.52596074 80.98954935 100 85 C100.639375 85.28875 101.27875 85.5775 101.9375 85.875 C104 87 104 87 105 89 C105.43513139 94.50033273 104.30779782 98.52563302 102 103.4375 C101.71382812 104.07365234 101.42765625 104.70980469 101.1328125 105.36523438 C100.43347155 106.91544015 99.71836143 108.45851611 99 110 C99.77085938 110.39832031 100.54171875 110.79664063 101.3359375 111.20703125 C102.33882812 111.73683594 103.34171875 112.26664062 104.375 112.8125 C105.37273437 113.33457031 106.37046875 113.85664063 107.3984375 114.39453125 C110 116 110 116 112 119 C112.60546838 122.97879218 112.29845414 124.54750501 110.0625 127.9375 C106.36626088 130.4268039 104.74990203 130.44574047 100.4765625 129.73828125 C96.77769277 128.63562135 93.56535233 126.83694962 90.26171875 124.86328125 C88.04263364 123.74390245 88.04263364 123.74390245 85.921875 124.68359375 C84.05260807 125.96396561 82.30692659 127.30472897 80.5625 128.75 C68.95337424 137.57552497 54.97893171 141.58723821 40.5625 141.375 C39.04765015 141.3586853 39.04765015 141.3586853 37.50219727 141.34204102 C19.12090321 140.94899309 3.98803119 133.68781176 -9.14453125 120.9140625 C-22.80065479 106.44849378 -27.75125387 90.02371343 -27.45117188 70.58740234 C-26.92961792 55.14989733 -22.44684772 41.72628501 -11.875 30.1875 C-8.80459934 26.85735759 -8.80459934 26.85735759 -7.9921875 22.63671875 C-8.78838092 20.26045077 -9.80374264 18.20032911 -11 16 C-14.23726977 8.18634886 -14.23726977 8.18634886 -13.3125 3.5625 C-11.96494388 0.9315571 -11.00135704 -0.57084698 -8.25 -1.75 C-4.98695314 -2.11256076 -2.95955529 -1.38532375 0 0 Z " fill="#EC4323" transform="translate(27,327)"/>
<path d="M0 0 C0.99829834 -0.0038269 1.99659668 -0.00765381 3.02514648 -0.01159668 C5.12973035 -0.0143111 7.23434822 -0.00698292 9.33886719 0.00976562 C12.55220061 0.03118136 15.76329826 0.00994735 18.9765625 -0.015625 C21.02604658 -0.01298164 23.07552927 -0.0078565 25.125 0 C26.08140381 -0.00809692 27.03780762 -0.01619385 28.02319336 -0.02453613 C33.71269234 0.05507107 37.06810305 0.69965777 41.5625 4.53125 C46.4019181 9.80913887 46.21584675 15.09658899 46.3125 21.90625 C46.34214844 22.92847656 46.37179687 23.95070313 46.40234375 25.00390625 C46.47269494 27.51309853 46.52556206 30.02138054 46.5625 32.53125 C46.9656543 32.11762207 47.36880859 31.70399414 47.78417969 31.27783203 C49.62163675 29.39868654 51.4669431 27.52743964 53.3125 25.65625 C53.94671875 25.00527344 54.5809375 24.35429687 55.234375 23.68359375 C56.1625 22.74580078 56.1625 22.74580078 57.109375 21.7890625 C57.67495117 21.2130127 58.24052734 20.63696289 58.82324219 20.04345703 C62.16481755 17.13810641 65.04773762 16.22462636 69.4375 16.15625 C70.25992188 16.12789063 71.08234375 16.09953125 71.9296875 16.0703125 C78.14627366 17.15867625 82.70154543 22.37333607 86.984375 26.6875 C87.57043518 27.27164673 88.15649536 27.85579346 88.76031494 28.4576416 C89.98964061 29.68561388 91.21647481 30.91608497 92.44091797 32.14892578 C94.3138795 34.03263742 96.19732629 35.90538985 98.08203125 37.77734375 C99.27928795 38.97592144 100.47592442 40.17511905 101.671875 41.375 C102.23332214 41.93239868 102.79476929 42.48979736 103.37322998 43.06408691 C107.63724832 47.37969742 109.84254885 50.31038606 109.9375 56.40625 C109.96585938 57.22867188 109.99421875 58.05109375 110.0234375 58.8984375 C108.91510079 65.2291065 103.74787635 69.60881598 99.3125 73.90625 C98.48105469 74.72416016 98.48105469 74.72416016 97.6328125 75.55859375 C96.28061269 76.88747977 94.9221965 78.21003548 93.5625 79.53125 C94.19752441 79.5405957 94.83254883 79.54994141 95.48681641 79.55957031 C98.387808 79.61353733 101.28723244 79.69713127 104.1875 79.78125 C105.68603516 79.80251953 105.68603516 79.80251953 107.21484375 79.82421875 C113.10370209 80.01921406 117.03882518 80.38338816 121.5625 84.53125 C126.11384613 89.86990686 126.15044944 94.27144617 126.09375 100.96875 C126.0975769 101.96704834 126.10140381 102.96534668 126.10534668 103.99389648 C126.1080611 106.09848035 126.10073292 108.20309822 126.08398438 110.30761719 C126.06256864 113.52095061 126.08380265 116.73204826 126.109375 119.9453125 C126.10673164 121.99479658 126.1016065 124.04427927 126.09375 126.09375 C126.10184692 127.05015381 126.10994385 128.00655762 126.11828613 128.99194336 C126.03906431 134.65389953 125.45396052 138.10787569 121.5625 142.53125 C116.25456411 146.78744968 110.12387791 147.17038186 103.5625 147.28125 C102.69238281 147.31089844 101.82226562 147.34054687 100.92578125 147.37109375 C98.80516784 147.44100408 96.68383437 147.48848116 94.5625 147.53125 C95.47773438 148.41167969 96.39296875 149.29210937 97.3359375 150.19921875 C98.53685502 151.37198976 99.73735398 152.54518949 100.9375 153.71875 C101.54078125 154.29689453 102.1440625 154.87503906 102.765625 155.47070312 C106.63436933 159.27496839 109.12161366 162.23891697 109.86328125 167.77734375 C109.86714844 168.50050781 109.87101563 169.22367188 109.875 169.96875 C109.89175781 170.68933594 109.90851563 171.40992188 109.92578125 172.15234375 C108.96035773 178.47431067 104.94938419 182.6009926 100.609375 186.91796875 C100.03092834 187.50165726 99.45248169 188.08534576 98.85650635 188.6867218 C97.6364643 189.91315909 96.41256948 191.13577446 95.18505859 192.35473633 C93.31980392 194.21147941 91.47397465 196.08611241 89.62890625 197.96289062 C88.43602774 199.15738145 87.24205251 200.35077825 86.046875 201.54296875 C85.50182312 202.09925461 84.95677124 202.65554047 84.39520264 203.22868347 C80.26735766 207.28351398 76.07532223 210.22212164 70.12109375 210.74609375 C69.07115234 210.60880859 69.07115234 210.60880859 68 210.46875 C67.29746094 210.39527344 66.59492188 210.32179688 65.87109375 210.24609375 C60.01373084 208.43239254 55.83735991 204.07770823 51.6875 199.78125 C51.18992187 199.27464844 50.69234375 198.76804687 50.1796875 198.24609375 C48.96926798 197.01239693 47.76520147 195.77247216 46.5625 194.53125 C46.54848145 195.48378662 46.54848145 195.48378662 46.53417969 196.45556641 C46.48021267 199.356558 46.39661873 202.25598244 46.3125 205.15625 C46.29832031 206.15527344 46.28414062 207.15429688 46.26953125 208.18359375 C46.07526401 214.05046436 45.76102687 218.07203028 41.5625 222.53125 C35.84293253 226.54494116 31.57855273 227.11480532 24.68359375 227.02734375 C23.75329849 227.02879898 22.82300323 227.03025421 21.86451721 227.03175354 C19.90712334 227.03010076 17.94971562 227.01860946 15.99243164 226.99780273 C13.00545826 226.96880299 10.02025742 226.97721621 7.03320312 226.99023438 C5.12499142 226.98399737 3.21678529 226.97560674 1.30859375 226.96484375 C0.42094833 226.96777939 -0.46669708 226.97071503 -1.38124084 226.97373962 C-7.17751205 226.88598964 -11.62648819 226.09521327 -16.08203125 222.03125 C-19.29479169 217.90516301 -20.52366551 215.02725207 -20.75390625 209.86328125 C-20.79580078 208.97060547 -20.83769531 208.07792969 -20.88085938 207.15820312 C-20.92017578 206.22943359 -20.95949219 205.30066406 -21 204.34375 C-21.04318359 203.40337891 -21.08636719 202.46300781 -21.13085938 201.49414062 C-21.23688665 199.17332146 -21.33895029 196.85239675 -21.4375 194.53125 C-22.026521 195.15169189 -22.026521 195.15169189 -22.62744141 195.78466797 C-24.42834277 197.6691845 -26.24509473 199.53765021 -28.0625 201.40625 C-28.67996094 202.05722656 -29.29742187 202.70820313 -29.93359375 203.37890625 C-34.18146887 207.71621032 -37.48636957 210.14428362 -43.7109375 210.75390625 C-50.51361007 210.23548696 -53.79575469 207.30074977 -58.4375 202.53125 C-59.78521484 201.2009375 -59.78521484 201.2009375 -61.16015625 199.84375 C-63.60433173 197.42363814 -66.02768656 194.98550672 -68.4375 192.53125 C-71.99206339 193.64551739 -75.16368885 194.83813015 -78.375 196.71875 C-82.37175309 198.77072285 -85.04934562 198.82188364 -89.4375 197.53125 C-92.08514845 195.85440598 -92.39227045 194.67986139 -93.3125 191.65625 C-93.46892617 187.74559564 -93.00312006 186.48560038 -90.4375 183.53125 C-87.86006188 181.97362499 -85.20698181 180.70877315 -82.4375 179.53125 C-82.788125 178.561875 -83.13875 177.5925 -83.5 176.59375 C-84.74265161 172.06172647 -84.88735298 168.03670711 -83.4375 163.53125 C-81.45173491 160.48947111 -79.03600884 158.05565688 -76.4375 155.53125 C-75.32761719 154.40396484 -75.32761719 154.40396484 -74.1953125 153.25390625 C-72.29308845 151.32798902 -70.37405845 149.42253825 -68.4375 147.53125 C-69.01193848 147.51666748 -69.58637695 147.50208496 -70.17822266 147.48706055 C-72.80695696 147.41211275 -75.43448552 147.31561006 -78.0625 147.21875 C-79.41794922 147.18491211 -79.41794922 147.18491211 -80.80078125 147.15039062 C-86.80426703 146.90937477 -91.461242 146.24593663 -96.08203125 142.03125 C-99.15554691 138.08399242 -100.54803912 135.32434811 -100.61450195 130.35449219 C-100.63375481 129.09738434 -100.63375481 129.09738434 -100.65339661 127.81488037 C-100.66078354 126.9117511 -100.66817047 126.00862183 -100.67578125 125.078125 C-100.683853 124.14454163 -100.69192474 123.21095825 -100.70024109 122.24908447 C-100.71407233 120.27203218 -100.72479878 118.29495611 -100.73266602 116.31787109 C-100.74985586 113.30650073 -100.79374787 110.29623499 -100.83789062 107.28515625 C-100.84802006 105.36198722 -100.85653538 103.43880888 -100.86328125 101.515625 C-100.88078934 100.62059265 -100.89829742 99.7255603 -100.91633606 98.80340576 C-100.89585531 92.84812674 -99.88328265 89.42076547 -96.4375 84.53125 C-91.24500738 79.64231849 -85.83089159 79.87731749 -79.0625 79.78125 C-78.04027344 79.75160156 -77.01804687 79.72195313 -75.96484375 79.69140625 C-73.45565147 79.62105506 -70.94736946 79.56818794 -68.4375 79.53125 C-69.79294922 78.24541016 -69.79294922 78.24541016 -71.17578125 76.93359375 C-72.36772049 75.7791959 -73.55909708 74.62421691 -74.75 73.46875 C-75.34490234 72.90736328 -75.93980469 72.34597656 -76.55273438 71.76757812 C-80.96586288 67.45306701 -84.09094086 63.469422 -84.65234375 57.08984375 C-84.56082031 56.38988281 -84.46929687 55.68992187 -84.375 54.96875 C-84.30152344 54.26621094 -84.22804688 53.56367188 -84.15234375 52.83984375 C-82.32525783 46.9392548 -77.80304837 42.58871081 -73.53515625 38.328125 C-72.97557724 37.76426086 -72.41599823 37.20039673 -71.83946228 36.6194458 C-70.662849 35.43712324 -69.48365208 34.25736672 -68.30200195 33.08007812 C-66.49992931 31.28117943 -64.71163196 29.46931708 -62.92382812 27.65625 C-61.77424849 26.50439837 -60.62388424 25.35332916 -59.47265625 24.203125 C-58.94229263 23.66355164 -58.41192902 23.12397827 -57.86549377 22.5680542 C-53.6268109 18.38142024 -49.98391803 16.25074956 -44 16.21875 C-43.27941406 16.20199219 -42.55882812 16.18523437 -41.81640625 16.16796875 C-35.35268415 17.15503961 -31.37157016 21.20220609 -27.0625 25.71875 C-26.51722656 26.27755859 -25.97195313 26.83636719 -25.41015625 27.41210938 C-24.07893231 28.77836552 -22.7572169 30.15387557 -21.4375 31.53125 C-21.41171875 30.2525 -21.3859375 28.97375 -21.359375 27.65625 C-21.30305525 25.94788435 -21.24570882 24.23955233 -21.1875 22.53125 C-21.17332031 21.69207031 -21.15914063 20.85289062 -21.14453125 19.98828125 C-20.9226104 14.26272343 -20.10897698 9.10997419 -16.4375 4.53125 C-11.19453695 -0.08124315 -6.64620902 -0.05626687 0 0 Z M-4.4375 15.53125 C-4.60731903 22.08160892 -4.60731903 22.08160892 -4.73535156 28.6328125 C-4.95874344 34.70907165 -5.90558247 39.48993902 -9.4375 44.53125 C-12.87482459 47.71831969 -17.17199388 48.87660314 -21.8125 48.84375 C-28.86325686 47.67471259 -33.61598463 41.57026977 -38.26171875 36.56640625 C-39.9344736 34.72913144 -39.9344736 34.72913144 -42.4375 32.53125 C-46.63234587 32.63316938 -48.85189574 35.60403637 -51.640625 38.44140625 C-52.3646048 39.17175331 -52.3646048 39.17175331 -53.10321045 39.91685486 C-54.6385085 41.4689045 -56.16302925 43.03107136 -57.6875 44.59375 C-58.7284722 45.64977357 -59.7701314 46.70512038 -60.8125 47.75976562 C-63.36217633 50.34246415 -65.90229196 52.93433882 -68.4375 55.53125 C-66.54883617 59.68274691 -63.70003131 62.42261168 -60.4375 65.53125 C-52.82763501 72.78215909 -52.82763501 72.78215909 -52.1015625 77.8984375 C-52.01234957 83.62590733 -52.43470824 87.09572399 -56.4375 91.53125 C-60.03185817 94.07618839 -62.57222109 94.92048802 -66.95703125 95.04296875 C-67.87846924 95.07608154 -68.79990723 95.10919434 -69.74926758 95.14331055 C-70.90450928 95.16820557 -72.05975098 95.19310059 -73.25 95.21875 C-76.941875 95.321875 -80.63375 95.425 -84.4375 95.53125 C-84.4375 107.08125 -84.4375 118.63125 -84.4375 130.53125 C-77.79705279 130.74062961 -77.79705279 130.74062961 -71.15576172 130.91918945 C-65.89732919 131.12703863 -61.95965893 131.56425507 -57.4375 134.53125 C-53.52836568 138.86299344 -52.34315693 141.33510957 -52.109375 147.16796875 C-53.11929668 154.4418094 -56.98804267 158.62119872 -62.125 163.46875 C-62.73150391 164.05720703 -63.33800781 164.64566406 -63.96289062 165.25195312 C-65.44539791 166.68776727 -66.9402123 168.11085582 -68.4375 169.53125 C-63.61882753 175.34016746 -58.42493592 180.66190552 -53.0625 185.96875 C-52.23105469 186.79568359 -51.39960938 187.62261719 -50.54296875 188.47460938 C-48.5100896 190.49580531 -46.47490037 192.51461335 -44.4375 194.53125 C-40.76234651 191.44419753 -37.18018863 188.39250874 -33.9375 184.84375 C-29.69020145 180.55852915 -25.98223491 178.79911683 -19.875 178.15625 C-14.7187755 178.71874722 -11.64833723 180.22223677 -8.125 184.03125 C-5.76009945 187.53480637 -5.29626309 190.28897721 -5.12109375 194.41796875 C-5.08298584 195.26319092 -5.04487793 196.10841309 -5.00561523 196.97924805 C-4.94096069 198.58280151 -4.94096069 198.58280151 -4.875 200.21875 C-4.6584375 205.3234375 -4.6584375 205.3234375 -4.4375 210.53125 C7.1125 210.53125 18.6625 210.53125 30.5625 210.53125 C30.73257305 203.23256102 30.73257305 203.23256102 30.86035156 195.93310547 C31.06143322 189.89748075 31.43614115 186.0680062 35.5625 181.53125 C40.3212614 178.83761147 44.12513083 177.93808245 49.5625 178.53125 C55.02288046 180.69855389 58.45554505 184.06112056 62.4375 188.21875 C63.03046875 188.82525391 63.6234375 189.43175781 64.234375 190.05664062 C65.68405922 191.54139785 67.12426468 193.03539991 68.5625 194.53125 C72.42578627 192.9465142 74.85126923 190.47168113 77.765625 187.5234375 C78.2482782 187.03795441 78.7309314 186.55247131 79.22821045 186.05227661 C80.76108562 184.50825134 82.28684004 182.95740176 83.8125 181.40625 C84.85370361 180.35500991 85.89536541 179.30422343 86.9375 178.25390625 C89.48449464 175.68491996 92.02515177 173.10976839 94.5625 170.53125 C90.67821598 165.90908247 86.67289606 161.58978578 82.296875 157.42578125 C78.2541167 153.00970518 78.12600583 149.0387893 78.25 143.2265625 C78.69630004 139.37722468 79.90795893 137.32550376 82.5625 134.53125 C88.08851658 130.87380633 93.53311496 130.98949716 99.9375 130.84375 C103.44375 130.740625 106.95 130.6375 110.5625 130.53125 C110.5625 118.98125 110.5625 107.43125 110.5625 95.53125 C103.26381102 95.36117695 103.26381102 95.36117695 95.96435547 95.23339844 C89.89686901 95.03125528 86.18009937 94.57924419 81.5625 90.53125 C78.01828949 86.63261844 77.93093686 82.36834018 78.09375 77.30078125 C78.89056905 72.59290868 81.30514277 69.88731503 84.5625 66.53125 C85.35527344 65.70882812 86.14804687 64.88640625 86.96484375 64.0390625 C89.13538234 61.83766318 91.33243909 59.67210848 93.5625 57.53125 C91.99967018 53.76521131 89.6561525 51.39485849 86.7734375 48.546875 C86.31015045 48.08641785 85.8468634 47.62596069 85.36953735 47.15155029 C83.89684102 45.68999922 82.41732597 44.23557832 80.9375 42.78125 C79.93443678 41.78822389 78.93182743 40.79473911 77.9296875 39.80078125 C75.47919165 37.37227059 73.0225333 34.95010325 70.5625 32.53125 C66.82546884 34.26215791 64.63080476 36.3815089 61.8125 39.40625 C57.15151591 44.12182834 53.12065101 48.17283129 46.27734375 48.7109375 C40.53778584 48.42348051 37.45080353 46.70406355 33.5625 42.53125 C31.86550594 39.02951042 31.28428472 36.10211461 31.1484375 32.23046875 C31.09502197 30.90921997 31.09502197 30.90921997 31.04052734 29.5612793 C31.00652832 28.45824463 30.9725293 27.35520996 30.9375 26.21875 C30.81375 22.691875 30.69 19.165 30.5625 15.53125 C19.0125 15.53125 7.4625 15.53125 -4.4375 15.53125 Z " fill="#010101" transform="translate(386.4375,258.46875)"/>
<path d="M0 0 C18.41785324 -0.65201579 35.72657094 4.90171058 49.88671875 16.97265625 C61.98089936 28.61586742 68.81235463 41.82706725 72.88671875 57.94140625 C73.51011218 60.17702408 74.07108063 62.15874795 75.19140625 64.19140625 C78.22025469 65.87177136 78.22025469 65.87177136 81.19140625 66.19140625 C82.26699411 71.02026924 82.00814828 75.23176166 81.25390625 80.06640625 C81.15400391 80.75476563 81.05410156 81.443125 80.95117188 82.15234375 C80.70604172 83.83323622 80.44986212 85.51251112 80.19140625 87.19140625 C78.94488281 87.36671875 77.69835937 87.54203125 76.4140625 87.72265625 C72.70109449 88.66905108 72.35016501 88.93640192 70.1875 92.41015625 C69.64377538 93.82819824 69.12615268 95.25640606 68.62890625 96.69140625 C64.94135073 106.01628123 60.25080189 114.52853146 55.08129883 123.11279297 C51.72325165 128.70366062 48.64530215 134.23061156 45.98828125 140.19140625 C45.45348145 141.30435059 44.91868164 142.41729492 44.36767578 143.56396484 C42.78824173 146.76503369 42.78824173 146.76503369 41.60498047 149.97900391 C40.16796875 152.85546875 40.16796875 152.85546875 35.19140625 157.19140625 C26.94140625 157.19140625 18.69140625 157.19140625 10.19140625 157.19140625 C10.19140625 140.69140625 10.19140625 124.19140625 10.19140625 107.19140625 C14.15140625 105.54140625 18.11140625 103.89140625 22.19140625 102.19140625 C30.1643145 97.33833166 35.23731848 90.73891717 38.35546875 81.88671875 C40.78166069 71.16158991 40.59658033 60.26119582 34.875 50.66796875 C34.31941406 49.85070312 33.76382813 49.0334375 33.19140625 48.19140625 C32.55912109 47.18207031 32.55912109 47.18207031 31.9140625 46.15234375 C27.33359245 39.83157353 19.07271136 35.49408583 11.64453125 33.51171875 C0.02158734 31.99407321 -10.11669739 33.55584961 -19.7109375 40.4765625 C-27.85674751 47.1358001 -32.98695041 55.32996361 -34.25390625 65.91015625 C-34.60342673 77.37442791 -32.13888352 86.36916681 -24.71875 95.19140625 C-18.77069247 101.41922926 -13.06060112 103.8906033 -4.80859375 107.19140625 C-4.80859375 123.69140625 -4.80859375 140.19140625 -4.80859375 157.19140625 C-12.72859375 157.19140625 -20.64859375 157.19140625 -28.80859375 157.19140625 C-34.43628639 150.66050368 -34.43628639 150.66050368 -35.6875 147.1953125 C-38.24107504 140.84733155 -41.8295989 135.12859334 -45.30859375 129.25390625 C-46.61159563 126.99030539 -47.91114317 124.72471219 -49.20703125 122.45703125 C-51.3113482 118.78464104 -53.43210301 115.12486732 -55.59765625 111.48828125 C-66.16616337 93.57627843 -71.31421565 74.01959073 -66.24609375 53.37890625 C-59.95145305 32.88267267 -47.31260309 17.01325588 -28.3359375 6.91796875 C-18.93317187 2.31550761 -10.32294752 0.51879429 0 0 Z " fill="#FCCF5A" transform="translate(212.80859375,131.80859375)"/>
<path d="M0 0 C0.91394531 0.40089844 1.82789063 0.80179688 2.76953125 1.21484375 C17.06779211 8.11400458 25.25181801 20.26985646 31.48828125 34.36328125 C32.23658203 35.66845703 32.23658203 35.66845703 33 37 C36.59385054 37.97873538 36.59385054 37.97873538 40 38 C41.05619003 42.28297531 41.11702092 46.42985646 41.0625 50.8125 C41.05798828 51.50537109 41.05347656 52.19824219 41.04882812 52.91210938 C41.03713156 54.60811068 41.01919924 56.30406703 41 58 C39.9275 58.309375 38.855 58.61875 37.75 58.9375 C34.39360767 60.37595386 33.25972514 61.79463853 31.8125 65.125 C31.19172554 66.74372834 30.58768914 68.36896847 30 70 C23.26376852 86.68292222 13.31083366 96.5790751 -3.125 103.8125 C-7.7638435 105.64687157 -12.00202378 106.86446166 -17 107 C-18.66675781 107.0928125 -18.66675781 107.0928125 -20.3671875 107.1875 C-35.3607744 107.67808771 -48.21779322 103.39096611 -59.76171875 93.67578125 C-70.28691774 83.65402975 -77.58918287 70.55399353 -78.23828125 55.8125 C-78.64675877 38.11732764 -74.44745632 24.26317752 -62.1875 11.09765625 C-46.22290718 -4.21124793 -20.32153858 -9.92736724 0 0 Z " fill="#05E29B" transform="translate(369,47)"/>
<path d="M0 0 C0.88945312 0.44601562 1.77890625 0.89203125 2.6953125 1.3515625 C12.85194602 6.9113099 19.62638965 14.87681147 25 25 C25.5775 26.051875 26.155 27.10375 26.75 28.1875 C29.65499232 34.72373272 30.31744369 40.36153317 30.25 47.4375 C30.26160156 48.64889648 30.26160156 48.64889648 30.2734375 49.88476562 C30.22559613 64.72755127 24.007036 77.10907041 14.1953125 88.00390625 C4.2083923 97.58363442 -10.33018361 102.93117479 -24 103.375 C-39.785908 102.88169037 -53.15483135 96.31587909 -64 85 C-74.58031463 73.40711619 -78.61972678 60.15144976 -78.30078125 44.640625 C-77.11813414 30.32598722 -70.52442313 17.98842199 -60.3125 8.0625 C-43.59782232 -5.91420396 -19.62268272 -10.27337129 0 0 Z " fill="#736B6B" transform="translate(423,323)"/>
<path d="M0 0 C1.49532509 -0.00574036 1.49532509 -0.00574036 3.02085876 -0.01159668 C5.1194663 -0.01430815 7.21810808 -0.00700079 9.31665039 0.00976562 C12.52111331 0.03120831 15.72334012 0.00992564 18.92773438 -0.015625 C20.97266117 -0.01298203 23.01758659 -0.00785769 25.0625 0 C26.49240013 -0.01214539 26.49240013 -0.01214539 27.95118713 -0.02453613 C33.61793983 0.05503783 37.01219105 0.67776693 41.46484375 4.53125 C45.46484375 9.79440789 45.46484375 9.79440789 45.46484375 12.53125 C46.4084375 11.8815625 46.4084375 11.8815625 47.37109375 11.21875 C53.01408247 7.54740794 56.69950967 5.46303936 63.46484375 6.53125 C66.39191857 8.13642006 66.48995004 9.61441457 67.46484375 12.84375 C67.46484375 16.74026401 66.82725985 18.16362373 64.27734375 21.07421875 C61.54313968 23.27218883 58.53648784 24.83967241 55.46484375 26.53125 C56.04234375 27.58183594 56.61984375 28.63242188 57.21484375 29.71484375 C57.9658135 31.13229915 58.7157591 32.55029748 59.46484375 33.96875 C59.84640625 34.65646484 60.22796875 35.34417969 60.62109375 36.05273438 C63.32289796 41.23923353 64.5852366 45.69887234 63.46484375 51.53125 C62.16975869 54.90925163 60.44440288 57.93149568 58.58984375 61.03125 C58.09532715 61.88912109 57.60081055 62.74699219 57.09130859 63.63085938 C56.06784569 65.40064486 55.03605803 67.1656417 53.99609375 68.92578125 C52.52787254 71.42400458 51.1001396 73.94094836 49.68359375 76.46875 C48.82006839 77.99018429 47.95553378 79.51104635 47.08984375 81.03125 C46.69812988 81.73056641 46.30641602 82.42988281 45.90283203 83.15039062 C43.2028408 87.79074954 40.37872832 91.07430771 35.46484375 93.53125 C34.10179688 93.60860628 32.73502243 93.62536444 31.36987305 93.60961914 C30.10296883 93.60080467 30.10296883 93.60080467 28.81047058 93.59181213 C27.89590591 93.58342819 26.98134125 93.57504425 26.0390625 93.56640625 C24.10871864 93.5701195 22.178378 93.57604861 20.24804688 93.58398438 C17.19910736 93.59454454 14.15250512 93.59375203 11.10375977 93.55541992 C8.16423122 93.52230049 5.22858158 93.5398842 2.2890625 93.56640625 C1.38057053 93.54385269 0.47207855 93.52129913 -0.46394348 93.49806213 C-3.0563204 93.547201 -5.08770996 93.66748528 -7.53515625 94.53125 C-9.78870184 96.95712187 -11.08082809 99.58555646 -12.53515625 102.53125 C-14.53515625 104.53125 -14.53515625 104.53125 -18.41015625 104.96875 C-21.74958842 104.87767458 -22.35817788 104.68168161 -25.03515625 102.40625 C-26.86489876 98.89924352 -27.21223363 97.44325262 -26.53515625 93.53125 C-25.26713934 91.19760324 -23.91775944 88.9800341 -22.43359375 86.77734375 C-21.26442607 84.54739076 -21.26442607 84.54739076 -22.26391602 82.27026367 C-23.67868796 79.22199664 -25.27773353 76.36087503 -26.9765625 73.4609375 C-27.30430161 72.89803009 -27.63204071 72.33512268 -27.9697113 71.75515747 C-29.00916265 69.9702992 -30.0529396 68.18803077 -31.09765625 66.40625 C-32.14571925 64.61720284 -33.19272891 62.82758314 -34.23631287 61.03591919 C-35.180269 59.41541049 -36.12824014 57.79724253 -37.07641602 56.17919922 C-39.38180176 51.99439357 -40.40866484 48.24956785 -39.53515625 43.53125 C-35.96318408 35.13533266 -31.23176879 27.18228386 -26.63110352 19.31005859 C-25.93635523 18.11423153 -25.24927931 16.91391713 -24.56958008 15.70947266 C-23.56576641 13.93145244 -22.53967089 12.16810876 -21.5078125 10.40625 C-20.61461304 8.85550781 -20.61461304 8.85550781 -19.70336914 7.2734375 C-14.20341797 0.31752583 -8.3280908 -0.07088825 0 0 Z " fill="#000101" transform="translate(49.53515625,66.46875)"/>
<path d="M0 0 C3.26713538 3.99316547 4.50323673 9.12755788 6 14 C6.96679688 13.59007812 7.93359375 13.18015625 8.9296875 12.7578125 C28.78014048 4.47164946 48.05852085 3.24738213 68.3125 11.3203125 C84.90584249 19.06669433 97.6849555 32.7767674 104.4375 49.75 C105.82137276 53.85529619 106.63167285 56.81883831 105 61 C103.375 63.4375 103.375 63.4375 101 65 C97.5 65.0625 97.5 65.0625 94 64 C90.88729158 60.68835908 89.26998266 57.56051123 87.75 53.3125 C83.2004371 42.04230618 74.7110389 32.53862744 63.578125 27.4296875 C60.40733028 26.19660067 57.23334337 25.05661852 54 24 C52.515 23.505 52.515 23.505 51 23 C39.87859186 22.09930508 28.01616968 21.55052463 18 27 C17.15695313 27.42410156 16.31390625 27.84820312 15.4453125 28.28515625 C3.77817002 34.65066408 -4.89979792 44.62595637 -8.8125 57.375 C-9.22557424 58.91213689 -9.62290591 60.45364293 -10 62 C-10.18304687 62.62519531 -10.36609375 63.25039063 -10.5546875 63.89453125 C-13.13817381 76.10943582 -10.28809466 89.79567769 -4.125 100.5 C-3.11431885 102.02104999 -2.07445031 103.52330573 -1 105 C-0.54882812 105.63292969 -0.09765625 106.26585937 0.3671875 106.91796875 C7.72111587 116.32850421 20.13295996 123.44461126 32 125 C47.9362813 126.03932269 61.94594095 123.11248178 74.609375 112.89453125 C80.60473288 107.21101246 84.89805361 100.75773898 88.23046875 93.21484375 C91.27018592 86.37793943 91.27018592 86.37793943 95.5 84.1875 C99.48185091 83.97418656 100.9540337 84.49155717 104 87 C105.54174156 90.08348312 105.22262868 92.58056255 105 96 C104.08792139 98.60322437 103.16341967 100.96130274 102 103.4375 C101.71382812 104.07365234 101.42765625 104.70980469 101.1328125 105.36523438 C100.43347155 106.91544015 99.71836143 108.45851611 99 110 C99.77085938 110.39832031 100.54171875 110.79664063 101.3359375 111.20703125 C102.33882812 111.73683594 103.34171875 112.26664062 104.375 112.8125 C105.37273437 113.33457031 106.37046875 113.85664063 107.3984375 114.39453125 C110 116 110 116 112 119 C112.60546838 122.97879218 112.29845414 124.54750501 110.0625 127.9375 C106.36626088 130.4268039 104.74990203 130.44574047 100.4765625 129.73828125 C96.77769277 128.63562135 93.56535233 126.83694962 90.26171875 124.86328125 C88.04263364 123.74390245 88.04263364 123.74390245 85.921875 124.68359375 C84.05260807 125.96396561 82.30692659 127.30472897 80.5625 128.75 C68.95337424 137.57552497 54.97893171 141.58723821 40.5625 141.375 C39.04765015 141.3586853 39.04765015 141.3586853 37.50219727 141.34204102 C19.12090321 140.94899309 3.98803119 133.68781176 -9.14453125 120.9140625 C-22.80065479 106.44849378 -27.75125387 90.02371343 -27.45117188 70.58740234 C-26.92961792 55.14989733 -22.44684772 41.72628501 -11.875 30.1875 C-8.80459934 26.85735759 -8.80459934 26.85735759 -7.9921875 22.63671875 C-8.78838092 20.26045077 -9.80374264 18.20032911 -11 16 C-14.23726977 8.18634886 -14.23726977 8.18634886 -13.3125 3.5625 C-11.96494388 0.9315571 -11.00135704 -0.57084698 -8.25 -1.75 C-4.98695314 -2.11256076 -2.95955529 -1.38532375 0 0 Z " fill="#010000" transform="translate(27,327)"/>
<path d="M0 0 C2.92433886 1.44330025 4.85567401 3.6404593 7.10400391 5.97753906 C7.99603516 6.89664062 8.88806641 7.81574219 9.80712891 8.76269531 C10.48259766 9.47296875 11.15806641 10.18324219 11.85400391 10.91503906 C11.32291016 11.85863281 10.79181641 12.80222656 10.24462891 13.77441406 C-3.84138387 39.18519474 -6.85709137 66.63816032 0.88525391 94.64550781 C5.07416077 108.30191027 11.41978093 120.15965271 20.85400391 130.91503906 C21.45599609 131.66011719 22.05798828 132.40519531 22.67822266 133.17285156 C35.09737027 148.11748621 53.13552106 158.25983376 71.85400391 162.91503906 C72.18400391 161.26503906 72.51400391 159.61503906 72.85400391 157.91503906 C73.18400391 157.91503906 73.51400391 157.91503906 73.85400391 157.91503906 C73.85400391 164.51503906 73.85400391 171.11503906 73.85400391 177.91503906 C62.30400391 177.91503906 50.75400391 177.91503906 38.85400391 177.91503906 C38.54150391 167.79003906 38.54150391 167.79003906 38.46606445 164.63330078 C38.20483036 158.024269 37.41199193 153.28117798 32.35400391 148.60253906 C28.15117944 145.76563255 24.84258786 145.5824668 19.85400391 145.91503906 C13.7924358 147.93077946 10.25843533 151.00138785 5.91650391 155.60253906 C5.03381836 156.51229492 5.03381836 156.51229492 4.13330078 157.44042969 C2.69748664 158.92293697 1.27439809 160.41775136 -0.14599609 161.91503906 C-5.95491355 157.0963666 -11.27665161 151.90247498 -16.58349609 146.54003906 C-17.82389648 145.29287109 -17.82389648 145.29287109 -19.08935547 144.02050781 C-21.1105514 141.98762866 -23.12935944 139.95243944 -25.14599609 137.91503906 C-22.05894363 134.23988558 -19.00725483 130.6577277 -15.45849609 127.41503906 C-11.22234637 123.20700537 -9.07358005 118.85360658 -8.70849609 112.85253906 C-9.21009963 108.33810722 -10.20144736 106.33708218 -13.14599609 102.91503906 C-15.65964366 101.08884819 -15.65964366 101.08884819 -18.14599609 99.91503906 C-18.80599609 99.58503906 -19.46599609 99.25503906 -20.14599609 98.91503906 C-21.73861675 98.76328357 -23.33664466 98.66603581 -24.93505859 98.59863281 C-25.78277832 98.5605249 -26.63049805 98.52241699 -27.50390625 98.4831543 C-28.5820459 98.44005127 -29.66018555 98.39694824 -30.77099609 98.35253906 C-34.19474609 98.20816406 -37.61849609 98.06378906 -41.14599609 97.91503906 C-41.14599609 86.36503906 -41.14599609 74.81503906 -41.14599609 62.91503906 C-30.02099609 62.66503906 -30.02099609 62.66503906 -26.54785156 62.6171875 C-20.48204886 62.41510044 -16.7595055 61.96703581 -12.14599609 57.91503906 C-8.7746155 54.09414106 -8.76593714 50.39389255 -8.64990234 45.51269531 C-9.85421365 39.20665581 -14.95817389 34.83984287 -19.39599609 30.54003906 C-19.95029297 29.99476563 -20.50458984 29.44949219 -21.07568359 28.88769531 C-22.42788341 27.55880929 -23.78629959 26.23625359 -25.14599609 24.91503906 C-22.85420954 19.46790564 -18.34738172 15.70669606 -14.24267578 11.58618164 C-12.77034194 10.10187959 -11.3176898 8.59993648 -9.86474609 7.09667969 C-8.93919922 6.16404297 -8.01365234 5.23140625 -7.06005859 4.27050781 C-5.790896 2.98116333 -5.790896 2.98116333 -4.49609375 1.66577148 C-2.14599609 -0.08496094 -2.14599609 -0.08496094 0 0 Z " fill="#CBBDB8" transform="translate(343.14599609375,291.0849609375)"/>
<path d="M0 0 C1.02802734 0.00322266 2.05605469 0.00644531 3.11523438 0.00976562 C4.72301758 0.02233398 4.72301758 0.02233398 6.36328125 0.03515625 C7.44673828 0.03966797 8.53019531 0.04417969 9.64648438 0.04882812 C12.3229721 0.06061882 14.99934902 0.07707562 17.67578125 0.09765625 C16.97066406 0.65582031 16.26554687 1.21398438 15.5390625 1.7890625 C0.61810771 13.81946398 -8.82730964 26.56447566 -12.85546875 45.609375 C-11.96663822 49.77250037 -8.85883811 52.08057874 -5.82421875 54.91015625 C-4.89416016 55.80637695 -4.89416016 55.80637695 -3.9453125 56.72070312 C-2.41596387 58.19123066 -0.87150409 59.64601355 0.67578125 61.09765625 C4.60269285 59.50182744 7.04613066 56.94117729 9.9921875 53.94140625 C10.48992172 53.43847046 10.98765594 52.93553467 11.50047302 52.4173584 C13.08458959 50.8154878 14.66183869 49.20707677 16.23828125 47.59765625 C17.81914846 45.98912206 19.40147088 44.38209013 20.98680115 42.7779541 C22.4236209 41.32332283 23.85561133 39.86392609 25.28735352 38.40429688 C28.2982648 35.49648845 29.90012854 34.18227291 34.11328125 33.72265625 C37.67578125 34.09765625 37.67578125 34.09765625 40.11328125 35.72265625 C42.13755186 38.79954758 42.05453016 40.46059025 41.67578125 44.09765625 C40.17944336 46.39428711 40.17944336 46.39428711 38.015625 48.625 C37.19304199 49.48464355 36.37045898 50.34428711 35.52294922 51.22998047 C34.57479003 52.18676195 33.62568467 53.14260644 32.67578125 54.09765625 C31.62593042 55.17151554 30.57663513 56.24591817 29.52783203 57.32080078 C26.70369112 60.20167538 23.85612606 63.05809651 20.99829102 65.90551758 C19.21315703 67.6852038 17.43354413 69.4702898 15.65429688 71.25585938 C14.51724829 72.39224857 13.3798903 73.52832828 12.2421875 74.6640625 C11.7120253 75.19624893 11.1818631 75.72843536 10.63563538 76.27674866 C7.78977598 79.10435059 6.03435053 80.83888115 2.05078125 81.59765625 C-3.0305632 80.84486448 -5.77100424 77.63283414 -9.32421875 74.09765625 C-9.32421875 82.00729827 -2.31528648 92.03172039 2.56640625 97.98828125 C6.82507564 102.24695064 11.73860703 105.66838746 16.67578125 109.09765625 C10.38656236 113.01861566 1.25554555 111.77392394 -5.77734375 110.4453125 C-20.34968179 106.3446425 -32.53102783 98.02505695 -40.69921875 85.16015625 C-48.26992008 71.56291931 -50.40128559 56.59867208 -47.640625 41.3125 C-43.33555468 26.32513903 -33.86901391 13.88736677 -20.32421875 6.09765625 C-7.3008616 -0.04033625 -7.3008616 -0.04033625 0 0 Z " fill="#0DD08E" transform="translate(339.32421875,42.90234375)"/>
<path d="M0 0 C0.75697174 -0.0066568 1.51394348 -0.0133136 2.29385376 -0.02017212 C3.89249245 -0.03027849 5.49117315 -0.03498976 7.08984375 -0.03466797 C9.52415202 -0.03903575 11.95663793 -0.07535794 14.390625 -0.11328125 C15.9479105 -0.11915115 17.50520457 -0.12311938 19.0625 -0.125 C20.14559952 -0.14655655 20.14559952 -0.14655655 21.25057983 -0.16854858 C26.36653861 -0.12275059 29.24893152 1.08461391 33.1640625 4.3359375 C34.66796875 6.17602539 34.66796875 6.17602539 35.7265625 8.05859375 C36.1282666 8.75670166 36.5299707 9.45480957 36.94384766 10.17407227 C37.34651855 10.90811279 37.74918945 11.64215332 38.1640625 12.3984375 C38.59122559 13.15632568 39.01838867 13.91421387 39.45849609 14.69506836 C40.3096374 16.20894143 41.15532095 17.72589789 41.99511719 19.24609375 C43.00796575 21.0568673 44.07004337 22.83993737 45.140625 24.6171875 C45.68460937 25.535 46.22859375 26.4528125 46.7890625 27.3984375 C47.48902344 28.56052734 47.48902344 28.56052734 48.203125 29.74609375 C49.90872888 34.3429042 50.0170591 38.19329653 48.22021484 42.70678711 C46.91214369 45.28745889 45.50543912 47.77945757 44.0390625 50.2734375 C43.5646875 51.11583984 43.0903125 51.95824219 42.6015625 52.82617188 C41.16103421 55.35488301 39.67652103 57.84964387 38.1640625 60.3359375 C37.65907227 61.17012207 37.15408203 62.00430664 36.63378906 62.86376953 C36.13073242 63.66024902 35.62767578 64.45672852 35.109375 65.27734375 C34.66352051 65.98705322 34.21766602 66.6967627 33.75830078 67.42797852 C30.77095308 71.00318866 28.20401545 72.22359799 23.57055664 72.72412109 C22.19691367 72.74377402 20.82295047 72.74630819 19.44921875 72.734375 C18.34917763 72.73868027 18.34917763 72.73868027 17.22691345 72.74307251 C15.68129704 72.74510699 14.13565453 72.73962029 12.59008789 72.72705078 C10.23720062 72.71101003 7.88603684 72.72690702 5.53320312 72.74609375 C4.02603791 72.74411076 2.51887376 72.74026592 1.01171875 72.734375 C0.31466324 72.74044769 -0.38239227 72.74652039 -1.10057068 72.7527771 C-5.73231363 72.68682457 -8.90437861 71.77622799 -12.8359375 69.3359375 C-14.85546875 66.76171875 -14.85546875 66.76171875 -16.6484375 63.6484375 C-17.13666992 62.80599487 -17.13666992 62.80599487 -17.63476562 61.9465332 C-18.33676578 60.73014211 -19.03201891 59.50983734 -19.72119141 58.28613281 C-20.89372808 56.23483563 -22.11607799 54.21946323 -23.34765625 52.203125 C-24.17826528 50.81060016 -25.00771341 49.41738214 -25.8359375 48.0234375 C-26.23401611 47.37866455 -26.63209473 46.7338916 -27.04223633 46.06958008 C-29.6408435 41.58410078 -31.09830218 37.52779713 -29.8359375 32.3359375 C-27.9045135 27.91373776 -25.53326711 23.80258528 -23.0859375 19.6484375 C-22.45171875 18.53404297 -21.8175 17.41964844 -21.1640625 16.27148438 C-11.82563974 0.0362473 -11.82563974 0.0362473 0 0 Z " fill="#000201" transform="translate(69.8359375,224.6640625)"/>
<path d="M0 0 C0.88945312 0.44601562 1.77890625 0.89203125 2.6953125 1.3515625 C12.85194602 6.9113099 19.62638965 14.87681147 25 25 C25.5775 26.051875 26.155 27.10375 26.75 28.1875 C29.65499232 34.72373272 30.31744369 40.36153317 30.25 47.4375 C30.26160156 48.64889648 30.26160156 48.64889648 30.2734375 49.88476562 C30.22559613 64.72755127 24.007036 77.10907041 14.1953125 88.00390625 C4.2083923 97.58363442 -10.33018361 102.93117479 -24 103.375 C-39.785908 102.88169037 -53.15483135 96.31587909 -64 85 C-74.58031463 73.40711619 -78.61972678 60.15144976 -78.30078125 44.640625 C-77.11813414 30.32598722 -70.52442313 17.98842199 -60.3125 8.0625 C-43.59782232 -5.91420396 -19.62268272 -10.27337129 0 0 Z M-44 15 C-44.87140625 15.55816406 -45.7428125 16.11632812 -46.640625 16.69140625 C-54.52519537 22.34516255 -58.74178769 29.59992709 -62.4375 38.4375 C-64.41825319 50.98227022 -62.56004496 61.92450632 -55.125 72.4375 C-48.02871558 81.03631404 -38.854978 87.05889123 -27.57421875 88.2578125 C-16.18753253 88.75216935 -6.29285077 85.21165663 2.625 78.19921875 C6.24604274 74.84618082 8.719065 71.35651251 11 67 C11.41121094 66.27554688 11.82242188 65.55109375 12.24609375 64.8046875 C16.47434686 56.17261368 16.38325571 45.80568381 14.1875 36.58984375 C10.41083603 26.42694592 2.89887552 17.62645858 -7 13 C-12.65811983 10.44326677 -17.61140015 9.44658829 -23.8125 9.5 C-24.60076172 9.50644531 -25.38902344 9.51289063 -26.20117188 9.51953125 C-33.02706316 9.73231539 -38.23251822 11.24378973 -44 15 Z " fill="#030303" transform="translate(423,323)"/>
<path d="M0 0 C14.39307383 5.06376774 25.20671033 14.21845203 32.25390625 27.79296875 C33.40748931 30.43750349 34.46797198 33.07709129 35.4296875 35.796875 C36.17931487 37.97418205 36.17931487 37.97418205 38.25390625 39.79296875 C40.24211938 40.19061138 42.24334964 40.53072224 44.25390625 40.79296875 C44.99855571 47.66665608 45.43615862 53.96217727 44.25390625 60.79296875 C43.01511719 61.13199219 41.77632813 61.47101563 40.5 61.8203125 C37.19392507 63.06490968 35.65580205 64.0765377 34.0390625 67.234375 C33.44338885 68.59890644 32.86991326 69.97329542 32.31640625 71.35546875 C26.08748598 85.20547297 15.4603428 95.23189655 1.25390625 100.79296875 C-2.57988057 101.60008177 -4.51081343 101.51841519 -7.89453125 99.53125 C-15.90790417 93.66480464 -24.3942457 85.37229405 -27.74609375 75.79296875 C-27.57677946 71.61090568 -24.7502745 69.33014137 -21.93359375 66.48046875 C-21.06089844 65.57683594 -20.18820313 64.67320312 -19.2890625 63.7421875 C-16.74609375 61.79296875 -16.74609375 61.79296875 -14.77392578 61.98510742 C-12.44328894 62.91360216 -11.40539937 63.89282813 -9.7578125 65.76953125 C-9.21576172 66.35734375 -8.67371094 66.94515625 -8.11523438 67.55078125 C-6.99546518 68.79410222 -5.88598906 70.04677224 -4.78710938 71.30859375 C-3.17488448 73.03692929 -1.72527831 74.49817511 0.25390625 75.79296875 C4.00567616 76.01206508 4.00567616 76.01206508 7.25390625 74.79296875 C9.54459896 72.88271378 9.54459896 72.88271378 9.81640625 69.66796875 C9.01317484 64.13459683 6.13270411 61.62683844 2.25390625 57.79296875 C1.58617188 57.11234375 0.9184375 56.43171875 0.23046875 55.73046875 C-1.41251767 54.06736413 -3.07030689 52.42291342 -4.74609375 50.79296875 C-1.06587074 46.39465344 2.70819825 42.25538463 6.8359375 38.2734375 C9.15936219 35.84760291 9.25577093 34.75816148 9.44140625 31.29296875 C9.64175901 27.73530964 9.64175901 27.73530964 7.25390625 25.79296875 C3.23360224 25.17446044 0.72449276 24.8047814 -2.7109375 27.11328125 C-4.66595043 28.92603752 -6.46310655 30.81102161 -8.24609375 32.79296875 C-8.87773438 33.46070313 -9.509375 34.1284375 -10.16015625 34.81640625 C-11.70852549 36.45861605 -13.23514088 38.1163971 -14.74609375 39.79296875 C-19.2806134 35.9546788 -23.59511291 32.04519303 -27.74609375 27.79296875 C-25.05438694 17.29531219 -16.60699767 7.02081074 -7.80078125 0.83984375 C-5.12925028 -0.52131652 -2.92102793 -0.66880679 0 0 Z " fill="#FA672F" transform="translate(82.74609375,350.20703125)"/>
<path d="M0 0 C0 0.33 0 0.66 0 1 C-1.19882813 0.9690625 -1.19882813 0.9690625 -2.421875 0.9375 C-12.04960844 1.11830251 -17.56887712 4.0679509 -25 10 C-25.72960937 10.54914063 -26.45921875 11.09828125 -27.2109375 11.6640625 C-40.73224344 22.51317359 -50.88294091 40.81653705 -53 58 C-53.30109266 62.23092004 -53.40526034 66.44657569 -53.4375 70.6875 C-53.4528479 72.23691284 -53.4528479 72.23691284 -53.46850586 73.81762695 C-53.26979853 91.28580759 -46.02170582 105.76370272 -37.375 120.5625 C-36.66659283 121.78856258 -35.95891872 123.01504898 -35.25195312 124.24194336 C-32.03115609 129.82314027 -28.77739331 135.38473492 -25.5078125 140.9375 C-24.99428223 141.8133374 -24.48075195 142.6891748 -23.95166016 143.59155273 C-23.00727324 145.19904348 -22.05673823 146.80294337 -21.09912109 148.40258789 C-18 153.66723642 -18 153.66723642 -18 157 C-38.93815633 159.41909023 -38.93815633 159.41909023 -45.0703125 154.57421875 C-46.95542887 151.31038002 -48.42965459 148.12070953 -49.83251953 144.63330078 C-52.24302964 139.19629492 -55.47351952 134.17306399 -58.5 129.0625 C-59.80300188 126.79889914 -61.10254942 124.53330594 -62.3984375 122.265625 C-64.50275445 118.59323479 -66.62350926 114.93346107 -68.7890625 111.296875 C-79.35756962 93.38487218 -84.5056219 73.82818448 -79.4375 53.1875 C-73.1428593 32.69126642 -60.50400934 16.82184963 -41.52734375 6.7265625 C-27.73388849 -0.02505126 -14.98376448 -0.1548265 0 0 Z " fill="#FCC143" transform="translate(226,132)"/>
<path d="M0 0 C2.71677227 -0.4785746 5.1981847 -0.75286655 7.9375 -0.890625 C8.7299411 -0.93340576 9.5223822 -0.97618652 10.33883667 -1.02026367 C33.42443702 -2.03706841 33.42443702 -2.03706841 39.61230469 1.48828125 C43.26712395 5.28253746 44.8465591 9.79149738 46.27880859 14.78515625 C47.38382331 18.17875595 49.21638003 20.78032773 51.1875 23.75 C54.0684854 28.30234713 54.0684854 28.30234713 53.77661133 31.27563477 C52.83755949 34.56984396 51.39120078 37.15111225 49.65625 40.10546875 C49.32709595 40.67074783 48.99794189 41.23602692 48.65881348 41.81843567 C47.61250494 43.6121008 46.55654656 45.3998502 45.5 47.1875 C44.78969844 48.40000063 44.08005608 49.6128877 43.37109375 50.82617188 C42.07641128 53.04182135 40.77723026 55.25455757 39.47460938 57.46557617 C38.60865754 58.95389505 37.77006047 60.45987905 37 62 C32.02015529 62.32329201 27.04648465 62.55799957 22.05859375 62.71411133 C20.36610545 62.77919461 18.6743403 62.86770958 16.984375 62.98071289 C5.82237968 63.70795374 5.82237968 63.70795374 1 62 C-2.95679869 58.20573719 -4.84944197 53.98409702 -7 49 C-7.96978479 47.36500489 -8.96755247 45.74597557 -10.00390625 44.15234375 C-10.85777455 42.74800563 -11.71067457 41.3430782 -12.5625 39.9375 C-13.23635742 38.85952148 -13.23635742 38.85952148 -13.92382812 37.75976562 C-14.34212891 37.06431641 -14.76042969 36.36886719 -15.19140625 35.65234375 C-15.56467041 35.04382568 -15.93793457 34.43530762 -16.32250977 33.80834961 C-17.22822903 31.39081353 -16.91150999 30.40989769 -16 28 C-15.01708083 26.05751017 -13.98023316 24.14196617 -12.91015625 22.24609375 C-12.29076172 21.14458984 -11.67136719 20.04308594 -11.03320312 18.90820312 C-10.38287109 17.76287109 -9.73253906 16.61753906 -9.0625 15.4375 C-8.41603516 14.28830078 -7.76957031 13.13910156 -7.10351562 11.95507812 C-2.33508929 3.50263393 -2.33508929 3.50263393 0 0 Z " fill="#98E5FB" transform="translate(43,83)"/>
<path d="M0 0 C30.69 0 61.38 0 93 0 C93 11.55 93 23.1 93 35 C62.31 35 31.62 35 0 35 C0 23.45 0 11.9 0 0 Z " fill="#E1D3CE" transform="translate(169,304)"/>
<path d="M0 0 C6.56196594 0.83716002 10.88636688 2.63458275 15.17829895 7.9135437 C18.95704572 13.78026987 21.77509855 20.00253853 23.9556427 26.6244812 C24.21708069 27.29116821 24.47851868 27.95785522 24.74787903 28.64474487 C25.06502188 31.66673238 23.78892451 33.34625871 22.27986145 35.94088745 C21.69913879 36.95215698 21.11841614 37.96342651 20.52009583 39.00534058 C19.90070129 40.05528198 19.28130676 41.10522339 18.6431427 42.1869812 C18.03534973 43.24078979 17.42755676 44.29459839 16.80134583 45.38034058 C14.59695443 49.18880951 12.39696779 52.96249356 9.9556427 56.6244812 C7.40168783 56.89159524 5.09289896 56.9729715 2.5415802 56.91744995 C1.81194061 56.91320511 1.08230103 56.90896027 0.33055115 56.90458679 C-2.00312489 56.88777473 -4.3359417 56.85011988 -6.6693573 56.8119812 C-8.25007401 56.79693754 -9.83080423 56.78324858 -11.4115448 56.77096558 C-15.28948074 56.73786321 -19.16677328 56.68606524 -23.0443573 56.6244812 C-25.24365397 53.04690779 -27.41523258 49.45435186 -29.56291199 45.84567261 C-30.29676509 44.62118073 -31.03792745 43.40103797 -31.7865448 42.18551636 C-32.86351629 40.43400554 -33.91294673 38.66836515 -34.9584198 36.8979187 C-35.5973114 35.84008179 -36.236203 34.78224487 -36.89445496 33.69235229 C-38.35639472 29.79198393 -37.70959456 28.36761932 -36.0443573 24.6244812 C-35.74843689 23.73325562 -35.45251648 22.84203003 -35.14762878 21.92379761 C-28.59103477 3.91475861 -18.46105518 -1.46609766 0 0 Z " fill="#97E4FA" transform="translate(426.0443572998047,173.37551879882813)"/>
<path d="M0 0 C5.58455335 3.9519923 9.24852136 8.96656025 11.19140625 15.55078125 C12.09781959 23.45112465 11.47666482 30.71504707 7.19140625 37.55078125 C1.87553579 43.68126447 -3.89286352 47.70106727 -11.95703125 48.859375 C-19.51693863 49.29705385 -25.72993581 46.44533998 -32.05859375 42.55078125 C-37.63037375 37.36106617 -41.12138396 29.46280102 -41.49609375 21.92578125 C-40.98889285 14.10361621 -37.6612691 7.94323912 -31.99609375 2.61328125 C-22.46749945 -4.9102271 -10.70190341 -6.09819536 0 0 Z " fill="#020202" transform="translate(413.80859375,349.44921875)"/>
<path d="M0 0 C3.00067451 2.00832546 5.46760288 4.43792635 8 7 C9.0209375 8.00160156 9.0209375 8.00160156 10.0625 9.0234375 C11.72560462 10.66642392 13.37005533 12.32421314 15 14 C18.94608843 10.71159297 22.50374897 7.44632293 25.9375 3.625 C28.67245218 0.84215955 30.35581375 -0.54981312 34.3125 -0.6875 C38 0 38 0 40 1.0625 C41.7025482 4.36118714 41.60203783 6.32756921 41 10 C38.99864865 13.00497887 36.56168549 15.46798654 34 18 C33.33226562 18.680625 32.66453125 19.36125 31.9765625 20.0625 C30.33357608 21.72560462 28.67578686 23.37005533 27 25 C30.68022301 29.39831531 34.454292 33.53758412 38.58203125 37.51953125 C40.8164382 39.85242446 41.00884108 41.07956976 41.375 44.375 C41 48 41 48 38.8125 50.4375 C35.59219402 52.22655888 34.5985314 52.70140866 31 52 C28.38901846 49.88748911 26.18649136 47.42498461 23.9375 44.9375 C22.72953466 43.60224642 21.50994104 42.2773933 20.27734375 40.96484375 C19.47671509 40.07720337 19.47671509 40.07720337 18.65991211 39.17163086 C17.0603759 37.77982979 17.0603759 37.77982979 14.96826172 38.14672852 C11.11423869 39.8175063 8.43810067 43.58839872 5.68554688 46.6953125 C2.87078605 49.69482597 1.3947791 50.89328041 -2.69921875 52 C-6 52 -6 52 -9 50 C-11 47 -11 47 -11.0390625 43.73046875 C-9.66078575 38.78214431 -7.14474454 36.63665758 -3.375 33.3125 C-2.14279833 32.21650244 -0.92081017 31.10887918 0.2890625 29.98828125 C0.83256348 29.50915283 1.37606445 29.03002441 1.93603516 28.53637695 C3.21289165 27.03615911 3.21289165 27.03615911 2.85327148 25.00219727 C1.8870715 22.73501385 0.88405857 21.61961717 -0.94140625 19.9765625 C-1.52470703 19.43 -2.10800781 18.8834375 -2.70898438 18.3203125 C-3.94291319 17.19170321 -5.18251204 16.06926146 -6.42773438 14.953125 C-10.8856255 10.74700846 -10.8856255 10.74700846 -11.5 6.734375 C-11 4 -11 4 -9.4375 1.625 C-5.91751657 -0.72165562 -4.16889057 -0.7642966 0 0 Z " fill="#030100" transform="translate(52,375)"/>
<path d="M0 0 C5.50863019 3.06132474 8.89792531 7.42085061 11.6875 13 C12.32143562 20.91899912 12.81001793 28.51752155 7.6875 35 C2.38001062 40.87183003 -3.41896167 43.49760796 -11.1875 44.5 C-17.29279514 44.21156086 -22.96281391 41.39803355 -27.2109375 37.0625 C-32.64639444 30.06269204 -34.27976022 23.81694895 -33.3125 15 C-31.48854112 8.36217496 -26.87733184 3.83424168 -21.3125 0 C-14.34298639 -3.35029674 -7.01991573 -3.14941839 0 0 Z " fill="#FDFDFD" transform="translate(226.3125,181)"/>
<path d="M0 0 C5.80198382 1.19799139 8.52051176 3.40616825 11.75830078 8.30126953 C17.38665454 18.58275765 17.38665454 18.58275765 16.41796875 23.890625 C15.94617188 24.839375 15.474375 25.788125 14.98828125 26.765625 C14.55877445 28.0543143 14.13046738 29.34340384 13.703125 30.6328125 C11.88078951 35.07957158 9.92757963 38.87286915 5.98828125 41.765625 C-1.90400564 44.66675928 -11.15948175 44.85086658 -19.01171875 41.765625 C-24.6866901 37.15294541 -28.50417235 29.88756221 -30.01171875 22.765625 C-29.44140625 19.640625 -29.44140625 19.640625 -28.01171875 16.765625 C-27.58221195 15.4769357 -27.15390488 14.18784616 -26.7265625 12.8984375 C-21.64092928 0.48876549 -12.82813774 -1.25282989 0 0 Z " fill="#05E19A" transform="translate(86.01171875,239.234375)"/>
<path d="M0 0 C2.4375 1.625 2.4375 1.625 4 4 C4.39556132 7.4724781 4.43401298 9.33386195 2.50366211 12.29663086 C1.78960205 13.03276611 1.07554199 13.76890137 0.33984375 14.52734375 C-0.48273926 15.3869873 -1.30532227 16.24663086 -2.15283203 17.13232422 C-3.10099122 18.0891057 -4.05009658 19.04495019 -5 20 C-6.04985083 21.07385929 -7.09914612 22.14826192 -8.14794922 23.22314453 C-10.97209013 26.10401913 -13.81965519 28.96044026 -16.67749023 31.80786133 C-18.46262422 33.58754755 -20.24223712 35.37263355 -22.02148438 37.15820312 C-23.15853296 38.29459232 -24.29589095 39.43067203 -25.43359375 40.56640625 C-25.96375595 41.09859268 -26.49391815 41.63077911 -27.04014587 42.17909241 C-29.88600527 45.00669434 -31.64143072 46.7412249 -35.625 47.5 C-43.62076582 46.3154421 -50.42376524 36.73007731 -55.9375 31.1875 C-56.70384766 30.42501953 -57.47019531 29.66253906 -58.25976562 28.87695312 C-58.98744141 28.14798828 -59.71511719 27.41902344 -60.46484375 26.66796875 C-61.120896 26.01078857 -61.77694824 25.3536084 -62.45288086 24.67651367 C-64.73401104 22.20459937 -64.99364712 21.05717594 -65.375 17.625 C-65 14 -65 14 -62.875 11.5 C-60 10 -60 10 -57.1875 9.8125 C-49.06558903 12.83830997 -42.94396109 20.93220639 -37 27 C-33.0730884 25.40417119 -30.62965059 22.84352104 -27.68359375 19.84375 C-27.18585953 19.34081421 -26.68812531 18.83787842 -26.17530823 18.31970215 C-24.59119166 16.71783155 -23.01394256 15.10942052 -21.4375 13.5 C-19.85663279 11.89146581 -18.27431037 10.28443388 -16.6889801 8.68029785 C-15.25216035 7.22566658 -13.82016992 5.76626984 -12.38842773 4.30664062 C-8.21017761 0.27146663 -5.78232061 -0.60866533 0 0 Z " fill="#000705" transform="translate(377,77)"/>
<path d="M0 0 C11.03568687 3.73821465 18.30233037 9.61694963 23.60546875 20.046875 C27.94103119 29.2732354 28.79250783 39.25807345 26.296875 49.20703125 C21.85575429 60.49184618 15.10934978 68.36889007 4.16796875 73.734375 C0.78199702 75.04303361 -2.185078 75.90773369 -5.83203125 75.734375 C-10.87369955 72.78547468 -13.62236808 68.54886975 -16.83203125 63.734375 C-15.98640625 63.63640625 -15.14078125 63.5384375 -14.26953125 63.4375 C-4.59613285 62.16237021 2.74350587 60.58950699 8.9140625 52.63671875 C13.38923995 45.84727508 14.24333305 38.7582471 13.16796875 30.734375 C10.92232341 23.33206258 6.88748637 18.5013773 0.16796875 14.734375 C-3.63892129 12.92878536 -6.95103959 12.38586896 -11.14453125 12.109375 C-12.21316406 12.03460938 -13.28179687 11.95984375 -14.3828125 11.8828125 C-15.19105469 11.83382813 -15.99929688 11.78484375 -16.83203125 11.734375 C-13.02872286 5.34481691 -8.39745134 -1.88414769 0 0 Z " fill="#9B9494" transform="translate(410.83203125,334.265625)"/>
<path d="M0 0 C1.97119141 -0.34057617 1.97119141 -0.34057617 4.3515625 -0.29296875 C5.20234375 -0.28330078 6.053125 -0.27363281 6.9296875 -0.26367188 C7.81914063 -0.23853516 8.70859375 -0.21339844 9.625 -0.1875 C10.97078125 -0.16719727 10.97078125 -0.16719727 12.34375 -0.14648438 C14.56309789 -0.11106925 16.78125188 -0.06168461 19 0 C17.48472002 5.40193032 14.9419495 9.804968 12.0625 14.5625 C11.61970703 15.30435547 11.17691406 16.04621094 10.72070312 16.81054688 C10.07198242 17.89625977 10.07198242 17.89625977 9.41015625 19.00390625 C8.99652832 19.7014502 8.58290039 20.39899414 8.15673828 21.11767578 C7.21342231 22.65270451 6.1791075 24.13150047 5.12109375 25.58984375 C3.51226617 29.04854276 4.23586642 31.30085462 5 35 C6.3557753 38.01018688 6.3557753 38.01018688 8.16015625 40.86328125 C8.78857422 41.91451172 9.41699219 42.96574219 10.06445312 44.04882812 C10.72380859 45.12583984 11.38316406 46.20285156 12.0625 47.3125 C13.36951194 49.47307075 14.67308819 51.6357249 15.97265625 53.80078125 C16.55281494 54.75122314 17.13297363 55.70166504 17.73071289 56.6809082 C19 59 19 59 19 61 C24.94 61 30.88 61 37 61 C37 61.33 37 61.66 37 62 C32.02015529 62.32329201 27.04648465 62.55799957 22.05859375 62.71411133 C20.36610545 62.77919461 18.6743403 62.86770958 16.984375 62.98071289 C5.82237968 63.70795374 5.82237968 63.70795374 1 62 C-2.95679869 58.20573719 -4.84944197 53.98409702 -7 49 C-7.96978479 47.36500489 -8.96755247 45.74597557 -10.00390625 44.15234375 C-10.85777455 42.74800563 -11.71067457 41.3430782 -12.5625 39.9375 C-13.23635742 38.85952148 -13.23635742 38.85952148 -13.92382812 37.75976562 C-14.34212891 37.06431641 -14.76042969 36.36886719 -15.19140625 35.65234375 C-15.56467041 35.04382568 -15.93793457 34.43530762 -16.32250977 33.80834961 C-17.22822903 31.39081353 -16.91150999 30.40989769 -16 28 C-15.01708083 26.05751017 -13.98023316 24.14196617 -12.91015625 22.24609375 C-12.29076172 21.14458984 -11.67136719 20.04308594 -11.03320312 18.90820312 C-10.38287109 17.76287109 -9.73253906 16.61753906 -9.0625 15.4375 C-8.41603516 14.28830078 -7.76957031 13.13910156 -7.10351562 11.95507812 C-2.33508929 3.50263393 -2.33508929 3.50263393 0 0 Z " fill="#60D6F5" transform="translate(43,83)"/>
<path d="M0 0 C4.25581004 0.2335396 8.40115502 0.68632044 12.5793457 1.53369141 C11.31310695 4.90712023 9.8613496 7.88532325 7.94262695 10.93212891 C7.44827148 11.74166016 6.95391602 12.55119141 6.44458008 13.38525391 C5.40966608 15.06715187 4.36274286 16.74171925 3.30395508 18.40869141 C1.09385348 22.06799234 -0.36611754 24.64797402 -0.6315918 28.95947266 C1.13128246 34.16279505 3.80982575 38.65636637 6.6418457 43.34619141 C7.76133443 45.22556011 8.87740672 47.10696951 9.98950195 48.99072266 C10.48587158 49.81548096 10.98224121 50.64023926 11.49365234 51.48999023 C12.5793457 53.53369141 12.5793457 53.53369141 12.5793457 55.53369141 C5.6493457 55.53369141 -1.2806543 55.53369141 -8.4206543 55.53369141 C-10.61349971 51.95051044 -12.79113434 48.36422616 -14.93920898 44.75488281 C-15.67306209 43.53039093 -16.41422445 42.31024818 -17.1628418 41.09472656 C-18.23981329 39.34321575 -19.28924372 37.57757536 -20.3347168 35.80712891 C-20.9736084 34.74929199 -21.6125 33.69145508 -22.27075195 32.6015625 C-23.73464305 28.69598809 -23.11767903 27.27303503 -21.4206543 23.53369141 C-21.06189209 22.64246582 -20.70312988 21.75124023 -20.33349609 20.83300781 C-11.1281307 0.37046755 -11.1281307 0.37046755 0 0 Z " fill="#61D9F9" transform="translate(411.420654296875,174.46630859375)"/>
<path d="M0 0 C30.69 0 61.38 0 93 0 C93 0.33 93 0.66 93 1 C71.22 1 49.44 1 27 1 C27 12.22 27 23.44 27 35 C18.09 35 9.18 35 0 35 C0 23.45 0 11.9 0 0 Z " fill="#C3B6B1" transform="translate(169,304)"/>
<path d="M0 0 C11.88 0 23.76 0 36 0 C36 20.89294404 36 20.89294404 31 27 C27.10493855 30.78278695 23.34599242 32.29125342 17.9375 32.5625 C11.77962789 32.22197251 8.0153237 30.0697919 3.6875 25.625 C-1.77049121 17.13479145 0 10.77629242 0 0 Z " fill="#6F6868" transform="translate(198,354)"/>
<path d="M0 0 C1.46373047 0.02707031 1.46373047 0.02707031 2.95703125 0.0546875 C3.69308594 0.07789063 4.42914063 0.10109375 5.1875 0.125 C4.46433594 1.22908203 4.46433594 1.22908203 3.7265625 2.35546875 C3.09492188 3.33128906 2.46328125 4.30710938 1.8125 5.3125 C0.87277344 6.75689453 0.87277344 6.75689453 -0.0859375 8.23046875 C-4.35038076 15.37968245 -4.83078703 21.89240825 -3.8125 30.125 C-1.81780215 35.57064749 0.98128999 40.31568498 4.1875 45.125 C3.1875 46.125 3.1875 46.125 -0.25 46.5 C-6.59232076 46.38613428 -12.28442444 43.70509358 -16.7109375 39.1875 C-22.14639444 32.18769204 -23.77976022 25.94194895 -22.8125 17.125 C-20.98854112 10.48717496 -16.37733184 5.95924168 -10.8125 2.125 C-7.07677084 0.26934368 -4.15073867 -0.1000178 0 0 Z " fill="#EDE5E1" transform="translate(215.8125,178.875)"/>
<path d="M0 0 C1.86964974 0.20159411 3.73130156 0.47515806 5.58959961 0.76318359 C5.03530273 1.72740234 4.48100586 2.69162109 3.90991211 3.68505859 C3.17808364 4.96106721 2.446316 6.23711071 1.71459961 7.51318359 C1.34979492 8.14740234 0.98499023 8.78162109 0.60913086 9.43505859 C-0.40568248 11.20636915 -1.40842621 12.98457882 -2.41040039 14.76318359 C-2.84610352 15.44896484 -3.28180664 16.13474609 -3.73071289 16.84130859 C-4.79312895 19.84538158 -4.26962174 21.70612567 -3.41040039 24.76318359 C-2.05484624 27.4764177 -0.47657203 30.01919288 1.15209961 32.57568359 C5.58959961 39.67972381 5.58959961 39.67972381 5.58959961 40.76318359 C-0.0832405 41.9004118 -5.88627331 42.95835537 -11.41040039 40.76318359 C-16.62235016 35.95613568 -20.56852052 28.58622468 -22.41040039 21.76318359 C-21.90258789 18.63818359 -21.90258789 18.63818359 -20.41040039 15.76318359 C-20.16233643 15.14846191 -19.91427246 14.53374023 -19.65869141 13.90039062 C-15.41505177 3.45979085 -11.58610579 -0.86019336 0 0 Z " fill="#0DD08E" transform="translate(78.410400390625,240.23681640625)"/>
<path d="M0 0 C1.9375 1.625 1.9375 1.625 3 4 C3.47168115 9.9796997 2.11584578 14.68834079 0.1875 20.25 C-0.07353516 21.05179688 -0.33457031 21.85359375 -0.60351562 22.6796875 C-2.86082733 29.34572404 -2.86082733 29.34572404 -6 32 C-9.47410437 33.31452598 -10.75422742 33.09925431 -14.25 31.6875 C-17 30 -17 30 -18 28 C-18.46292349 21.94276387 -17.11435536 16.95073554 -15.3125 11.25 C-15.06822266 10.40050781 -14.82394531 9.55101562 -14.57226562 8.67578125 C-13.37270468 4.83111249 -12.65549086 2.55019941 -9.51953125 -0.08203125 C-5.95457342 -1.38089185 -3.62538266 -1.00705074 0 0 Z " fill="#000000" transform="translate(24,184)"/>
<path d="M0 0 C1.08023438 -0.01095703 2.16046875 -0.02191406 3.2734375 -0.03320312 C7.94037466 0.01000926 11.10260135 0.05375575 15.2109375 2.3828125 C17 4.5625 17 4.5625 17.625 8 C16.8081936 12.65579649 15.83940728 13.79270862 12 16.5625 C7.98836702 17.3077996 4.06941978 17.26034164 0 17.1875 C-1.62035156 17.21650391 -1.62035156 17.21650391 -3.2734375 17.24609375 C-11.13283237 17.19757897 -11.13283237 17.19757897 -15.2109375 14.2109375 C-17 11.5625 -17 11.5625 -17.625 8.5625 C-15.66705869 -0.83561831 -7.86089858 -0.17354012 0 0 Z " fill="#000000" transform="translate(216,458.4375)"/>
<path d="M0 0 C1.60681641 0.33064453 1.60681641 0.33064453 3.24609375 0.66796875 C4.82583984 1.01794922 4.82583984 1.01794922 6.4375 1.375 C7.88962891 1.69597656 7.88962891 1.69597656 9.37109375 2.0234375 C12.45933484 3.17062958 13.95763804 4.4316469 16 7 C16.54861638 10.84031465 16.54211763 13.03897329 14.625 16.4375 C8.16865096 20.28056491 0.45589825 17.84017592 -6.4375 16.1875 C-7.13584961 16.0225 -7.83419922 15.8575 -8.55371094 15.6875 C-14.85853624 14.05371185 -14.85853624 14.05371185 -17 11 C-18.08444457 7.43682497 -18.30100515 5.69706457 -16.8125 2.25 C-11.96295366 -3.77012649 -6.71616938 -1.51984111 0 0 Z " fill="#000000" transform="translate(169,453)"/>
<path d="M0 0 C2.36487798 3.1948592 2.17809711 5.32363275 1.625 9.1953125 C-1.20734818 12.79475498 -3.39077335 13.77406668 -7.875 14.3828125 C-8.926875 14.52589844 -9.97875 14.66898438 -11.0625 14.81640625 C-12.155625 14.94144531 -13.24875 15.06648438 -14.375 15.1953125 C-15.468125 15.33066406 -16.56125 15.46601562 -17.6875 15.60546875 C-26.6988301 16.56623556 -26.6988301 16.56623556 -30.375 14.1953125 C-32.47179403 11.49943447 -32.37010821 10.1023685 -32.1875 6.6328125 C-31.35702409 3.11926058 -31.12301312 2.29248041 -28.375 0.1953125 C-20.83800574 -2.07428159 -6.55822374 -4.98338712 0 0 Z " fill="#000000" transform="translate(206.375,45.8046875)"/>
<path d="M0 0 C1.90838444 3.01323859 2.1875 5.32904442 2.1875 8.875 C-3.4487556 15.97131419 -12.31343943 17.11747635 -20.875 18.296875 C-25.10798285 18.52364194 -27.0761349 18.4401174 -30.5 15.8125 C-32.20784422 11.99018198 -31.9239336 9.87616096 -30.8125 5.875 C-27.55447276 1.74638413 -22.88703754 1.30571386 -18 0.125 C-17.10990234 -0.10832031 -16.21980469 -0.34164063 -15.30273438 -0.58203125 C-9.938428 -1.9101842 -4.99846443 -3.10249516 0 0 Z " fill="#000000" transform="translate(278.8125,453.125)"/>
<path d="M0 0 C2.45789714 2.93056967 2.625 5.15839384 2.625 8.9375 C-0.46401596 14.25561666 -4.7424419 15.7347142 -10.25 17.75 C-11.04019531 18.06130859 -11.83039063 18.37261719 -12.64453125 18.69335938 C-17.00096711 20.34242619 -20.64827916 21.46819471 -25.375 20.9375 C-28.25 19.4375 -28.25 19.4375 -30.375 16.9375 C-31.0901093 14.12319887 -31.29400299 11.70532077 -30.375 8.9375 C-26.62130823 5.18380823 -22.38526782 3.47724298 -17.5 1.6875 C-16.47712891 1.2853125 -16.47712891 1.2853125 -15.43359375 0.875 C-10.29785358 -1.042343 -5.23752894 -2.34310505 0 0 Z " fill="#000000" transform="translate(158.375,54.0625)"/>
<path d="M0 0 C2.65825259 2.24453528 3.88294761 3.99483109 4.28930664 7.484375 C4.3138144 10.50579431 4.18448355 13.48425871 4 16.5 C3.96777344 17.53253906 3.93554688 18.56507813 3.90234375 19.62890625 C3.67603285 24.12610998 3.4388854 27.22911293 1.1875 31.18359375 C-1.13046137 33.10832953 -2.03298147 33.66101429 -5 33.5625 C-5.66 33.56378906 -6.32 33.56507813 -7 33.56640625 C-10.08402235 32.69300148 -11.15695493 31.64278048 -13 29 C-13.54197043 25.90428017 -13.46673855 22.88359576 -13.375 19.75 C-13.37371094 18.92886719 -13.37242188 18.10773438 -13.37109375 17.26171875 C-13.29439375 11.88419656 -12.62967325 7.13404056 -11 2 C-7.37144677 -1.32617379 -4.61172574 -1.56994919 0 0 Z " fill="#000000" transform="translate(13,231)"/>
<path d="M0 0 C2.48345557 1.45348102 3.74694628 2.37566798 4.8371582 5.06542969 C5.06665161 6.23187012 5.06665161 6.23187012 5.30078125 7.421875 C5.47287109 8.28296875 5.64496094 9.1440625 5.82226562 10.03125 C5.98404297 10.9284375 6.14582031 11.825625 6.3125 12.75 C6.58416992 14.07257813 6.58416992 14.07257813 6.86132812 15.421875 C7.94714025 21.10020766 8.84147466 26.6420168 5.9375 31.9375 C2.80972014 33.65273412 -0.58705202 33.83194701 -4 33 C-9.78963297 28.63404727 -10.00550448 21.76113859 -11 15 C-11.94341572 5.62267504 -11.94341572 5.62267504 -9.4375 1.3125 C-6.06285737 -0.50461526 -3.77864401 -0.4723305 0 0 Z " fill="#000000" transform="translate(13,279)"/>
<path d="M0 0 C3.05140804 0.65841394 4.82743414 1.25937725 7.5 2.9375 C9.37143772 6.23479502 9.27846528 8.52227776 8.8125 12.25 C7.625 14.625 7.625 14.625 5.8125 16.25 C1.11430276 17.74447417 -3.38927739 17.0100152 -8.1875 16.4375 C-8.9815625 16.35435547 -9.775625 16.27121094 -10.59375 16.18554688 C-20.70299309 15.03140829 -20.70299309 15.03140829 -24.0625 11 C-25.46977934 7.55998383 -25.26205528 5.78068164 -24.1875 2.25 C-20.02587083 -3.93423915 -6.40696215 -0.95974737 0 0 Z " fill="#000000" transform="translate(247.1875,44.75)"/>
<path d="M0 0 C5.61 0 11.22 0 17 0 C17.10901505 2.83439137 17.18777904 5.66450203 17.25 8.5 C17.30027344 9.68722656 17.30027344 9.68722656 17.3515625 10.8984375 C17.46322588 17.70990352 15.78301184 23.03743901 11.0625 28.0625 C8.27706552 29.32860658 6.88341042 28.92233315 4 28 C-2.07026451 20.6426307 -0.26096829 8.74243779 0 0 Z " fill="#9D9696" transform="translate(216,355)"/>
<path d="M0 0 C4.06016447 0.82981464 6.7960308 3.07691498 9.140625 6.4375 C10.18802162 10.33108307 9.51751095 13.54487537 7.953125 17.25 C5.07081886 20.72864534 2.64624975 22.24929691 -1.859375 22.8125 C-6.41774748 22.24270344 -8.84838601 20.7273825 -11.671875 17.125 C-13.11382174 13.86164686 -13.36473014 11.97498596 -12.859375 8.4375 C-9.63618729 2.657991 -6.91894656 -0.20500582 0 0 Z " fill="#F8F8F8" transform="translate(400.859375,360.5625)"/>
<path d="M0 0 C4 2 4 2 6 4 C5.75558954 6.52557477 5.17639341 7.7852602 3.5625 9.75 C2 11 2 11 0 11 C0 7.37 0 3.74 0 0 Z " fill="#E9602C" transform="translate(50,395)"/>
</svg>
