<?xml version="1.0" encoding="iso-8859-1"?>
<!-- Generator: Adobe Illustrator 19.0.0, SVG Export Plug-In . SVG Version: 6.00 Build 0)  -->
<svg version="1.1" id="Capa_1" xmlns="http://www.w3.org/2000/svg" xmlns:xlink="http://www.w3.org/1999/xlink" x="0px" y="0px"
	 viewBox="0 0 512 512" style="enable-background:new 0 0 512 512;" xml:space="preserve">
<g>
	<path style="fill:#71C285;" d="M388.073,271.215L261.22,178.259c-0.139-0.102-0.307-0.116-0.449-0.209
		c-0.25-0.194-0.51-0.375-0.779-0.541c-0.476-0.213-0.969-0.382-1.476-0.507c-0.229-0.069-0.439-0.18-0.671-0.23
		c-0.954-0.199-1.935-0.237-2.902-0.113c-0.277,0.046-0.552,0.107-0.823,0.181c-0.74,0.162-1.455,0.42-2.127,0.767
		c-0.262,0.136-0.518,0.25-0.767,0.412c-0.143,0.093-0.306,0.138-0.445,0.239l-126.853,92.957c-3.921,2.887-4.764,8.403-1.886,12.33
		c2.879,3.927,8.393,4.782,12.326,1.912l112.806-82.664v167.965c0,4.875,3.952,8.828,8.828,8.828s8.828-3.952,8.828-8.828V202.793
		l112.806,82.664c3.933,2.87,9.447,2.015,12.326-1.912C392.838,279.618,391.994,274.102,388.073,271.215z"/>
	<circle style="fill:#26B99A;" cx="70.621" cy="317.793" r="70.621"/>
	<path style="fill:#E6E7E8;" d="M112.994,361.224c0.018,5.294-1.096,10.531-3.267,15.36c-23.703,15.713-54.509,15.713-78.211,0
		c-2.171-4.829-3.285-10.066-3.267-15.36c0.195-14.738,8.658-28.115,21.892-34.603l0.442-0.441
		c4.996,5.88,12.323,9.269,20.039,9.269s15.043-3.389,20.039-9.269l0.441,0.441C104.335,333.109,112.798,346.486,112.994,361.224z"
		/>
	<path style="fill:#FFFFFF;" d="M97.103,308.966c0.04,6.335-2.254,12.462-6.444,17.214c-4.996,5.88-12.323,9.269-20.039,9.269
		s-15.043-3.389-20.039-9.269c-4.19-4.751-6.484-10.879-6.444-17.214c0-14.626,11.857-26.483,26.483-26.483
		S97.103,294.34,97.103,308.966z"/>
	<circle style="fill:#4482C3;" cx="256" cy="441.379" r="70.621"/>
	<path style="fill:#E6E7E8;" d="M298.373,484.81c0.018,5.294-1.096,10.531-3.267,15.36c-23.703,15.713-54.509,15.713-78.211,0
		c-2.171-4.829-3.285-10.066-3.267-15.36c0.195-14.738,8.658-28.115,21.892-34.603l0.442-0.441
		c4.996,5.88,12.323,9.269,20.039,9.269c7.716,0,15.043-3.389,20.039-9.269l0.441,0.441
		C289.714,456.695,298.178,470.072,298.373,484.81z"/>
	<path style="fill:#FFFFFF;" d="M282.483,432.552c0.04,6.335-2.254,12.462-6.444,17.214c-4.996,5.88-12.323,9.269-20.039,9.269
		s-15.043-3.389-20.039-9.269c-4.19-4.751-6.484-10.879-6.444-17.214c0-14.626,11.857-26.483,26.483-26.483
		C270.626,406.069,282.483,417.926,282.483,432.552z"/>
	<circle style="fill:#CC4B4C;" cx="441.379" cy="317.793" r="70.621"/>
	<path style="fill:#E6E7E8;" d="M483.752,361.224c0.018,5.294-1.096,10.531-3.267,15.36c-23.703,15.713-54.509,15.713-78.211,0
		c-2.171-4.829-3.285-10.066-3.267-15.36c0.195-14.738,8.658-28.115,21.892-34.603l0.441-0.441
		c4.996,5.88,12.323,9.269,20.039,9.269s15.043-3.389,20.039-9.269l0.441,0.441C475.093,333.109,483.557,346.486,483.752,361.224z"
		/>
	<path style="fill:#FFFFFF;" d="M467.862,308.966c0.04,6.335-2.254,12.462-6.444,17.214c-4.996,5.88-12.323,9.269-20.039,9.269
		c-7.716,0-15.043-3.389-20.039-9.269c-4.19-4.751-6.484-10.879-6.444-17.214c0-14.626,11.857-26.483,26.483-26.483
		S467.862,294.34,467.862,308.966z"/>
	<path style="fill:#35495E;" d="M79.448,0h353.103c9.751,0,17.655,7.904,17.655,17.655v70.621c0,9.751-7.905,17.655-17.655,17.655
		H79.448c-9.751,0-17.655-7.904-17.655-17.655V17.655C61.793,7.904,69.698,0,79.448,0z"/>
	<path style="fill:#3F5C6C;" d="M167.724,0v105.931H79.448c-9.739-0.029-17.627-7.916-17.655-17.655V17.655
		C61.822,7.916,69.709,0.029,79.448,0H167.724z"/>
	<circle style="fill:#26B99A;" cx="114.759" cy="52.966" r="17.655"/>
	<g>
		<path style="fill:#84B5CB;" d="M370.759,61.793H264.828c-4.875,0-8.828-3.952-8.828-8.828s3.952-8.828,8.828-8.828h105.931
			c4.875,0,8.828,3.952,8.828,8.828S375.634,61.793,370.759,61.793z"/>
		<path style="fill:#84B5CB;" d="M414.897,61.793h-8.828c-4.875,0-8.828-3.952-8.828-8.828s3.952-8.828,8.828-8.828h8.828
			c4.875,0,8.828,3.952,8.828,8.828S419.772,61.793,414.897,61.793z"/>
		<path style="fill:#84B5CB;" d="M220.69,44.138h-17.655c-4.875,0-8.828-3.952-8.828-8.828s3.952-8.828,8.828-8.828h17.655
			c4.875,0,8.828,3.952,8.828,8.828S225.565,44.138,220.69,44.138z"/>
		<path style="fill:#84B5CB;" d="M220.69,79.448h-17.655c-4.875,0-8.828-3.952-8.828-8.828s3.952-8.828,8.828-8.828h17.655
			c4.875,0,8.828,3.952,8.828,8.828S225.565,79.448,220.69,79.448z"/>
	</g>
	<path style="fill:#3F5C6C;" d="M79.448,105.931h353.103c9.751,0,17.655,7.904,17.655,17.655v70.621
		c0,9.751-7.905,17.655-17.655,17.655H79.448c-9.751,0-17.655-7.904-17.655-17.655v-70.621
		C61.793,113.836,69.698,105.931,79.448,105.931z"/>
	<path style="fill:#547580;" d="M167.724,105.931v105.931H79.448c-9.739-0.029-17.627-7.916-17.655-17.655v-70.621
		c0.029-9.739,7.916-17.627,17.655-17.655H167.724z"/>
	<circle style="fill:#26B99A;" cx="114.759" cy="158.897" r="17.655"/>
	<g>
		<path style="fill:#84B5CB;" d="M370.759,167.724H264.828c-4.875,0-8.828-3.952-8.828-8.828s3.952-8.828,8.828-8.828h105.931
			c4.875,0,8.828,3.952,8.828,8.828S375.634,167.724,370.759,167.724z"/>
		<path style="fill:#84B5CB;" d="M414.897,167.724h-8.828c-4.875,0-8.828-3.952-8.828-8.828s3.952-8.828,8.828-8.828h8.828
			c4.875,0,8.828,3.952,8.828,8.828S419.772,167.724,414.897,167.724z"/>
		<path style="fill:#84B5CB;" d="M220.69,150.069h-17.655c-4.875,0-8.828-3.952-8.828-8.828s3.952-8.828,8.828-8.828h17.655
			c4.875,0,8.828,3.952,8.828,8.828S225.565,150.069,220.69,150.069z"/>
		<path style="fill:#84B5CB;" d="M220.69,185.379h-17.655c-4.875,0-8.828-3.952-8.828-8.828s3.952-8.828,8.828-8.828h17.655
			c4.875,0,8.828,3.952,8.828,8.828S225.565,185.379,220.69,185.379z"/>
	</g>
</g>
<g>
</g>
<g>
</g>
<g>
</g>
<g>
</g>
<g>
</g>
<g>
</g>
<g>
</g>
<g>
</g>
<g>
</g>
<g>
</g>
<g>
</g>
<g>
</g>
<g>
</g>
<g>
</g>
<g>
</g>
</svg>
