<svg xmlns="http://www.w3.org/2000/svg" viewBox="0 0 512 512">
    <g fill="#e57e25">
        <path d="M123.586 308.966H8.828A8.828 8.828 0 010 300.138v-61.793a8.828 8.828 0 018.828-8.828h114.759a8.828 8.828 0 018.828 8.828v61.793a8.83 8.83 0 01-8.829 8.828zM8.828 0h114.759a8.828 8.828 0 018.828 8.828v61.793a8.828 8.828 0 01-8.828 8.828H8.828A8.829 8.829 0 010 70.621V8.828A8.827 8.827 0 018.828 0zM176.552 0h158.897a8.828 8.828 0 018.828 8.828v61.793a8.828 8.828 0 01-8.828 8.828H176.552a8.828 8.828 0 01-8.828-8.828V8.828A8.827 8.827 0 01176.552 0zM238.345 127.382v-3.796a8.854 8.854 0 00-8.828-8.828H8.828A8.854 8.854 0 000 123.586v61.793a8.854 8.854 0 008.828 8.828h179.023l6.356-44.138 44.138-22.687zM326.621 194.207h176.552a8.854 8.854 0 008.828-8.828v-61.793a8.854 8.854 0 00-8.828-8.828h-220.69a8.854 8.854 0 00-8.828 8.828v8.828l44.138 8.828 8.828 52.965zM130.03 423.724H8.828A8.854 8.854 0 010 414.896v-61.793a8.854 8.854 0 018.828-8.828h129.501l-8.299 79.449zM393.181 344.276h109.992a8.854 8.854 0 018.828 8.828v61.793a8.854 8.854 0 01-8.828 8.828H392.21l.971-79.449zM388.414 0h114.759A8.827 8.827 0 01512 8.828v61.793a8.828 8.828 0 01-8.828 8.828H388.414a8.828 8.828 0 01-8.828-8.828V8.828A8.827 8.827 0 01388.414 0z"></path>
    </g>
    <path d="M264.21 308.966h-7.945" fill="none" stroke="#000" stroke-width="2" stroke-linecap="round" stroke-linejoin="round"></path>
    <path d="M388.414 229.517h114.759a8.828 8.828 0 018.828 8.828v61.793a8.828 8.828 0 01-8.828 8.828H388.414a8.828 8.828 0 01-8.828-8.828v-61.793a8.827 8.827 0 018.828-8.828z" fill="#e57e25"></path>
    <g fill="#d25627">
        <path d="M35.31 273.655h17.655A8.828 8.828 0 0052.966 256H35.31a8.828 8.828 0 000 17.655zM52.966 44.138H35.31a8.828 8.828 0 010-17.656h17.655a8.828 8.828 0 01.001 17.656zM247.172 44.138h-44.138a8.828 8.828 0 010-17.656h44.138a8.828 8.828 0 010 17.656zM79.448 158.897H35.31a8.828 8.828 0 010-17.656h44.138a8.828 8.828 0 010 17.656zM79.448 388.414H35.31a8.828 8.828 0 010-17.656h44.138a8.828 8.828 0 010 17.656zM476.69 44.138h-8.828a8.828 8.828 0 010-17.656h8.828a8.828 8.828 0 010 17.656zM476.69 273.655h-8.828a8.828 8.828 0 010-17.656h8.828a8.828 8.828 0 010 17.656z"></path>
    </g>
    <path d="M311.172 503.702c-.088.088-.265.177-.353.265" fill="#f29c1f"></path>
    <path d="M344.276 167.724v114.759h-35.31V167.724c-.028-9.739-7.916-17.627-17.655-17.655H220.69c-9.739.028-17.627 7.916-17.655 17.655v114.759h-35.31V167.724c.023-29.242 23.723-52.942 52.966-52.966h70.621c29.241.024 52.941 23.724 52.964 52.966z" fill="#95a5a5"></path>
    <path d="M105.931 423.724v52.966a35.301 35.301 0 0035.31 35.31h229.517a35.3 35.3 0 0035.31-35.31V300.138c.014-16.101-10.887-30.163-26.483-34.163a32.292 32.292 0 00-8.828-1.148H141.241a32.264 32.264 0 00-8.828 1.148c-15.596 4-26.497 18.062-26.483 34.163v123.586z" fill="#547580"></path>
    <circle cx="256" cy="388.414" r="79.448" fill="#e6e7e8"></circle>
    <g fill="#547580">
        <circle cx="256" cy="379.586" r="26.483"></circle>
        <path d="M256 441.379a8.824 8.824 0 01-8.828-8.828v-26.483a8.828 8.828 0 0117.656 0v26.483a8.824 8.824 0 01-8.828 8.828z"></path>
    </g>
</svg>