<?xml version="1.0" standalone="no"?>
<!DOCTYPE svg PUBLIC "-//W3C//DTD SVG 20010904//EN"
 "http://www.w3.org/TR/2001/REC-SVG-20010904/DTD/svg10.dtd">
<svg version="1.0" xmlns="http://www.w3.org/2000/svg"
 width="904.000000pt" height="904.000000pt" viewBox="0 0 904.000000 904.000000"
 preserveAspectRatio="xMidYMid meet">
<metadata>
Created by potrace 1.14, written by Peter Selinger 2001-2017
</metadata>
<g transform="translate(0.000000,904.000000) scale(0.100000,-0.100000)"
fill="#000000" stroke="none">
<path d="M1784 9016 c-48 -14 -94 -38 -88 -47 3 -5 1 -9 -4 -9 -6 0 -13 -7
-16 -16 -3 -8 -2 -12 4 -9 15 9 12 -2 -6 -19 -8 -9 -11 -16 -6 -16 6 0 7 -13
3 -32 -4 -18 -7 -66 -6 -105 1 -40 -3 -73 -7 -73 -4 0 -8 9 -8 21 0 11 -4 17
-10 14 -5 -3 -10 -2 -10 3 0 14 -56 72 -63 65 -4 -3 -7 -2 -7 4 0 12 -55 11
-85 -2 -59 -25 -200 -137 -264 -210 -14 -16 -38 -42 -53 -58 -16 -16 -28 -33
-28 -38 0 -5 -5 -9 -11 -9 -5 0 -7 -4 -4 -10 3 -5 2 -10 -3 -10 -9 0 -62 -76
-62 -90 0 -4 -7 -13 -15 -20 -8 -7 -12 -16 -9 -21 3 -5 1 -9 -3 -9 -5 0 -15
-16 -22 -35 -7 -19 -17 -35 -22 -35 -6 0 -9 -6 -6 -12 2 -7 -2 -26 -10 -41
-16 -32 -50 -136 -58 -176 -3 -14 -8 -42 -12 -61 -4 -19 -7 -52 -7 -72 -1 -21
-3 -38 -6 -38 -8 0 -6 -58 2 -66 4 -4 3 -15 -2 -25 -7 -12 -7 -20 0 -24 7 -4
7 -12 0 -24 -5 -10 -8 -20 -5 -22 2 -2 6 -24 10 -49 4 -25 8 -49 10 -55 1 -5
6 -29 10 -52 4 -24 11 -43 16 -43 5 0 9 -11 9 -24 0 -14 5 -28 10 -31 6 -4 8
-10 5 -15 -2 -4 4 -18 14 -31 10 -13 19 -28 20 -34 0 -5 8 -18 16 -27 8 -10
11 -18 7 -18 -4 0 2 -7 12 -15 11 -8 16 -15 12 -15 -5 0 3 -12 18 -26 14 -15
26 -30 26 -34 0 -8 58 -70 65 -70 3 0 17 -13 32 -28 37 -38 120 -94 186 -126
57 -28 199 -77 228 -79 11 -1 19 -4 19 -7 0 -20 366 -16 399 5 12 7 13 6 16
-50 2 -50 15 -169 21 -198 2 -12 6 -39 10 -62 3 -22 7 -45 8 -52 1 -7 5 -16 9
-19 4 -4 7 -17 7 -28 0 -12 9 -45 19 -74 11 -28 17 -52 15 -52 -3 0 1 -10 8
-22 7 -13 13 -25 13 -28 1 -15 31 -77 42 -88 7 -8 11 -18 8 -23 -4 -5 -2 -9 3
-9 5 0 14 -11 20 -25 22 -49 99 -126 146 -149 35 -17 122 -25 141 -14 6 3 24
9 42 13 27 5 37 2 58 -19 14 -14 28 -26 31 -26 4 0 21 -15 78 -65 11 -10 65
-41 96 -56 8 -3 38 -17 65 -30 28 -13 53 -23 57 -21 4 1 24 -6 45 -15 21 -9
44 -16 51 -14 6 1 12 -2 12 -6 0 -5 8 -9 18 -10 16 -1 52 -9 62 -14 3 -1 10
-3 15 -4 6 -2 12 -4 15 -5 3 -1 16 -3 30 -6 14 -2 39 -7 55 -9 17 -3 44 -8 60
-10 63 -9 108 -23 79 -26 -5 0 -18 -3 -29 -5 -11 -3 -26 -6 -32 -6 -7 -1 -13
-5 -13 -10 0 -4 -3 -7 -7 -6 -10 2 -64 -13 -78 -21 -10 -5 -22 -9 -55 -15 -14
-3 -34 -11 -137 -56 -23 -10 -44 -16 -47 -12 -3 3 -6 0 -6 -6 0 -7 -4 -12 -10
-12 -5 0 -32 -13 -60 -30 -27 -16 -50 -27 -50 -25 0 3 -12 -5 -26 -18 -14 -12
-26 -20 -27 -18 -4 10 -167 -143 -167 -156 0 -5 -9 -16 -20 -26 -12 -10 -18
-21 -15 -26 2 -5 -2 -12 -11 -15 -8 -3 -13 -10 -10 -15 3 -5 0 -11 -8 -14 -7
-3 -17 -25 -21 -49 -4 -23 -10 -50 -12 -58 -10 -38 -5 -280 6 -280 4 0 7 -9 8
-21 2 -21 55 -75 86 -85 9 -3 17 -9 17 -13 0 -4 10 -7 21 -8 37 -3 45 -20 19
-43 -12 -11 -27 -17 -31 -14 -5 3 -9 1 -9 -4 0 -5 -18 -21 -40 -36 -22 -14
-40 -24 -40 -21 0 3 -9 -4 -20 -15 -11 -11 -27 -20 -36 -20 -8 0 -13 -4 -10
-8 3 -5 -10 -15 -29 -22 -19 -7 -32 -17 -29 -22 3 -4 -2 -8 -10 -8 -9 0 -16
-4 -16 -10 0 -5 -7 -10 -15 -10 -7 0 -19 -8 -24 -17 -6 -10 -11 -14 -11 -10 0
5 -6 2 -14 -5 -7 -7 -24 -20 -36 -28 -13 -8 -33 -25 -45 -37 -13 -12 -25 -20
-27 -18 -2 2 -19 -9 -38 -25 -19 -17 -40 -30 -46 -30 -6 0 -25 -13 -44 -30
-18 -16 -37 -27 -41 -24 -5 3 -9 1 -9 -4 0 -14 -120 -92 -141 -92 -23 0 -70
-23 -100 -48 -12 -9 -32 -26 -45 -38 -14 -11 -26 -27 -27 -35 -2 -8 -7 -21
-12 -29 -10 -17 -16 -60 -17 -141 0 -55 37 -199 52 -199 4 0 13 -13 20 -30 7
-16 16 -30 21 -30 5 0 9 -6 9 -12 0 -7 16 -30 35 -52 19 -21 35 -42 35 -47 0
-5 4 -9 9 -9 5 0 32 -21 59 -47 74 -71 102 -93 120 -93 8 0 12 -3 9 -6 -6 -7
43 -39 76 -50 9 -4 17 -11 17 -17 0 -6 3 -7 6 -4 4 4 20 0 35 -8 16 -8 42 -22
58 -30 15 -8 31 -12 35 -8 3 3 6 2 6 -4 0 -5 6 -10 13 -10 76 -5 132 -21 127
-37 -2 -3 1 -25 5 -49 4 -23 7 -45 6 -50 0 -4 4 -7 10 -7 5 0 7 -5 4 -10 -3
-5 -3 -10 2 -10 4 0 19 -23 32 -50 14 -28 29 -50 33 -50 4 0 8 -7 8 -15 0 -8
5 -15 10 -15 6 0 10 -6 10 -14 0 -8 3 -16 8 -18 4 -1 24 -22 45 -46 20 -23 37
-39 37 -35 0 3 8 -1 18 -9 9 -9 30 -15 45 -14 16 1 31 -2 33 -6 3 -5 9 -6 14
-3 5 3 31 8 57 11 26 2 66 9 88 15 22 6 45 12 50 13 6 1 20 8 33 14 12 7 22 9
22 5 0 -4 7 2 15 13 8 10 15 15 15 11 1 -22 99 94 115 135 9 26 22 46 28 45
13 -2 68 -59 63 -65 -2 -2 14 -22 35 -44 21 -23 39 -45 39 -50 0 -5 4 -6 10
-3 6 3 10 1 10 -5 0 -15 26 -41 34 -33 3 3 8 -2 12 -11 3 -9 12 -16 18 -16 7
0 29 -15 49 -33 l37 -33 -20 -22 c-12 -12 -18 -22 -14 -22 4 0 -4 -10 -18 -23
-13 -12 -23 -28 -20 -35 2 -7 -3 -15 -12 -18 -9 -3 -16 -12 -16 -20 0 -8 -9
-23 -20 -34 -11 -11 -18 -20 -15 -20 3 0 -9 -22 -25 -49 -17 -26 -30 -53 -30
-60 0 -6 -13 -12 -30 -12 -71 -3 -110 -14 -110 -31 0 -6 -3 -8 -7 -5 -17 18
-112 -141 -105 -175 1 -5 -2 -8 -8 -8 -6 0 -9 -3 -8 -7 1 -5 -2 -20 -6 -34 -6
-22 -17 -28 -61 -38 -49 -11 -124 -57 -127 -78 -3 -25 -11 -43 -19 -43 -5 0
-8 -3 -7 -7 1 -5 -4 -21 -11 -38 -18 -43 -52 -137 -56 -155 -2 -8 -4 -16 -5
-17 -2 -2 -3 -6 -5 -10 -1 -5 -5 -15 -8 -23 -13 -32 -42 -136 -40 -148 0 -6
-3 -12 -9 -12 -5 0 -7 -4 -3 -9 3 -5 0 -13 -6 -16 -5 -4 -8 -13 -5 -21 3 -7 1
-16 -5 -19 -5 -4 -7 -10 -4 -15 3 -5 1 -11 -4 -15 -6 -3 -8 -12 -4 -20 3 -8 0
-15 -7 -15 -6 0 -9 -4 -5 -9 3 -5 2 -12 -3 -15 -4 -2 -8 -17 -7 -33 1 -38 -27
-88 -51 -89 -28 -1 -104 -35 -104 -46 0 -5 -4 -6 -10 -3 -5 3 -10 1 -10 -5 0
-6 -5 -8 -10 -5 -6 3 -13 -1 -16 -9 -3 -9 -11 -16 -18 -16 -6 0 -18 -9 -26
-20 -8 -11 -18 -20 -23 -20 -5 0 -21 -13 -35 -28 -15 -16 -38 -35 -51 -42 -58
-31 -161 -137 -161 -166 0 -8 -4 -14 -8 -14 -4 0 -13 -15 -20 -33 -9 -26 -18
-33 -39 -34 -16 -1 -48 -4 -73 -8 -25 -4 -56 -8 -70 -10 -14 -2 -25 -4 -25 -5
0 -1 -16 -4 -35 -6 -34 -4 -70 -10 -80 -14 -3 -1 -8 -2 -11 -2 -3 0 -23 -3
-45 -9 -51 -12 -105 -22 -124 -22 -8 0 -25 -6 -39 -13 -13 -7 -28 -11 -33 -8
-4 3 -8 2 -8 -3 0 -4 -17 -9 -37 -11 -20 -1 -39 -6 -43 -11 -3 -4 -18 -11 -35
-15 -48 -12 -138 -56 -156 -77 -9 -10 -18 -16 -21 -14 -3 3 -13 -6 -22 -20 -9
-14 -14 -25 -11 -25 2 0 1 -10 -4 -23 -7 -19 -2 -29 35 -65 24 -23 44 -39 44
-34 0 4 4 2 8 -4 6 -9 76 -46 95 -50 4 -1 9 -3 12 -4 3 -1 8 -3 13 -5 4 -1 15
-5 24 -9 9 -4 25 -9 35 -11 10 -2 18 -4 18 -5 0 -1 11 -3 24 -6 14 -2 45 -11
69 -20 25 -8 51 -13 58 -10 7 3 14 0 16 -5 2 -5 20 -11 41 -12 20 -1 37 -5 37
-10 0 -4 3 -6 8 -6 4 1 9 0 12 -1 3 -1 16 -3 30 -5 14 -2 43 -6 65 -10 22 -4
54 -8 70 -11 31 -4 60 -9 105 -18 27 -5 112 -17 145 -19 11 -1 23 -6 27 -12 5
-6 8 -5 8 3 0 8 5 10 13 5 6 -4 21 -8 32 -9 71 -5 101 -10 107 -19 5 -6 8 -5
8 2 0 9 7 10 24 3 13 -5 26 -6 29 -4 3 3 14 1 25 -5 13 -7 22 -7 30 1 7 7 12
8 12 2 0 -6 20 -10 45 -9 25 1 45 -1 45 -4 0 -3 19 -7 43 -8 52 -2 182 -11
182 -13 0 -2 126 -10 218 -14 43 -2 80 -6 84 -9 3 -4 12 -2 20 4 7 6 13 8 13
3 0 -5 39 -10 88 -12 119 -4 161 -8 169 -15 3 -4 12 -2 19 3 14 12 36 10 46
-5 5 -6 8 -5 8 4 0 10 3 11 14 2 10 -8 16 -9 21 -1 3 6 11 7 17 4 6 -4 75 -9
152 -12 207 -8 1383 -6 1581 2 94 4 216 9 271 10 56 2 107 6 113 10 6 4 11 1
11 -6 0 -8 3 -9 8 -3 4 6 43 11 87 13 44 1 118 5 165 9 47 3 101 6 120 7 19 0
38 6 42 11 5 6 8 5 8 -3 0 -7 5 -10 11 -7 9 6 70 13 174 19 22 1 46 5 53 10 7
4 12 2 12 -4 0 -7 6 -8 18 -2 9 5 34 8 55 8 20 -1 37 1 37 5 0 3 19 6 43 7 23
0 67 3 97 7 30 4 69 8 85 10 17 2 30 4 30 5 0 1 14 4 30 6 97 10 120 13 120
14 0 2 24 7 80 14 75 11 91 14 122 20 15 4 44 9 63 11 41 6 75 13 75 15 0 1
11 4 25 5 35 5 53 10 65 16 6 3 24 6 40 7 17 1 32 7 33 12 2 6 8 8 12 5 12 -7
179 49 238 80 46 24 112 75 98 75 -4 0 0 7 8 16 9 8 13 21 9 27 -4 7 -8 17 -9
24 -3 18 -37 61 -54 67 -22 7 -74 39 -82 51 -4 6 -8 7 -8 3 0 -4 -21 2 -46 12
-25 11 -50 18 -55 14 -5 -3 -9 -1 -9 4 0 8 -91 37 -120 37 -8 1 -20 4 -27 8
-6 4 -23 8 -37 9 -14 1 -26 5 -26 8 0 3 -16 7 -37 8 -20 2 -39 5 -43 7 -3 2
-29 7 -56 10 -55 8 -62 12 -67 40 -2 11 -7 29 -11 40 -5 11 -10 27 -13 35 -4
8 -8 24 -10 35 -2 11 -8 22 -13 23 -6 2 -10 12 -10 23 0 10 -4 19 -10 19 -5 0
-10 4 -10 10 0 11 -22 40 -61 79 -54 55 -84 72 -134 78 -37 4 -85 23 -85 33 0
4 -13 13 -30 20 -16 7 -30 16 -30 20 0 8 -51 34 -63 32 -4 -1 -10 5 -13 13 -4
8 -10 15 -16 15 -5 0 -30 10 -56 22 -26 12 -53 23 -60 24 -8 1 -21 6 -30 10
-20 8 -39 13 -67 17 -36 5 -41 14 -40 64 1 26 -3 56 -8 67 -7 13 -6 16 3 11 9
-6 9 -2 1 14 -8 15 -9 21 -1 21 7 0 8 5 3 13 -4 6 -9 37 -10 67 -5 120 -10
187 -15 196 -3 5 -5 24 -4 42 0 17 -3 32 -7 32 -5 0 -6 4 -3 9 9 14 -20 74
-47 96 -25 21 -42 65 -25 65 5 0 6 5 2 12 -4 7 -9 30 -10 53 -1 22 -2 40 -3
40 -4 0 -13 80 -12 102 0 12 -4 25 -9 28 -6 3 -10 15 -10 26 0 10 -5 19 -11
19 -5 0 -7 5 -4 10 3 6 2 10 -3 10 -5 0 -14 11 -20 25 -6 13 -23 27 -37 31
-14 3 -25 9 -25 13 0 3 -26 7 -57 9 -63 3 -59 0 -126 102 -23 36 -48 71 -54
78 -7 7 -13 17 -13 20 0 4 -13 22 -29 40 -17 17 -25 32 -20 32 6 0 8 4 4 9 -7
13 157 179 172 174 7 -2 9 -11 6 -19 -3 -8 0 -14 6 -14 9 0 9 -5 1 -20 -6 -11
-7 -20 -2 -20 4 0 8 -21 7 -47 0 -27 3 -54 8 -60 6 -8 5 -13 -1 -13 -6 0 -9
-6 -7 -13 3 -6 7 -28 9 -47 5 -57 17 -89 34 -94 42 -13 70 -13 92 0 14 7 22
13 18 14 -4 0 -1 12 7 26 7 15 11 36 8 48 -2 11 -5 33 -6 49 0 15 -3 27 -7 27
-10 0 -6 54 5 62 7 5 6 8 0 8 -10 0 -13 13 -19 75 -1 11 -5 25 -9 31 -7 13 16
37 39 40 8 1 15 -2 15 -7 3 -20 5 -24 13 -38 7 -10 6 -12 -4 -6 -10 6 -11 4
-4 -6 8 -14 11 -22 18 -69 2 -14 7 -33 11 -43 4 -10 5 -20 2 -23 -7 -8 19 -82
35 -98 7 -7 26 -16 41 -20 24 -6 33 -1 57 25 32 33 33 45 10 144 -17 75 -20
87 -25 127 -3 20 -5 41 -6 45 -5 30 5 51 34 68 17 11 34 20 37 20 11 1 44 24
36 25 -6 0 -2 6 7 13 12 9 18 30 20 78 2 36 7 71 11 77 4 7 2 12 -4 12 -6 0
-8 5 -3 13 12 19 11 391 -1 399 -7 5 -7 8 2 8 13 0 10 6 -28 49 -10 11 -16 39
-17 81 -3 112 -25 375 -33 375 -6 0 -5 47 2 51 4 3 8 0 8 -5 0 -6 3 -10 8 -9
4 1 21 -5 37 -12 17 -7 32 -14 35 -14 3 -1 11 -5 18 -9 6 -5 12 -5 12 -2 0 4
14 -4 32 -16 17 -13 28 -16 23 -8 -7 11 -6 12 6 3 8 -6 34 -16 59 -23 25 -8
52 -16 60 -19 20 -7 172 -9 185 -3 6 3 20 7 32 9 30 4 90 30 98 42 3 5 15 10
26 10 10 0 19 4 19 9 0 15 43 21 59 8 11 -9 13 -9 8 0 -5 8 1 7 20 -2 16 -7
45 -16 67 -19 21 -4 43 -9 50 -13 6 -4 18 -8 26 -10 8 -1 31 -5 50 -9 19 -4
46 -8 60 -9 14 -1 25 -3 25 -5 0 -1 18 -3 40 -4 22 0 45 -5 52 -9 6 -4 14 -3
18 2 3 5 14 8 25 6 11 -2 20 0 20 6 0 5 5 8 12 7 20 -5 50 65 52 122 1 19 5
40 9 47 4 6 4 18 1 27 -3 9 -1 16 4 16 10 0 23 26 21 44 0 5 4 12 9 15 10 6
71 149 77 181 2 8 4 16 5 18 2 1 3 5 4 10 1 4 9 23 17 42 9 19 19 49 24 65 11
38 9 35 23 68 7 16 12 32 12 37 0 4 8 7 18 6 18 -3 83 23 93 37 3 5 10 8 14 6
4 -1 25 15 46 36 93 92 110 233 36 308 -13 12 -15 22 -9 30 14 17 8 170 -7
175 -6 2 -11 9 -11 15 0 6 -10 21 -22 34 -12 13 -17 23 -11 23 10 0 11 4 17
65 4 44 -6 75 -41 122 -13 17 -23 35 -23 38 0 17 -91 85 -113 85 -10 0 -17 4
-17 8 0 5 -6 9 -12 10 -7 0 -29 2 -48 3 -32 2 -35 4 -33 33 1 17 2 31 3 31 1
0 3 13 5 28 1 16 8 33 16 38 8 5 10 9 5 9 -4 0 6 14 23 32 17 17 31 38 31 45
0 8 4 12 9 9 5 -3 11 1 15 9 3 8 16 15 29 15 14 0 30 7 37 15 7 8 20 15 29 15
31 0 191 128 204 163 4 11 12 15 18 11 7 -4 9 -3 5 4 -3 6 1 17 9 25 8 9 15
20 15 25 0 5 7 15 15 22 8 7 12 16 9 21 -3 5 -1 9 5 9 8 0 29 48 37 83 1 4 2
8 4 10 16 19 24 398 9 408 -5 3 -10 17 -11 32 -1 15 -6 27 -10 27 -4 0 -8 9
-8 19 0 11 -4 23 -10 26 -5 3 -10 15 -10 26 0 10 -4 19 -10 19 -5 0 -10 6 -10
13 0 12 -48 84 -80 119 -13 14 -45 22 -76 19 -18 -2 -50 -35 -49 -51 1 -8 -1
-19 -4 -25 -6 -12 -10 -29 -16 -70 -2 -16 -7 -48 -10 -70 -4 -22 -7 -50 -8
-62 0 -13 -4 -23 -8 -23 -4 0 -7 -12 -6 -27 0 -16 -3 -44 -7 -63 -4 -19 -9
-50 -11 -68 -3 -30 -43 -82 -64 -82 -4 0 -17 -9 -29 -20 -12 -12 -22 -17 -22
-13 0 4 -4 2 -9 -5 -4 -7 -17 -15 -27 -17 -10 -2 -20 -4 -21 -5 -2 -2 -6 -3
-10 -4 -5 -1 -12 -4 -18 -7 -21 -13 -112 -1 -158 20 -44 20 -147 111 -147 129
0 5 -8 17 -17 28 -33 36 -46 71 -38 101 5 15 8 31 7 36 -1 4 2 7 6 7 4 0 8 8
9 18 1 9 4 31 8 47 10 43 11 48 18 65 5 15 15 56 21 97 2 12 8 28 12 35 5 7 9
18 9 23 0 6 6 35 13 65 15 68 12 96 -16 125 -17 18 -31 22 -61 19 -66 -6 -161
-55 -218 -112 -18 -19 -33 -30 -33 -26 0 4 -11 -7 -25 -26 -14 -19 -32 -38
-40 -43 -9 -4 -13 -12 -10 -18 4 -5 1 -9 -4 -9 -6 0 -11 -7 -11 -15 0 -8 -4
-15 -10 -15 -5 0 -10 -5 -10 -11 0 -6 -10 -25 -22 -42 -13 -18 -21 -32 -19
-32 3 0 -1 -16 -9 -35 -18 -49 -21 -62 -23 -87 0 -13 -4 -23 -7 -23 -11 0 -14
-205 -4 -260 3 -19 6 -43 7 -52 1 -10 4 -18 7 -18 4 0 7 -7 8 -15 1 -8 3 -22
4 -30 1 -8 5 -15 10 -15 5 0 6 -4 3 -10 -3 -5 -2 -10 3 -10 5 0 15 -18 22 -40
7 -22 17 -40 22 -40 4 0 8 -6 8 -13 0 -7 9 -23 20 -35 12 -12 18 -22 14 -22
-3 0 29 -34 71 -75 43 -41 81 -75 85 -75 3 0 5 -39 3 -87 -1 -49 -3 -94 -3
-100 -1 -104 -2 -107 -45 -114 -22 -4 -43 -5 -47 -2 -5 2 -8 -1 -8 -6 0 -6 -6
-11 -13 -11 -8 0 -23 -8 -35 -17 -12 -10 -32 -27 -45 -38 -14 -11 -23 -23 -21
-27 3 -4 -5 -12 -16 -18 -11 -6 -20 -14 -20 -19 0 -5 -8 -26 -17 -47 -20 -46
-24 -62 -26 -91 0 -13 -3 -23 -6 -23 -4 0 -6 -16 -6 -35 0 -19 4 -35 9 -35 5
0 3 -7 -4 -15 -7 -9 -8 -15 -2 -15 6 0 9 -8 7 -17 -1 -10 1 -25 5 -33 4 -8 10
-26 11 -40 4 -28 15 -43 79 -109 25 -25 45 -51 45 -58 0 -6 -17 -29 -37 -52
-21 -22 -38 -44 -38 -50 0 -5 -4 -11 -8 -13 -11 -4 -47 -57 -85 -125 -28 -50
-33 -66 -30 -113 3 -65 6 -81 17 -98 10 -16 -1 -65 -14 -57 -5 3 -12 -1 -17
-8 -22 -37 -113 -59 -148 -35 -6 3 -27 9 -48 13 -20 4 -40 11 -43 16 -3 5 -10
7 -15 4 -5 -4 -9 -2 -9 3 0 9 -37 25 -52 23 -5 -1 -8 3 -8 8 0 5 -8 12 -19 16
-23 7 -81 61 -81 75 0 6 -7 10 -15 10 -8 0 -15 3 -15 8 0 4 -16 24 -35 44 -19
20 -35 41 -35 46 0 5 24 28 54 52 77 62 90 89 90 185 -1 83 -7 136 -19 154 -3
6 -1 11 6 11 10 0 10 3 1 12 -7 7 -12 20 -12 30 0 10 -5 18 -11 18 -5 0 -8 4
-4 10 3 5 -2 26 -11 47 -10 21 -16 41 -16 46 1 4 -3 7 -8 7 -6 0 -10 5 -10 11
0 6 -6 16 -12 23 -7 8 -20 23 -28 35 -8 11 -17 21 -21 21 -3 0 -22 15 -41 33
-19 17 -53 41 -74 52 -21 10 -47 26 -58 35 -10 8 -21 14 -25 14 -7 -2 -27 4
-56 16 -61 25 -195 62 -212 59 -4 -1 -10 0 -13 1 -9 3 -44 9 -85 14 -22 3 -50
8 -63 10 -13 3 -44 6 -68 7 -25 2 -47 6 -50 10 -3 5 -12 6 -22 3 -19 -5 26 16
113 55 33 14 62 29 63 34 2 4 7 5 12 2 5 -3 15 0 22 7 15 14 47 34 90 56 15 7
32 21 38 30 5 9 10 13 10 8 0 -4 9 2 20 15 10 13 19 21 20 17 0 -9 68 59 115
118 49 59 80 106 77 117 -1 4 3 7 10 7 6 0 8 3 5 7 -4 3 -3 11 2 17 8 10 29
70 35 99 2 7 6 19 10 28 4 9 6 20 5 25 -5 23 15 64 34 70 25 7 63 44 60 56 -2
5 1 8 6 8 5 0 12 14 16 30 4 17 11 30 17 30 6 0 9 3 5 6 -3 3 1 23 8 45 8 21
17 58 20 81 11 74 14 312 4 325 -7 7 -6 14 1 18 6 3 7 11 4 17 -4 5 -8 26 -10
46 -4 38 -10 81 -19 122 -5 26 -11 53 -20 104 -4 16 -9 34 -13 40 -3 6 -8 22
-10 36 -2 13 -8 27 -13 31 -6 3 -9 10 -8 15 2 5 -6 27 -18 49 -11 22 -21 43
-22 48 -3 23 -82 79 -114 82 -46 3 -63 15 -65 44 -1 16 -9 45 -17 65 -8 20
-15 37 -14 38 0 2 -2 10 -5 18 -30 95 -40 127 -42 139 -2 8 -9 18 -16 22 -7 5
-9 9 -5 9 5 0 2 12 -7 28 -8 15 -22 43 -31 62 -32 68 -46 90 -56 90 -6 0 -8 4
-5 9 7 11 -115 141 -133 141 -8 0 -12 3 -8 6 6 6 -45 54 -57 54 -3 0 -20 12
-37 28 -17 15 -35 26 -40 25 -5 -2 -9 0 -9 5 0 4 -16 16 -35 26 -19 11 -35 23
-35 28 0 4 -9 8 -19 8 -11 0 -21 3 -23 8 -2 6 -93 54 -108 58 -8 1 -56 22
-105 44 -48 22 -268 87 -323 96 -46 7 -107 21 -107 24 0 1 -20 3 -45 5 -25 2
-74 7 -110 11 -94 9 -361 9 -465 -1 -127 -11 -140 -13 -140 -15 0 -2 -22 -6
-75 -14 -19 -2 -48 -8 -65 -11 -16 -4 -39 -8 -51 -9 -11 -2 -25 -6 -31 -9 -5
-3 -24 -9 -41 -12 -17 -3 -44 -10 -59 -16 -15 -7 -41 -13 -57 -15 -17 -3 -32
-8 -35 -12 -4 -4 -14 -8 -24 -10 -9 -2 -46 -16 -81 -32 -35 -15 -67 -26 -70
-23 -3 4 -6 1 -6 -6 0 -7 -4 -9 -10 -6 -5 3 -10 2 -10 -4 0 -5 -13 -12 -30
-16 -16 -4 -30 -11 -30 -16 0 -5 -9 -9 -20 -9 -11 0 -20 -4 -20 -10 0 -5 -6
-10 -12 -10 -7 0 -44 -20 -83 -44 -38 -25 -73 -42 -77 -40 -5 3 -8 -1 -8 -9 0
-13 -47 -42 -62 -39 -5 1 -8 -5 -8 -13 0 -8 -4 -15 -9 -15 -5 0 -28 -16 -51
-35 -23 -19 -45 -35 -50 -35 -4 0 -11 16 -14 35 -4 19 -11 35 -16 35 -5 0 -7
7 -4 15 4 8 1 15 -5 15 -6 0 -10 3 -9 8 2 11 -13 45 -30 65 -8 9 -11 17 -7 17
4 0 -2 9 -14 19 -12 11 -21 23 -20 26 3 11 -93 122 -118 136 -12 6 -20 16 -17
21 3 4 1 8 -4 8 -8 0 -23 11 -69 50 -7 5 -16 10 -21 10 -4 0 -19 10 -32 23
-14 12 -27 21 -30 21 -8 -2 -55 20 -61 29 -3 5 -10 8 -15 8 -5 -1 -36 8 -69
18 -76 24 -160 44 -191 44 -13 0 -24 2 -24 6 0 9 -193 7 -207 -2 -7 -5 -13 -4
-13 1 0 11 -67 10 -106 -2z m-24 -490 c7 -9 22 -16 35 -16 12 0 25 -3 29 -7 6
-7 24 -11 59 -15 9 -1 17 -5 17 -8 0 -4 7 -7 15 -7 13 0 76 -17 115 -31 8 -3
17 -6 20 -7 3 -1 19 -8 35 -15 17 -7 32 -14 35 -14 10 -3 65 -41 80 -57 9 -8
25 -22 36 -30 25 -17 55 -101 44 -120 -5 -7 -5 -18 -1 -24 14 -17 3 -123 -18
-178 -6 -14 -7 -28 -4 -31 4 -3 0 -6 -7 -6 -7 0 -11 -3 -7 -6 7 -7 -50 -103
-77 -126 -10 -10 -16 -18 -12 -18 18 0 -119 -109 -144 -116 -3 0 -23 -9 -45
-19 -52 -23 -95 -30 -175 -29 -87 2 -131 7 -136 16 -3 4 -14 8 -25 8 -10 0
-19 5 -19 11 0 5 -4 8 -9 4 -5 -3 -16 1 -24 9 -8 8 -17 12 -21 9 -3 -3 -8 2
-12 11 -3 9 -12 16 -19 16 -15 0 -95 89 -95 106 0 7 -5 14 -11 16 -6 2 -13 15
-15 28 -1 14 -5 35 -8 48 -3 12 -1 22 4 22 5 0 6 9 1 22 -9 25 12 123 39 183
23 51 85 141 116 170 13 12 24 27 24 34 0 6 4 11 8 11 5 0 26 18 48 41 73 77
72 75 76 124 2 18 6 22 18 15 9 -5 22 -16 30 -24z m1149 -4429 c5 -12 10 -20
12 -17 7 8 46 -24 47 -40 10 -102 18 -155 27 -170 6 -10 1 -11 -21 -5 -16 4
-33 8 -39 9 -13 3 -58 27 -65 35 -3 3 -22 17 -42 31 -21 14 -38 31 -38 38 0 6
-9 21 -20 32 -18 18 -42 84 -25 68 5 -4 14 -3 22 3 7 7 32 22 56 34 47 26 72
20 86 -18z m1904 -1526 c-4 -3 -8 -26 -7 -51 1 -25 -2 -50 -7 -55 -4 -6 -4
-17 0 -24 5 -8 5 -26 1 -41 -5 -18 -4 -32 3 -39 8 -8 8 -11 0 -11 -6 0 -10
-11 -9 -25 0 -14 4 -25 8 -25 4 0 5 -6 2 -14 -3 -7 9 -25 27 -40 43 -36 94
-33 128 7 26 31 31 63 34 234 2 112 8 122 51 81 13 -13 34 -32 47 -42 39 -32
99 -86 95 -86 -3 0 13 -18 35 -41 21 -22 37 -45 33 -50 -3 -5 -1 -9 5 -9 6 0
15 -10 22 -21 8 -17 8 -23 -2 -30 -7 -4 -17 -5 -21 -3 -4 3 -8 0 -8 -6 0 -6
-6 -10 -12 -9 -21 2 -58 -12 -58 -23 0 -5 -4 -7 -8 -4 -5 3 -16 -4 -25 -15 -9
-10 -14 -19 -11 -19 4 0 2 -6 -3 -12 -6 -7 -9 -34 -8 -61 2 -47 2 -47 -54 -87
-31 -22 -52 -40 -48 -40 5 0 2 -7 -5 -15 -26 -29 -33 -40 -36 -60 -6 -38 -8
-300 -3 -310 10 -18 9 -35 0 -35 -6 0 -7 -5 -3 -12 4 -6 8 -34 10 -62 1 -28 3
-51 4 -51 1 0 3 -36 4 -80 2 -63 -1 -83 -13 -93 -13 -11 -13 -12 -1 -7 8 4 6
-1 -5 -10 -11 -9 -19 -21 -18 -26 2 -5 -1 -9 -5 -9 -8 0 -19 -37 -40 -135 -2
-11 -5 -31 -5 -45 -1 -14 -6 -30 -11 -35 -14 -13 -66 -16 -66 -4 0 4 -9 5 -20
1 -11 -4 -49 -5 -85 -2 -36 3 -65 2 -65 -2 0 -4 -11 -4 -23 1 -13 5 -30 5 -37
1 -8 -5 -19 -6 -25 -2 -15 10 -28 9 -42 -1 -7 -5 -13 -6 -13 -1 0 12 -73 11
-82 -1 -5 -7 -8 -7 -8 0 0 11 -140 12 -158 1 -7 -4 -12 -3 -12 3 0 6 -6 8 -12
6 -7 -3 -88 -7 -180 -8 -181 -4 -178 -5 -178 51 0 15 -9 46 -20 69 -19 43 -23
83 -7 83 4 0 6 4 3 8 -3 5 1 19 7 33 7 13 12 34 11 47 -1 12 3 22 8 22 6 0 8
6 5 14 -3 8 -3 17 1 21 4 4 8 11 8 16 1 5 3 11 4 14 4 8 6 18 14 68 5 26 11
47 15 47 4 0 7 10 8 23 1 12 4 33 8 47 4 14 8 39 10 55 2 17 4 32 5 35 1 3 2
9 1 14 -1 4 2 13 7 20 19 24 1 148 -26 179 -8 9 -12 17 -7 17 4 0 -7 13 -25
28 -22 19 -31 36 -30 53 5 60 0 89 -17 89 -9 0 -13 3 -10 7 4 3 -8 16 -26 29
-31 20 -46 54 -25 54 4 0 8 4 8 10 0 8 56 96 70 110 3 3 31 38 63 77 32 40 82
98 111 128 29 30 50 57 48 60 -6 6 3 7 69 9 28 0 53 -2 56 -7 2 -4 8 -5 13 -2
5 3 70 7 145 9 74 1 138 5 141 9 4 3 15 2 25 -4 11 -5 19 -6 19 -1 0 4 15 8
33 9 71 1 168 11 173 16 3 3 13 3 21 0 8 -3 11 -9 6 -12z"/>
</g>
</svg>
