<svg viewBox="0 0 512 512" xmlns="http://www.w3.org/2000/svg"><path d="m72 24v464h368v-368l-96-96z" fill="#e9eef2"/><path d="m344 120h96l-96-96z" fill="#dadcde"/><g fill="#c3c6c7"><path d="m256 192a8 8 0 0 1 -8-8v-64a8 8 0 0 1 16 0v64a8 8 0 0 1 -8 8z"/><path d="m255.992 264a7.963 7.963 0 0 1 -4.232-1.217l-128-80a8 8 0 0 1 8.48-13.568l128 80a8 8 0 0 1 -4.248 14.785z"/><path d="m256.008 264a8 8 0 0 1 -4.248-14.785l128-80a8 8 0 1 1 8.48 13.568l-128 80a7.961 7.961 0 0 1 -4.232 1.217z"/><path d="m368.005 408a7.985 7.985 0 0 1 -6.32-3.089l-112-144a8 8 0 0 1 12.63-9.824l112 144a8 8 0 0 1 -6.31 12.913z"/><path d="m328 416h-48a8 8 0 0 1 0-16h48a8 8 0 0 1 0 16z"/></g><path d="m328 272v-32h-18.332a55.694 55.694 0 0 0 -3.935-9.733l14.267-14.267-24-24-14.267 14.267a55.662 55.662 0 0 0 -9.733-3.935v-18.332h-32v18.332a55.662 55.662 0 0 0 -9.733 3.935l-14.267-14.267-24 24 14.267 14.267a55.694 55.694 0 0 0 -3.935 9.733h-18.332v32h18.332a55.662 55.662 0 0 0 3.935 9.733l-14.267 14.267 24 24 14.267-14.267a55.662 55.662 0 0 0 9.733 3.935v18.332h32v-18.332a55.662 55.662 0 0 0 9.733-3.935l14.267 14.267 24-24-14.267-14.267a55.662 55.662 0 0 0 3.935-9.733z" fill="#3397e8"/><circle cx="256" cy="256" fill="#e9eef2" r="24"/><path d="m360 152h48v48h-48z" fill="#ffd33a"/><circle cx="368" cy="400" fill="#3dc285" r="40"/><path d="m200 408h-96a8 8 0 0 1 0-16h96a8 8 0 0 1 0 16z" fill="#dadcde"/><path d="m200 440h-96a8 8 0 0 1 0-16h96a8 8 0 0 1 0 16z" fill="#dadcde"/><path d="m120 376h-16a8 8 0 0 1 0-16h16a8 8 0 0 1 0 16z" fill="#dadcde"/><path d="m200 376h-48a8 8 0 0 1 0-16h48a8 8 0 0 1 0 16z" fill="#dadcde"/><path d="m128 288a8 8 0 0 1 -8-8v-88a8 8 0 0 1 16 0v88a8 8 0 0 1 -8 8z" fill="#c3c6c7"/><path d="m184 112h-80a8 8 0 0 1 0-16h80a8 8 0 0 1 0 16z" fill="#dadcde"/><path d="m120 80h-16a8 8 0 0 1 0-16h16a8 8 0 0 1 0 16z" fill="#dadcde"/><path d="m184 80h-32a8 8 0 0 1 0-16h32a8 8 0 0 1 0 16z" fill="#dadcde"/><path d="m216 72h80v48h-80z" fill="#3dc285"/><path d="m232 384h48v48h-48z" fill="#35a872"/><path d="m104 280h48v48h-48z" fill="#c7312e"/><circle cx="128" cy="176" fill="#eb423f" r="24"/></svg>