<?xml version="1.0" standalone="no"?>
<!DOCTYPE svg PUBLIC "-//W3C//DTD SVG 20010904//EN"
 "http://www.w3.org/TR/2001/REC-SVG-20010904/DTD/svg10.dtd">
<svg version="1.0" xmlns="http://www.w3.org/2000/svg"
 width="760.000000pt" height="904.000000pt" viewBox="0 0 760.000000 904.000000"
 preserveAspectRatio="xMidYMid meet">

<g transform="translate(0.000000,904.000000) scale(0.100000,-0.100000)"
fill="#000000" stroke="none">
<path d="M1051 9010 c-24 -5 -52 -17 -61 -25 -27 -25 -40 -93 -40 -211 l0
-108 -29 45 c-84 131 -148 122 -344 -46 -212 -183 -367 -465 -408 -745 -16
-113 -7 -294 21 -390 99 -346 392 -581 786 -629 78 -10 221 -4 308 12 7 1 13
-38 18 -103 20 -283 116 -568 236 -702 74 -82 140 -102 250 -76 l50 11 59 -50
c59 -52 144 -108 198 -132 133 -60 277 -102 442 -131 57 -10 107 -20 110 -23
3 -3 -15 -11 -38 -17 -116 -30 -295 -96 -394 -144 -185 -91 -323 -213 -387
-343 -29 -60 -33 -78 -36 -170 -3 -57 -1 -133 3 -169 8 -80 38 -118 128 -163
l59 -29 -24 -17 c-12 -9 -87 -59 -165 -110 -79 -52 -178 -120 -220 -153 -43
-32 -127 -91 -188 -131 -60 -41 -121 -84 -136 -97 -14 -13 -35 -24 -47 -24
-35 0 -83 -24 -130 -65 -68 -59 -77 -83 -77 -210 0 -103 2 -114 32 -177 111
-235 387 -451 643 -503 l55 -11 7 -44 c16 -92 135 -288 206 -339 16 -11 47
-23 68 -27 55 -8 219 22 281 52 69 33 138 103 155 156 8 24 22 44 31 46 9 2
32 -19 58 -54 64 -88 107 -132 164 -169 92 -62 91 -59 32 -146 -29 -42 -72
-112 -97 -157 -37 -68 -49 -81 -70 -82 -84 -1 -171 -64 -199 -145 -49 -142
-49 -142 -88 -150 -54 -10 -108 -40 -132 -73 -39 -55 -141 -347 -206 -588
l-38 -142 -41 -12 c-69 -21 -132 -57 -208 -121 -40 -34 -89 -72 -109 -84 -51
-33 -120 -113 -152 -178 -23 -48 -32 -57 -60 -61 -17 -3 -68 -10 -112 -16
-348 -50 -641 -137 -718 -215 -40 -41 -37 -84 10 -126 349 -306 2857 -466
4846 -308 858 67 1441 184 1570 314 77 78 -4 160 -233 233 -85 27 -265 70
-361 86 -34 6 -37 9 -53 68 -25 91 -61 161 -112 217 -56 62 -97 88 -154 97
-29 5 -71 24 -115 54 -119 80 -237 133 -346 154 l-26 6 -7 156 c-14 305 -39
444 -87 477 -14 11 -20 36 -29 128 -14 143 -32 210 -70 253 -31 34 -88 56
-148 56 -27 0 -38 11 -103 107 -39 60 -83 121 -96 136 l-23 29 67 75 c77 86
113 117 124 106 4 -4 12 -75 19 -157 6 -82 16 -158 21 -168 21 -38 92 -37 121
3 19 26 19 29 3 184 -17 152 -16 159 1 172 35 26 33 29 64 -140 14 -75 29
-126 42 -142 40 -52 118 -17 118 52 0 18 -9 73 -19 121 -10 48 -22 108 -25
133 -6 44 -5 48 23 68 16 12 33 21 38 21 4 0 20 10 35 23 25 19 29 32 38 112
5 50 10 183 10 297 0 206 0 207 -25 236 -20 24 -25 41 -25 85 0 76 -19 299
-31 371 -6 32 -8 60 -6 62 2 2 33 -9 68 -25 35 -16 105 -43 155 -60 151 -52
289 -41 427 31 l57 31 64 -21 c96 -32 256 -62 341 -65 98 -3 109 8 134 129 10
49 29 112 43 139 30 60 143 356 153 402 6 28 13 34 59 47 60 18 124 61 155
104 62 88 67 207 11 267 -16 18 -17 26 -8 68 14 59 -1 134 -36 180 -18 23 -22
37 -16 47 18 28 11 113 -11 150 -63 105 -125 152 -222 168 -23 4 -42 13 -41
20 1 6 2 32 3 57 1 36 8 53 35 82 18 21 38 48 44 60 7 13 32 28 63 38 64 22
185 102 234 156 62 69 114 158 140 241 21 68 25 98 25 211 0 156 -19 238 -82
359 -46 88 -95 138 -137 138 -52 0 -60 -23 -102 -267 -21 -125 -39 -230 -39
-233 0 -12 -132 -92 -176 -107 -119 -40 -248 24 -345 174 l-43 66 64 253 65
253 -21 28 c-78 104 -339 -61 -454 -287 -43 -85 -61 -156 -67 -271 -4 -80 -2
-124 12 -185 31 -145 132 -309 240 -394 l45 -35 -1 -80 c-1 -44 -4 -109 -8
-144 l-6 -65 -50 -11 c-71 -16 -107 -37 -154 -91 -61 -70 -85 -139 -85 -254
-1 -88 1 -100 32 -162 20 -42 47 -79 72 -98 22 -18 40 -36 40 -42 0 -6 -20
-35 -45 -64 -25 -29 -70 -92 -100 -140 -49 -78 -55 -93 -55 -141 0 -30 5 -75
12 -100 l11 -47 -43 -38 c-49 -44 -82 -48 -171 -22 -103 30 -189 83 -267 163
-41 42 -77 83 -82 91 -6 12 5 26 46 58 80 62 94 90 94 189 0 185 -56 341 -156
433 -72 65 -227 141 -354 174 -107 27 -289 56 -355 56 -24 0 -46 4 -49 8 -3 5
34 26 82 47 253 112 428 260 508 430 32 68 64 171 64 207 0 10 13 24 29 32 74
39 123 158 141 345 21 207 -23 509 -102 698 -33 82 -91 142 -136 144 -52 2
-57 4 -64 29 -131 413 -185 516 -345 652 -260 221 -627 367 -1031 409 -145 15
-502 6 -637 -15 -144 -23 -329 -70 -442 -112 -199 -73 -425 -199 -561 -313
-53 -45 -63 -49 -68 -34 -64 185 -180 341 -330 444 -71 49 -200 105 -299 130
-72 18 -123 23 -260 25 -93 2 -190 -1 -214 -6z m416 -79 c126 -26 224 -71 328
-148 195 -147 289 -331 301 -588 5 -100 2 -138 -15 -224 -70 -335 -230 -575
-507 -757 -249 -164 -555 -219 -823 -149 -229 59 -420 257 -493 511 -19 64
-23 102 -22 204 1 287 121 567 334 780 88 89 203 173 228 168 8 -2 24 -15 35
-30 l20 -27 -79 -83 c-123 -129 -180 -227 -219 -373 -56 -218 53 -466 256
-582 216 -123 475 -85 660 97 115 113 188 300 176 451 -22 274 -233 467 -543
496 -50 5 -67 10 -75 26 -14 25 -8 212 7 227 32 32 274 33 431 1z m2543 -129
c127 -24 210 -45 313 -79 78 -25 79 -25 124 -97 26 -39 61 -103 79 -142 25
-56 38 -73 59 -78 14 -4 30 -4 35 -1 11 7 -31 85 -97 184 -23 36 -41 67 -39
69 7 7 144 -67 232 -126 94 -64 216 -179 266 -253 103 -150 234 -598 283 -964
23 -172 31 -457 16 -536 -17 -83 -56 -181 -99 -247 -73 -111 -287 -246 -517
-325 -111 -38 -212 -63 -221 -55 -3 4 3 23 14 45 48 97 98 357 73 386 -8 11
-45 9 -193 -9 -194 -24 -563 -67 -971 -114 -137 -16 -251 -31 -253 -33 -3 -3
-7 -69 -9 -148 -1 -79 -6 -171 -11 -203 l-7 -59 -132 6 c-226 11 -441 64 -581
142 -88 49 -187 144 -235 226 -85 142 -164 427 -214 767 l-16 113 53 72 c58
77 115 171 137 225 17 42 31 41 31 -3 0 -32 2 -35 29 -35 17 0 32 -4 36 -9 5
-9 -26 -24 -50 -26 -5 0 -10 -4 -10 -10 1 -46 20 -189 36 -273 48 -251 127
-375 287 -454 54 -27 77 -32 160 -36 83 -3 130 2 322 37 325 59 447 77 700
105 353 39 510 48 875 47 375 0 403 3 488 60 53 35 114 117 143 194 15 39 19
74 18 162 -2 142 -9 179 -34 186 -26 7 -26 23 0 30 23 6 22 10 -21 227 -47
240 -77 309 -171 396 -88 81 -229 131 -448 159 -276 35 -530 43 -815 25 -655
-43 -1199 -189 -1406 -378 l-66 -61 -1 137 c-1 91 -6 157 -17 197 l-16 60 65
62 c67 64 201 163 220 163 17 0 20 -278 4 -298 -11 -13 -9 -15 22 -8 19 3 38
10 41 14 4 4 3 72 -4 153 -6 80 -8 153 -4 162 3 9 38 32 76 52 203 102 457
173 751 211 153 19 531 11 670 -14z m-2839 -178 c97 -18 219 -74 255 -117 34
-41 30 -50 -13 -29 -44 22 -134 52 -251 83 -83 22 -112 38 -112 65 0 18 18 18
121 -2z m-147 -83 c12 -11 84 -38 166 -61 161 -46 254 -90 317 -150 50 -49 69
-117 59 -221 -17 -183 -123 -337 -291 -420 -74 -37 -94 -42 -172 -46 -95 -6
-168 9 -246 49 -48 24 -120 89 -146 132 -50 80 -46 216 8 332 37 79 68 120
178 237 67 71 84 96 89 127 7 46 10 47 38 21z m3511 -476 c203 -53 357 -261
358 -485 1 -236 -175 -402 -381 -360 -271 56 -449 384 -351 646 38 100 139
187 236 204 71 11 74 11 138 -5z m-1574 -165 c240 -91 355 -386 244 -627 -35
-76 -122 -164 -198 -199 -55 -26 -73 -29 -162 -29 -93 0 -105 2 -166 32 -87
43 -160 121 -207 221 -36 75 -37 79 -37 197 0 118 1 121 37 197 94 197 295
282 489 208z m3594 -530 c4 -6 2 -17 -4 -24 -24 -29 -121 -381 -121 -438 0
-35 60 -144 118 -216 100 -125 262 -170 397 -112 49 21 153 89 173 113 12 14
45 188 73 385 6 45 15 85 20 88 15 9 59 -47 94 -121 52 -106 69 -184 69 -310
1 -95 -3 -122 -28 -199 -49 -148 -133 -250 -266 -324 -86 -48 -161 -65 -275
-64 -291 3 -538 181 -632 455 -24 72 -27 96 -27 197 1 142 30 240 103 352 56
86 112 137 208 190 72 40 88 44 98 28z m-4645 -391 c38 -219 69 -349 110 -459
47 -128 48 -120 -14 -162 -30 -21 -56 -38 -59 -38 -2 0 -5 44 -6 98 -3 181
-40 418 -98 629 l-36 132 29 25 29 24 7 -36 c4 -20 21 -116 38 -213z m2428
-460 c6 -30 -45 -76 -96 -88 -26 -6 -218 -31 -427 -56 -614 -74 -564 -70 -593
-48 -14 10 -32 29 -40 41 -13 20 -12 22 9 31 27 12 203 34 714 91 198 22 367
42 375 44 29 8 55 1 58 -15z m2090 -679 c60 -37 113 -145 99 -202 -4 -13 -29
-49 -57 -80 -27 -31 -50 -60 -50 -65 0 -5 27 -35 61 -68 55 -55 60 -63 55 -94
-19 -125 -174 -99 -314 53 -121 131 -80 388 73 457 52 24 92 24 133 -1z
m-1553 -35 c254 -28 460 -102 559 -201 88 -89 132 -223 124 -379 -4 -81 -15
-100 -87 -149 -33 -22 -41 -24 -91 -16 -30 5 -135 14 -234 20 -647 37 -1413
-28 -2666 -229 -255 -41 -320 -56 -391 -87 l-62 -28 -66 35 c-94 49 -103 69
-99 229 3 114 6 130 31 182 94 192 333 334 722 429 170 41 494 94 527 86 43
-11 80 -49 158 -162 123 -178 239 -265 380 -284 129 -17 694 32 774 68 117 51
158 226 87 376 -15 33 -42 74 -59 92 l-32 32 27 3 c56 6 271 -3 398 -17z
m2093 -20 c46 -20 77 -48 113 -104 33 -50 36 -77 14 -108 -13 -19 -19 -20 -52
-11 -44 12 -125 3 -208 -23 -72 -23 -97 -23 -134 -5 -32 17 -51 54 -51 99 0
109 196 202 318 152z m-2588 -163 c42 -22 70 -47 70 -63 0 -13 -91 -28 -285
-49 -304 -32 -399 -40 -586 -47 l-175 -6 -24 32 c-42 59 -25 64 340 107 124
14 277 32 340 39 168 20 264 15 320 -13z m2779 -408 c27 -22 31 -32 31 -72 -1
-63 -31 -127 -72 -152 -27 -16 -50 -20 -135 -20 -95 0 -104 2 -132 26 -27 23
-31 32 -31 78 0 65 19 88 104 126 68 31 91 37 158 39 37 1 53 -4 77 -25z
m-894 -81 c22 -91 154 -222 288 -288 109 -53 188 -75 274 -75 35 0 63 -4 63
-8 0 -5 -15 -51 -34 -103 -19 -52 -40 -114 -48 -138 -21 -66 -51 -84 -151 -89
-100 -5 -166 11 -279 70 -139 72 -247 217 -279 375 l-13 61 50 82 c57 95 102
152 114 145 4 -3 11 -17 15 -32z m-972 -130 c8 -10 27 -40 42 -68 l26 -50 -30
-9 c-25 -7 -31 -14 -30 -35 1 -17 3 -20 6 -8 6 23 50 22 62 -2 31 -57 102
-423 130 -671 6 -52 14 -112 16 -132 4 -29 2 -38 -9 -38 -8 0 -28 17 -45 38
l-31 37 11 -33 c6 -18 27 -44 45 -59 l35 -26 -3 -81 c-3 -76 -4 -81 -26 -84
-17 -3 -34 8 -62 39 -37 39 -42 41 -81 35 -22 -4 -93 -24 -157 -45 -65 -22
-118 -39 -118 -38 -1 1 -10 79 -20 172 -22 212 -23 293 -4 306 9 6 77 7 173 3
109 -5 157 -4 157 4 0 12 -53 18 -220 27 -63 4 -115 7 -116 8 -1 1 -7 80 -13
174 -14 219 -24 264 -64 305 -74 74 -201 93 -537 83 -534 -16 -905 -65 -1043
-138 -84 -44 -107 -75 -107 -146 0 -56 42 -321 60 -373 8 -24 6 -28 -13 -32
-68 -14 -401 -65 -404 -62 -2 1 -10 50 -18 107 -26 186 -63 377 -79 407 -36
70 -111 91 -205 57 -38 -13 -42 -13 -47 3 -3 9 -13 38 -24 64 -22 57 -33 51
140 72 310 38 655 69 1295 116 77 5 291 24 475 40 494 44 532 47 681 49 118 1
138 -1 152 -16z m-398 -228 c67 -34 88 -64 83 -123 l-3 -37 -22 40 c-17 32
-36 48 -95 78 -71 36 -79 38 -206 44 -73 3 -132 9 -132 13 0 19 27 22 165 18
143 -3 153 -4 210 -33z m-2120 -138 c36 -36 40 -51 79 -281 28 -162 56 -390
56 -457 0 -79 -30 -103 -162 -129 -57 -11 -79 -30 -35 -30 47 1 161 30 180 47
47 43 56 99 37 217 -5 33 -8 61 -6 63 5 5 244 47 357 63 82 11 87 11 141 -13
31 -14 63 -36 72 -49 16 -25 52 -252 62 -396 l7 -92 -29 0 c-27 0 -31 5 -42
44 -10 40 -16 46 -49 55 -21 6 -98 16 -171 23 -148 13 -161 10 -176 -41 -10
-36 -26 -41 -26 -8 0 13 -6 32 -14 43 -13 17 -26 19 -136 17 -195 -4 -280 -26
-280 -75 0 -23 4 -23 -90 13 l-79 30 -16 55 c-15 50 -40 79 -87 96 -9 4 -39
180 -32 187 3 3 14 -6 25 -21 22 -30 79 -68 102 -68 26 0 77 50 103 101 37 75
54 162 54 289 0 105 -5 154 -25 277 l-7 42 48 15 c77 23 102 20 139 -17z
m1995 -53 c4 -5 11 -65 15 -134 5 -97 3 -129 -7 -141 -11 -14 -58 -18 -333
-28 -176 -6 -396 -18 -488 -27 -92 -9 -174 -13 -181 -11 -16 6 -62 286 -49
297 10 8 300 40 468 51 152 9 564 4 575 -7z m-2568 -488 c46 -42 46 -43 57
-132 6 -49 11 -94 11 -101 0 -16 -80 16 -134 54 -50 36 -117 120 -113 143 2
12 110 80 127 79 3 0 26 -19 52 -43z m-322 -23 c46 -18 63 -35 127 -122 31
-41 67 -84 81 -96 23 -20 27 -32 30 -99 12 -222 -155 -458 -350 -497 -71 -14
-145 4 -270 66 -120 60 -201 119 -285 208 -94 101 -146 204 -151 298 -6 96 4
134 44 178 51 57 70 58 93 6 21 -48 56 -71 150 -99 79 -23 207 -21 275 4 54
21 136 94 136 123 0 7 7 23 16 35 16 24 35 23 104 -5z m3538 -310 c28 -45 58
-121 50 -127 -10 -10 -236 -86 -253 -86 -15 0 -27 12 -39 38 -10 20 -31 59
-48 85 -18 28 -27 52 -22 57 14 13 225 79 255 79 21 1 33 -9 57 -46z m-2408
-107 c0 -7 -4 -26 -10 -42 -5 -16 -14 -47 -19 -70 l-11 -41 -137 -6 c-75 -4
-141 -11 -145 -15 -5 -5 -2 -15 7 -22 37 -31 272 -23 305 10 17 17 18 16 24
-34 8 -66 10 -575 3 -583 -4 -3 -82 3 -174 13 l-168 19 -8 310 c-8 305 -2 424
23 449 14 14 87 23 208 25 80 1 102 -2 102 -13z m271 -1 c63 -8 125 -17 139
-20 l25 -5 0 -400 0 -400 -105 1 c-58 1 -134 4 -170 8 l-65 6 -8 50 c-4 28 -8
158 -8 290 -1 209 2 254 21 344 21 105 34 141 48 141 5 0 60 -7 123 -15z
m1394 -72 c28 -30 65 -95 65 -114 0 -7 -13 -1 -28 14 -15 15 -31 27 -35 27
-14 0 -6 -28 13 -45 24 -21 26 -35 6 -35 -8 0 -34 20 -57 45 l-42 45 -91 -1
c-162 -1 -175 -5 -219 -71 -20 -32 -42 -58 -47 -58 -18 0 -21 22 -5 40 9 10
15 27 13 37 -3 15 -10 11 -40 -22 -21 -21 -39 -37 -42 -34 -3 2 7 29 21 59 14
30 31 65 36 77 19 42 107 60 304 62 121 1 122 1 148 -26z m795 -307 c-6 -98
-15 -186 -20 -195 -4 -9 -32 -23 -60 -30 -61 -16 -77 -9 -20 8 55 16 53 35 -4
28 -100 -14 -197 -66 -111 -60 26 2 27 1 9 -7 -12 -4 -42 -11 -66 -15 l-45 -7
13 64 c9 39 14 134 14 253 l0 190 38 2 c37 1 218 65 237 84 19 19 26 -132 15
-315z m-639 177 c19 -59 -22 -123 -79 -123 -13 0 -37 14 -55 32 l-32 32 39 7
c51 8 77 39 69 80 -6 29 -5 29 20 18 16 -7 31 -26 38 -46z m-686 10 c-16 -40
-16 -52 4 -72 15 -15 28 -19 55 -14 45 7 47 -8 7 -48 -50 -49 -121 -37 -147
27 -12 29 -12 39 0 68 15 36 39 55 70 56 13 0 16 -4 11 -17z m-2079 -375 c11
-37 94 -201 112 -221 8 -9 12 -20 8 -24 -4 -4 -49 -9 -101 -11 l-95 -4 -31 35
c-17 19 -51 62 -75 94 l-44 58 95 5 c71 4 99 9 112 22 25 25 10 32 -41 19 -58
-14 -137 -14 -173 1 -26 11 -21 12 57 20 47 4 96 12 110 17 41 15 58 12 66
-11z m240 -31 c25 -22 26 -26 15 -59 -10 -32 -43 -58 -71 -58 -18 0 -50 40
-50 61 0 21 50 79 69 79 5 0 22 -10 37 -23z m3162 -154 c31 -133 33 -178 8
-178 -30 0 -43 30 -23 53 16 18 16 20 -8 42 -26 24 -33 54 -15 65 15 9 12 45
-4 45 -17 0 -21 5 -30 43 -6 25 -4 27 22 27 27 0 28 -3 50 -97z m-203 -55 c13
-193 12 -212 -8 -216 -25 -5 -33 26 -14 58 16 26 16 28 -3 33 -17 4 -20 13
-19 49 0 23 -3 72 -7 107 -5 49 -3 65 7 72 32 20 37 9 44 -103z m-587 58 c-2
-15 -13 -22 -38 -27 -19 -3 -45 -9 -57 -13 -21 -7 -23 -4 -23 27 0 34 2 35 48
44 53 11 75 1 70 -31z m-418 -21 c0 -38 -1 -39 -74 -29 -39 6 -46 10 -46 29 0
31 7 35 67 35 l53 0 0 -35z m428 -170 c11 -71 23 -152 26 -180 4 -27 14 -80
23 -117 13 -53 14 -72 5 -93 -17 -37 -41 -43 -65 -14 -15 19 -18 33 -13 68 5
34 2 49 -11 63 -11 13 -16 34 -14 73 1 33 -4 64 -13 77 -14 24 -36 152 -36
216 0 32 4 40 28 48 19 8 30 8 38 0 7 -6 21 -69 32 -141z m-450 -17 c-3 -73
-10 -145 -16 -159 -8 -19 -8 -37 0 -62 9 -29 8 -40 -5 -61 -13 -20 -14 -30 -5
-56 14 -42 -2 -80 -35 -80 -13 0 -28 5 -35 12 -15 15 -15 61 0 76 9 9 9 20 0
47 -11 28 -10 39 2 63 11 22 13 38 6 61 -5 18 -5 82 0 153 5 68 10 126 10 131
0 4 19 7 41 7 l42 0 -5 -132z m157 -192 c101 -93 180 -189 172 -209 -2 -7 -25
-18 -50 -24 -24 -7 -59 -24 -76 -39 -29 -24 -31 -31 -31 -89 l0 -63 -43 -25
c-24 -14 -57 -45 -73 -68 -28 -41 -29 -47 -33 -178 -2 -75 2 -216 9 -313 l12
-177 -31 -50 c-29 -44 -43 -93 -65 -224 l-7 -37 -501 2 -502 3 -11 60 c-7 33
-17 72 -24 86 -11 22 -7 45 28 173 54 196 91 374 91 436 0 61 -17 104 -59 152
-25 29 -31 44 -31 83 0 37 -5 52 -27 74 -16 15 -37 32 -48 39 -20 11 -20 11 3
54 38 73 139 202 255 327 l51 54 220 3 c122 2 274 10 339 17 65 7 121 9 124 4
2 -4 1 -72 -2 -150 -7 -143 -7 -143 18 -172 20 -24 33 -30 65 -30 80 0 102 48
102 220 0 113 6 158 21 153 4 -2 51 -43 104 -92z m887 -114 c20 -16 38 -73 38
-112 -1 -20 -6 -15 -25 26 -27 55 -51 71 -121 81 -52 7 -58 20 -11 26 47 6
100 -3 119 -21z m-2718 -78 c25 -10 19 -23 -19 -38 -19 -8 -57 -36 -85 -62
-32 -30 -50 -41 -50 -31 0 18 36 106 52 124 11 13 74 18 102 7z m-281 -326
c-14 -96 -9 -144 22 -184 63 -82 204 -144 334 -147 99 -2 135 9 196 58 l55 45
82 0 c98 0 141 20 164 75 8 19 16 35 18 35 13 0 46 -73 46 -101 0 -53 -30 -90
-103 -129 -73 -39 -78 -45 -101 -145 -86 -382 -87 -383 -115 -394 -14 -6 -41
-15 -59 -21 -33 -9 -34 -8 -70 51 -91 149 -93 150 -162 176 -89 34 -388 129
-426 136 -24 5 -50 -3 -103 -28 -39 -19 -71 -31 -71 -28 0 3 14 56 31 117 122
437 167 532 252 535 16 1 17 -5 10 -51z m2142 -8 c3 -10 23 -29 43 -42 34 -21
49 -23 180 -24 l143 -1 42 -40 c50 -49 85 -67 155 -82 76 -16 131 -14 203 9
90 27 152 70 184 125 15 25 31 43 36 38 18 -19 49 -443 33 -443 -6 0 -15 5
-22 12 -9 9 -25 8 -69 -1 -78 -18 -356 -98 -388 -113 -14 -6 -57 -52 -97 -102
-90 -114 -91 -116 -131 -106 -52 13 -101 32 -113 44 -6 6 -21 94 -33 196 -34
294 -34 293 -134 330 -31 12 -55 25 -52 30 3 5 -6 8 -21 7 -19 -1 -27 3 -30
17 -1 10 -7 23 -13 29 -22 22 -12 70 21 104 36 38 54 41 63 13z m40 -320 c-5
-8 -11 -8 -17 -2 -6 6 -7 16 -3 22 5 8 11 8 17 2 6 -6 7 -16 3 -22z m1166
-339 c59 -20 176 -78 223 -110 l30 -20 -28 -10 c-38 -15 -83 -14 -93 2 -12 21
-124 100 -171 121 -41 19 -55 36 -29 36 8 0 38 -8 68 -19z m-3771 -112 c-96
-76 -194 -140 -213 -137 -45 6 170 158 223 157 10 0 7 -6 -10 -20z m4181 -97
c115 -74 151 -146 190 -378 26 -160 21 -214 -8 -69 -11 61 -31 136 -43 168
-30 79 -111 198 -170 249 -71 61 -50 81 31 30z m-4384 -106 c4 -3 -11 -23 -32
-43 -43 -44 -78 -95 -117 -174 -59 -119 -74 -166 -112 -332 -5 -22 -12 -28
-29 -25 -20 3 -22 8 -19 66 6 130 76 333 148 431 61 82 76 93 117 88 21 -3 41
-8 44 -11z"/>
<path d="M427 8303 c-8 -10 -18 -30 -22 -45 -5 -21 -2 -30 19 -43 28 -19 55
-14 81 15 21 23 23 69 4 81 -23 14 -65 10 -82 -8z"/>
<path d="M4355 7997 c-99 -48 -145 -128 -152 -267 -8 -138 38 -245 147 -343
61 -55 122 -77 209 -77 82 0 133 22 184 80 45 49 65 92 77 167 26 155 -82 359
-227 429 -79 39 -172 43 -238 11z m215 -37 c50 -26 90 -66 90 -90 0 -32 -20
-62 -36 -56 -8 3 -14 2 -14 -3 0 -5 -12 -20 -26 -35 -37 -36 -83 -35 -126 3
l-33 29 -38 -33 c-29 -25 -37 -39 -37 -65 0 -86 89 -179 179 -187 54 -6 100
20 139 77 20 29 23 44 19 87 -7 70 12 62 37 -16 16 -52 17 -66 6 -132 -11 -64
-18 -79 -49 -111 -31 -30 -46 -37 -95 -43 -184 -23 -319 143 -265 326 11 35
10 40 -15 69 -37 44 -35 89 5 135 18 20 41 41 53 47 58 31 143 30 206 -2z m79
-199 c18 -11 5 -31 -20 -31 -18 0 -26 20 -12 33 8 9 15 9 32 -2z"/>
<path d="M2693 7836 c-65 -31 -125 -92 -160 -164 -36 -74 -44 -203 -17 -284
51 -156 164 -247 317 -256 82 -5 138 13 212 68 164 121 171 418 15 564 -75 70
-120 89 -225 93 -79 4 -96 1 -142 -21z m175 -12 c17 -4 48 -21 68 -38 31 -27
37 -38 37 -72 0 -35 -6 -47 -39 -77 -49 -45 -94 -49 -144 -12 -43 31 -46 31
-55 -2 -9 -37 -50 -90 -76 -98 -52 -17 -116 46 -103 102 30 130 179 224 312
197z m165 -234 c64 -84 68 -194 9 -290 -61 -100 -206 -121 -328 -46 -57 34
-83 116 -52 166 12 18 14 18 53 -14 80 -66 164 -70 235 -10 45 39 60 75 60
148 l0 66 -30 -6 c-26 -6 -30 -4 -30 15 0 39 41 25 83 -29z"/>
<path d="M5205 5608 c-24 -21 -27 -29 -21 -61 7 -39 50 -83 92 -93 69 -18 101
76 47 136 -39 42 -82 49 -118 18z m97 -90 c-7 -7 -12 -8 -12 -2 0 14 12 26 19
19 2 -3 -1 -11 -7 -17z"/>
<path d="M2178 5365 c-32 -18 -58 -63 -58 -99 0 -13 12 -38 26 -55 21 -25 33
-31 66 -31 57 0 108 51 108 108 0 23 -7 49 -18 62 -23 28 -87 36 -124 15z m80
-47 c35 -35 -7 -92 -60 -81 -21 4 -28 11 -28 28 0 26 27 58 41 50 5 -4 9 -1 9
4 0 15 23 14 38 -1z"/>
<path d="M2242 5140 c-40 -9 -49 -17 -36 -30 15 -15 89 2 89 20 0 17 -12 20
-53 10z"/>
<path d="M2241 5054 c-24 -10 -31 -18 -24 -25 15 -15 77 3 81 24 4 21 -12 21
-57 1z"/>
<path d="M5143 4834 c-41 -20 -59 -65 -55 -131 1 -12 17 -38 36 -57 27 -29 41
-36 72 -36 46 0 78 20 99 60 26 49 19 86 -22 130 -44 47 -84 57 -130 34z"/>
<path d="M2984 4701 c-46 -28 -64 -59 -64 -111 0 -67 28 -106 85 -118 61 -13
108 0 135 38 28 39 34 78 18 125 -25 74 -109 106 -174 66z m120 -53 c37 -52 2
-128 -59 -128 -39 0 -75 37 -75 77 0 61 100 99 134 51z"/>
<path d="M4577 4533 c-11 -10 -8 -106 3 -123 8 -12 10 -11 10 8 0 13 6 22 15
22 8 0 15 -4 15 -8 0 -5 6 -16 13 -26 11 -16 13 -9 14 48 0 54 -3 68 -18 76
-21 12 -43 13 -52 3z m48 -38 c0 -11 -8 -21 -17 -23 -14 -3 -18 3 -18 23 0 20
4 26 18 23 9 -2 17 -12 17 -23z"/>
<path d="M4712 4518 c-19 -19 -22 -20 -22 -5 0 9 -4 17 -9 17 -11 0 -20 -66
-14 -107 6 -36 23 -35 23 0 0 20 2 20 25 -8 29 -36 33 -19 5 28 l-20 34 21 27
c27 34 20 43 -9 14z"/>
<path d="M4273 4523 c-8 -3 -14 -29 -15 -71 l-2 -67 -3 63 c-4 68 -24 85 -40
35 l-10 -28 -17 28 c-10 15 -22 27 -27 27 -5 0 -9 -30 -9 -67 -1 -63 -2 -66
-14 -43 -8 14 -20 44 -27 68 -19 66 -25 60 -49 -45 -12 -51 -22 -64 -35 -43
-3 6 -13 10 -22 10 -13 0 -13 -3 -3 -15 19 -23 67 -19 73 5 6 23 35 27 43 5 4
-8 17 -15 30 -15 21 0 24 5 24 38 1 35 2 36 15 18 15 -19 15 -19 29 -1 13 18
14 17 21 -13 6 -31 9 -32 56 -32 31 0 48 4 44 10 -3 6 -15 10 -26 10 -14 0
-19 7 -19 25 0 18 5 25 20 25 11 0 20 5 20 11 0 6 -9 8 -20 4 -16 -5 -20 -2
-20 19 0 21 5 26 25 26 14 0 25 5 25 10 0 10 -45 12 -67 3z m-173 -93 c0 -5
-5 -10 -11 -10 -5 0 -7 5 -4 10 3 6 8 10 11 10 2 0 4 -4 4 -10z"/>
<path d="M4434 4493 l-7 -38 -14 33 c-14 35 -33 35 -34 -1 0 -21 -1 -21 -11 3
-18 41 -21 0 -5 -57 15 -51 28 -59 38 -21 l5 23 6 -22 c3 -13 11 -23 16 -23
10 0 32 83 32 120 0 34 -19 22 -26 -17z"/>
<path d="M4483 4518 c-49 -62 5 -170 59 -121 20 18 24 82 8 114 -12 21 -52 26
-67 7z m55 -53 c3 -47 -8 -68 -31 -59 -23 8 -31 43 -18 78 17 42 45 31 49 -19z"/>
<path d="M3940 4463 c0 -57 11 -113 21 -107 5 3 9 14 9 25 0 10 7 19 15 19 8
0 22 11 31 25 26 39 6 75 -41 75 -34 0 -35 -1 -35 -37z m60 -2 c0 -11 -5 -23
-11 -27 -15 -9 -33 12 -26 30 9 23 37 20 37 -3z"/>
<path d="M3833 4465 c8 -40 46 -125 56 -125 11 0 34 112 29 136 -6 24 -13 8
-24 -51 l-7 -40 -22 48 c-28 59 -40 71 -32 32z"/>
<path d="M2728 2908 c24 -24 244 -49 257 -29 7 12 -11 17 -95 31 -92 14 -177
13 -162 -2z"/>
<path d="M3110 3451 c0 -26 12 -29 167 -37 119 -6 133 -5 139 10 4 10 3 21 -2
25 -5 5 -75 11 -156 15 -143 6 -148 6 -148 -13z"/>
<path d="M3150 2871 c0 -17 31 -21 147 -21 87 0 114 3 111 13 -5 15 -258 23
-258 8z"/>
</g>
</svg>
