<svg id="Capa_1" enable-background="new 0 0 512 512" height="512" viewBox="0 0 512 512" width="512" xmlns="http://www.w3.org/2000/svg"><g><path d="m493.421 512h-474.842c-10.261 0-18.579-8.318-18.579-18.579v-407.651c0-10.261 8.318-18.579 18.579-18.579h474.842c10.261 0 18.579 8.318 18.579 18.579v407.651c0 10.261-8.318 18.579-18.579 18.579z" fill="#f9f6f9"/><path d="m493.421 67.191h-25.435c10.261 0 18.579 8.318 18.579 18.579v407.651c0 10.261-8.318 18.579-18.579 18.579h25.435c10.261 0 18.579-8.318 18.579-18.579v-407.651c0-10.261-8.318-18.579-18.579-18.579z" fill="#dddaec"/><g><path d="m355.382 479.158h-198.765c-7.754 0-14.041-6.286-14.041-14.041v-50.442c0-7.754 6.286-14.041 14.041-14.041h198.765c7.754 0 14.041 6.286 14.041 14.041v50.442c0 7.755-6.286 14.041-14.041 14.041z" fill="#95d6a4"/><path d="m355.383 400.635h-21.528c7.754 0 14.041 6.286 14.041 14.041v50.442c0 7.755-6.286 14.041-14.041 14.041h21.528c7.754 0 14.041-6.286 14.041-14.041v-50.442c-.001-7.755-6.287-14.041-14.041-14.041z" fill="#78c2a4"/><g><g><path d="m268.061 447.623h-33.59c-4.267 0-7.726-3.459-7.726-7.726s3.459-7.726 7.726-7.726h33.59c4.268 0 7.726 3.459 7.726 7.726s-3.458 7.726-7.726 7.726z" fill="#78c2a4"/></g><g><path d="m263.939 461.644c-1.937 0-3.875-.723-5.376-2.178-3.064-2.97-3.141-7.861-.171-10.926l8.376-8.644-8.376-8.644c-2.97-3.064-2.893-7.956.171-10.926 3.065-2.97 7.957-2.892 10.926.171l13.588 14.021c2.904 2.997 2.904 7.758 0 10.755l-13.588 14.021c-1.516 1.564-3.532 2.35-5.55 2.35z" fill="#78c2a4"/></g></g></g><circle cx="256" cy="64.291" fill="#95d6a4" r="64.291"/><path d="m256 0c-3.844 0-7.602.357-11.26 1.003 30.135 5.327 53.031 31.625 53.031 63.288s-22.896 57.961-53.031 63.288c3.658.647 7.417 1.003 11.26 1.003 35.507 0 64.291-28.784 64.291-64.291s-28.784-64.291-64.291-64.291z" fill="#78c2a4"/><g><path d="m250.16 86.543c-2.049 0-4.015-.814-5.463-2.263l-17.37-17.371c-3.018-3.017-3.018-7.908 0-10.927 3.018-3.017 7.91-3.015 10.927 0l11.906 11.908 23.586-23.587c3.019-3.016 7.91-3.016 10.928 0 3.017 3.018 3.017 7.909 0 10.928l-29.05 29.049c-1.449 1.449-3.415 2.263-5.464 2.263z" fill="#78c2a4"/></g><g><g><g><path d="m117.64 251.095c-4.267 0-7.726-3.459-7.726-7.726v-98.308c0-4.268 3.459-7.726 7.726-7.726s7.726 3.459 7.726 7.726v98.308c0 4.267-3.459 7.726-7.726 7.726z" fill="#78c2a4"/></g><g><path d="m185.671 251.095c-4.267 0-7.726-3.459-7.726-7.726v-98.308c0-4.268 3.459-7.726 7.726-7.726s7.726 3.459 7.726 7.726v98.308c0 4.267-3.459 7.726-7.726 7.726z" fill="#78c2a4"/></g><g><path d="m185.671 200.255h-68.031c-4.267 0-7.726-3.459-7.726-7.726 0-4.268 3.459-7.726 7.726-7.726h68.031c4.267 0 7.726 3.459 7.726 7.726s-3.459 7.726-7.726 7.726z" fill="#78c2a4"/></g></g><g><g><path d="m287.056 251.497c-4.268 0-7.726-3.459-7.726-7.726v-78.255c0-4.268 3.459-7.726 7.726-7.726s7.726 3.459 7.726 7.726v78.255c0 4.267-3.458 7.726-7.726 7.726z" fill="#78c2a4"/></g></g><g><g><path d="m315.276 251.497c-4.268 0-7.726-3.459-7.726-7.726v-78.255c0-4.268 3.459-7.726 7.726-7.726 4.268 0 7.726 3.459 7.726 7.726v78.255c.001 4.267-3.458 7.726-7.726 7.726z" fill="#78c2a4"/></g></g><g><g><path d="m262.58 225.937c-.005 0-.01 0-.015 0l-46.845-.092c-4.152-.008-7.556-3.297-7.706-7.447l-.127-3.518c-.004-.094-.005-.186-.005-.28 0-17.231 14.002-31.25 31.212-31.25s31.212 14.002 31.212 31.212v3.648c0 2.051-.816 4.019-2.269 5.469-1.448 1.446-3.411 2.258-5.457 2.258zm-38.682-15.528 30.416.059c-1.807-6.711-7.946-11.665-15.22-11.665-7.242 0-13.359 4.923-15.196 11.606z" fill="#78c2a4"/></g><g><g><path d="m241.941 251.282c-18.729 0-33.966-15.237-33.966-33.966 0-4.268 3.459-7.726 7.726-7.726s7.726 3.459 7.726 7.726c0 10.208 8.305 18.513 18.513 18.513 3.722 0 6.839-1.095 9.263-3.254.472-.42.927-.889 1.352-1.396 2.745-3.266 7.617-3.691 10.886-.947 3.267 2.744 3.691 7.619.947 10.886-.903 1.075-1.882 2.085-2.909 2.998-5.263 4.688-12.019 7.166-19.538 7.166z" fill="#78c2a4"/></g></g></g><g><path d="m368.12 251.282c-18.728 0-33.966-15.237-33.966-33.966s15.237-33.966 33.966-33.966 33.966 15.237 33.966 33.966-15.237 33.966-33.966 33.966zm0-52.479c-10.208 0-18.513 8.305-18.513 18.513s8.305 18.513 18.513 18.513 18.513-8.305 18.513-18.513-8.304-18.513-18.513-18.513z" fill="#78c2a4"/></g></g><g><g><path d="m312.489 297.322h-112.977c-4.267 0-7.726-3.459-7.726-7.726s3.459-7.726 7.726-7.726h112.977c4.268 0 7.726 3.459 7.726 7.726s-3.459 7.726-7.726 7.726z" fill="#453d81"/></g><g><path d="m363.998 333.906h-215.995c-4.267 0-7.726-3.459-7.726-7.726s3.459-7.726 7.726-7.726h215.995c4.268 0 7.726 3.459 7.726 7.726s-3.459 7.726-7.726 7.726z" fill="#453d81"/></g><g><path d="m363.998 370.489h-215.995c-4.267 0-7.726-3.459-7.726-7.726s3.459-7.726 7.726-7.726h215.995c4.268 0 7.726 3.459 7.726 7.726s-3.459 7.726-7.726 7.726z" fill="#453d81"/></g></g></g></svg>