<svg height="512" viewBox="0 0 64 64" width="512" xmlns="http://www.w3.org/2000/svg"><g id="setting-management-setting-gear-hand"><path d="m53.65 21a3.228 3.228 0 0 1 -.24.58l2.37 2.37-.05.05h-15.46l-.05-.05 2.37-2.37a3.228 3.228 0 0 1 -.24-.58h-3.35v-4h3.35a3.228 3.228 0 0 1 .24-.58l-2.37-2.37 2.83-2.83 2.37 2.37a3.228 3.228 0 0 1 .58-.24v-3.35h4v3.35a3.228 3.228 0 0 1 .58.24l2.37-2.37 2.83 2.83-2.37 2.37a3.228 3.228 0 0 1 .24.58h3.35v4z" fill="#ed1c24"/><circle cx="48" cy="19" fill="#e6e7e8" r="3"/><path d="m23 23h17v27h-17z" fill="#c49a6c"/><path d="m40 23h17v27h-17z" fill="#a97c50"/><path d="m40 48v3l17-1v-19a17 17 0 0 1 -17 17z" fill="#8b5e3c"/><path d="m60.28 45.4a2.994 2.994 0 0 0 -4.09-1.1l-10.67 6.16h-.005a2.989 2.989 0 0 0 -2.094-2.06l-14.92-4a6 6 0 0 0 -3.008-.025l-6.493 1.625v12l2.733 1.367a6.007 6.007 0 0 0 2.683.633h14.977a5.993 5.993 0 0 0 3-.8l16.8-9.7a3 3 0 0 0 1.087-4.1z" fill="#ffbcab"/><path d="m45.515 50.46c-.018-.059-.031-.12-.052-.178-.021.062-.044.123-.069.182a2.99 2.99 0 0 1 -3.526 1.736l-5.317-1.424-5.161-1.388a.967.967 0 0 0 -1.193.724.967.967 0 0 0 .693 1.142l10.814 2.9a3.13 3.13 0 0 0 3.629-1.526 2.948 2.948 0 0 0 .182-2.168z" fill="#ff9478"/><path d="m32 3.58v7.42l-3 2-3-2v-7.42a8 8 0 0 0 -2.32 13.39 3.935 3.935 0 0 1 1.32 2.96v3.07h8v-3.07a3.935 3.935 0 0 1 1.32-2.96 8 8 0 0 0 -2.32-13.39z" fill="#ff9811"/><path d="m11 43v2 14 2h8v-3-12-3z" fill="#006df0"/><path d="m3 45h8v14h-8z" fill="#005ece"/><path d="m29 23h-4-2l-4 8h4 13l4-8h-7z" fill="#a97c50"/><path d="m55.73 23h-15.46-.27l4 8h13 4l-4-8z" fill="#8b5e3c"/><path d="m9 45h2v14h-2z" fill="#004fac"/></g></svg>